# Blender 5.1.1
# www.blender.org
mtllib earth.mtl
o Sphere
v 0.000000 1.000000 0.000000
v 0.000000 0.831470 -0.555570
v 0.000000 0.555570 -0.831470
v 0.000000 0.195090 -0.980785
v 0.000000 0.000000 -1.000000
v 0.000000 -0.195090 -0.980785
v 0.000000 -0.555570 -0.831470
v 0.000000 -1.000000 0.000000
v 0.038060 0.980785 -0.191342
v 0.074658 0.923880 -0.375330
v 0.108386 0.831470 -0.544895
v 0.137950 0.707107 -0.693520
v 0.162212 0.555570 -0.815493
v 0.180240 0.382683 -0.906127
v 0.191342 0.195090 -0.961940
v 0.195090 0.000000 -0.980785
v 0.191342 -0.195090 -0.961940
v 0.180240 -0.382683 -0.906127
v 0.162212 -0.555570 -0.815493
v 0.137950 -0.707107 -0.693520
v 0.108386 -0.831470 -0.544895
v 0.074658 -0.923880 -0.375330
v 0.038060 -0.980785 -0.191342
v 0.074658 0.980785 -0.180240
v 0.146447 0.923880 -0.353553
v 0.212608 0.831470 -0.513280
v 0.270598 0.707107 -0.653281
v 0.318190 0.555570 -0.768178
v 0.353553 0.382683 -0.853553
v 0.375330 0.195090 -0.906127
v 0.382683 0.000000 -0.923879
v 0.375330 -0.195090 -0.906127
v 0.353553 -0.382683 -0.853553
v 0.318190 -0.555570 -0.768178
v 0.270598 -0.707107 -0.653281
v 0.212608 -0.831470 -0.513280
v 0.146447 -0.923880 -0.353553
v 0.074658 -0.980785 -0.180240
v 0.108386 0.980785 -0.162212
v 0.212608 0.923880 -0.318190
v 0.308658 0.831470 -0.461940
v 0.392847 0.707107 -0.587938
v 0.461940 0.555570 -0.691342
v 0.513280 0.382683 -0.768178
v 0.544895 0.195090 -0.815493
v 0.555570 0.000000 -0.831469
v 0.544895 -0.195090 -0.815493
v 0.513280 -0.382683 -0.768178
v 0.461940 -0.555570 -0.691342
v 0.392847 -0.707107 -0.587938
v 0.308658 -0.831470 -0.461940
v 0.212608 -0.923880 -0.318190
v 0.108386 -0.980785 -0.162212
v 0.137950 0.980785 -0.137950
v 0.270598 0.923880 -0.270598
v 0.392847 0.831470 -0.392847
v 0.500000 0.707107 -0.500000
v 0.587938 0.555570 -0.587938
v 0.653281 0.382683 -0.653281
v 0.693520 0.195090 -0.693520
v 0.707107 0.000000 -0.707107
v 0.693520 -0.195090 -0.693520
v 0.653281 -0.382683 -0.653281
v 0.587938 -0.555570 -0.587938
v 0.500000 -0.707107 -0.500000
v 0.392847 -0.831470 -0.392847
v 0.270598 -0.923880 -0.270598
v 0.137950 -0.980785 -0.137950
v 0.162212 0.980785 -0.108386
v 0.318190 0.923880 -0.212608
v 0.461940 0.831470 -0.308658
v 0.587938 0.707107 -0.392847
v 0.691342 0.555570 -0.461940
v 0.768178 0.382683 -0.513280
v 0.815493 0.195090 -0.544895
v 0.831470 0.000000 -0.555570
v 0.815493 -0.195090 -0.544895
v 0.768178 -0.382683 -0.513280
v 0.691342 -0.555570 -0.461940
v 0.587938 -0.707107 -0.392847
v 0.461940 -0.831470 -0.308658
v 0.318190 -0.923880 -0.212608
v 0.162212 -0.980785 -0.108386
v 0.180240 0.980785 -0.074658
v 0.353553 0.923880 -0.146447
v 0.513280 0.831470 -0.212607
v 0.653281 0.707107 -0.270598
v 0.768178 0.555570 -0.318190
v 0.853553 0.382683 -0.353553
v 0.906127 0.195090 -0.375330
v 0.923879 0.000000 -0.382683
v 0.906127 -0.195090 -0.375330
v 0.853553 -0.382683 -0.353553
v 0.768178 -0.555570 -0.318190
v 0.653281 -0.707107 -0.270598
v 0.513280 -0.831470 -0.212607
v 0.353553 -0.923880 -0.146447
v 0.180240 -0.980785 -0.074658
v 0.191342 0.980785 -0.038060
v 0.375330 0.923880 -0.074658
v 0.544895 0.831470 -0.108386
v 0.693520 0.707107 -0.137950
v 0.815493 0.555570 -0.162212
v 0.906127 0.382683 -0.180240
v 0.961940 0.195090 -0.191342
v 0.980785 0.000000 -0.195090
v 0.961940 -0.195090 -0.191342
v 0.906127 -0.382683 -0.180240
v 0.815493 -0.555570 -0.162212
v 0.693520 -0.707107 -0.137950
v 0.544895 -0.831470 -0.108386
v 0.375330 -0.923880 -0.074658
v 0.191342 -0.980785 -0.038060
v 0.195090 0.980785 0.000000
v 0.382683 0.923880 0.000000
v 0.555570 0.831470 0.000000
v 0.707107 0.707107 -0.000000
v 0.831469 0.555570 0.000000
v 0.923879 0.382683 -0.000000
v 0.980785 0.195090 0.000000
v 1.000000 0.000000 0.000000
v 0.980785 -0.195090 0.000000
v 0.923879 -0.382683 -0.000000
v 0.831469 -0.555570 0.000000
v 0.707107 -0.707107 -0.000000
v 0.555570 -0.831470 0.000000
v 0.382683 -0.923880 0.000000
v 0.195090 -0.980785 0.000000
v 0.191342 0.980785 0.038060
v 0.375330 0.923880 0.074658
v 0.544895 0.831470 0.108386
v 0.693520 0.707107 0.137950
v 0.815493 0.555570 0.162212
v 0.906127 0.382683 0.180240
v 0.961940 0.195090 0.191342
v 0.980785 0.000000 0.195090
v 0.961940 -0.195090 0.191342
v 0.906127 -0.382683 0.180240
v 0.815493 -0.555570 0.162212
v 0.693520 -0.707107 0.137950
v 0.544895 -0.831470 0.108386
v 0.375330 -0.923880 0.074658
v 0.191342 -0.980785 0.038060
v 0.180240 0.980785 0.074658
v 0.353553 0.923880 0.146447
v 0.513280 0.831470 0.212608
v 0.653281 0.707107 0.270598
v 0.768178 0.555570 0.318190
v 0.853553 0.382683 0.353553
v 0.906127 0.195090 0.375330
v 0.923879 0.000000 0.382683
v 0.906127 -0.195090 0.375330
v 0.853553 -0.382683 0.353553
v 0.768178 -0.555570 0.318190
v 0.653281 -0.707107 0.270598
v 0.513280 -0.831470 0.212608
v 0.353553 -0.923880 0.146447
v 0.180240 -0.980785 0.074658
v 0.162212 0.980785 0.108386
v 0.318190 0.923880 0.212608
v 0.461940 0.831470 0.308658
v 0.587938 0.707107 0.392847
v 0.691341 0.555570 0.461940
v 0.768178 0.382683 0.513280
v 0.815493 0.195090 0.544895
v 0.831469 0.000000 0.555570
v 0.815493 -0.195090 0.544895
v 0.768178 -0.382683 0.513280
v 0.691341 -0.555570 0.461940
v 0.587938 -0.707107 0.392847
v 0.461940 -0.831470 0.308658
v 0.318190 -0.923880 0.212608
v 0.162212 -0.980785 0.108386
v 0.137950 0.980785 0.137950
v 0.270598 0.923880 0.270598
v 0.392847 0.831470 0.392847
v 0.500000 0.707107 0.500000
v 0.587938 0.555570 0.587938
v 0.653281 0.382683 0.653281
v 0.693520 0.195090 0.693520
v 0.707106 0.000000 0.707107
v 0.693520 -0.195090 0.693520
v 0.653281 -0.382683 0.653281
v 0.587938 -0.555570 0.587938
v 0.500000 -0.707107 0.500000
v 0.392847 -0.831470 0.392847
v 0.270598 -0.923880 0.270598
v 0.137950 -0.980785 0.137950
v 0.108386 0.980785 0.162212
v 0.212607 0.923880 0.318190
v 0.308658 0.831470 0.461940
v 0.392847 0.707107 0.587938
v 0.461940 0.555570 0.691342
v 0.513280 0.382683 0.768178
v 0.544895 0.195090 0.815493
v 0.555570 0.000000 0.831469
v 0.544895 -0.195090 0.815493
v 0.513280 -0.382683 0.768178
v 0.461940 -0.555570 0.691342
v 0.392847 -0.707107 0.587938
v 0.308658 -0.831470 0.461940
v 0.212607 -0.923880 0.318190
v 0.108386 -0.980785 0.162212
v 0.074658 0.980785 0.180240
v 0.146447 0.923880 0.353553
v 0.212607 0.831470 0.513280
v 0.270598 0.707107 0.653281
v 0.318189 0.555570 0.768178
v 0.353553 0.382683 0.853553
v 0.375330 0.195090 0.906127
v 0.382683 0.000000 0.923879
v 0.375330 -0.195090 0.906127
v 0.353553 -0.382683 0.853553
v 0.318189 -0.555570 0.768178
v 0.270598 -0.707107 0.653281
v 0.212607 -0.831470 0.513280
v 0.146447 -0.923880 0.353553
v 0.074658 -0.980785 0.180240
v 0.038060 0.980785 0.191342
v 0.074658 0.923880 0.375330
v 0.108386 0.831470 0.544895
v 0.137950 0.707107 0.693520
v 0.162212 0.555570 0.815493
v 0.180240 0.382683 0.906127
v 0.191342 0.195090 0.961939
v 0.195090 0.000000 0.980785
v 0.191342 -0.195090 0.961939
v 0.180240 -0.382683 0.906127
v 0.162212 -0.555570 0.815493
v 0.137950 -0.707107 0.693520
v 0.108386 -0.831470 0.544895
v 0.074658 -0.923880 0.375330
v 0.038060 -0.980785 0.191342
v -0.000000 0.980785 0.195090
v -0.000000 0.923880 0.382683
v -0.000000 0.831470 0.555570
v -0.000000 0.707107 0.707107
v -0.000000 0.555570 0.831469
v 0.000000 0.382683 0.923879
v -0.000000 0.195090 0.980785
v -0.000000 0.000000 0.999999
v -0.000000 -0.195090 0.980785
v 0.000000 -0.382683 0.923879
v -0.000000 -0.555570 0.831469
v -0.000000 -0.707107 0.707107
v -0.000000 -0.831470 0.555570
v -0.000000 -0.923880 0.382683
v -0.000000 -0.980785 0.195090
v -0.038060 0.980785 0.191342
v -0.074658 0.923880 0.375330
v -0.108386 0.831470 0.544895
v -0.137950 0.707107 0.693520
v -0.162212 0.555570 0.815493
v -0.180240 0.382683 0.906127
v -0.191342 0.195090 0.961939
v -0.195091 0.000000 0.980785
v -0.191342 -0.195090 0.961939
v -0.180240 -0.382683 0.906127
v -0.162212 -0.555570 0.815493
v -0.137950 -0.707107 0.693520
v -0.108386 -0.831470 0.544895
v -0.074658 -0.923880 0.375330
v -0.038060 -0.980785 0.191342
v -0.074658 0.980785 0.180240
v -0.146447 0.923880 0.353553
v -0.212608 0.831470 0.513280
v -0.270598 0.707107 0.653281
v -0.318190 0.555570 0.768177
v -0.353553 0.382683 0.853553
v -0.375330 0.195090 0.906127
v -0.382683 0.000000 0.923879
v -0.375330 -0.195090 0.906127
v -0.353553 -0.382683 0.853553
v -0.318190 -0.555570 0.768177
v -0.270598 -0.707107 0.653281
v -0.212608 -0.831470 0.513280
v -0.146447 -0.923880 0.353553
v -0.074658 -0.980785 0.180240
v -0.108386 0.980785 0.162212
v -0.212608 0.923880 0.318190
v -0.308658 0.831470 0.461939
v -0.392847 0.707107 0.587938
v -0.461940 0.555570 0.691341
v -0.513280 0.382683 0.768178
v -0.544895 0.195090 0.815493
v -0.555570 0.000000 0.831469
v -0.544895 -0.195090 0.815493
v -0.513280 -0.382683 0.768178
v -0.461940 -0.555570 0.691341
v -0.392847 -0.707107 0.587938
v -0.308658 -0.831470 0.461939
v -0.212608 -0.923880 0.318190
v -0.108386 -0.980785 0.162212
v -0.137950 0.980785 0.137950
v -0.270598 0.923880 0.270598
v -0.392847 0.831470 0.392847
v -0.500000 0.707107 0.500000
v -0.587938 0.555570 0.587937
v -0.653281 0.382683 0.653281
v -0.693520 0.195090 0.693520
v -0.707106 0.000000 0.707106
v -0.693520 -0.195090 0.693520
v -0.653281 -0.382683 0.653281
v -0.587938 -0.555570 0.587937
v -0.500000 -0.707107 0.500000
v -0.392847 -0.831470 0.392847
v -0.270598 -0.923880 0.270598
v -0.137950 -0.980785 0.137950
v -0.162212 0.980785 0.108386
v -0.318190 0.923880 0.212607
v -0.461940 0.831470 0.308658
v -0.587938 0.707107 0.392847
v -0.691341 0.555570 0.461939
v -0.768177 0.382683 0.513280
v -0.815493 0.195090 0.544895
v -0.831469 0.000000 0.555569
v -0.815493 -0.195090 0.544895
v -0.768177 -0.382683 0.513280
v -0.691341 -0.555570 0.461939
v -0.587938 -0.707107 0.392847
v -0.461940 -0.831470 0.308658
v -0.318190 -0.923880 0.212607
v -0.162212 -0.980785 0.108386
v -0.180240 0.980785 0.074658
v -0.353553 0.923880 0.146447
v -0.513280 0.831470 0.212607
v -0.653281 0.707107 0.270598
v -0.768177 0.555570 0.318189
v -0.853553 0.382683 0.353553
v -0.906127 0.195090 0.375330
v -0.923879 0.000000 0.382683
v -0.906127 -0.195090 0.375330
v -0.853553 -0.382683 0.353553
v -0.768177 -0.555570 0.318189
v -0.653281 -0.707107 0.270598
v -0.513280 -0.831470 0.212607
v -0.353553 -0.923880 0.146447
v -0.180240 -0.980785 0.074658
v -0.191342 0.980785 0.038060
v -0.375330 0.923880 0.074658
v -0.544895 0.831470 0.108386
v -0.693520 0.707107 0.137950
v -0.815493 0.555570 0.162211
v -0.906127 0.382683 0.180240
v -0.961939 0.195090 0.191341
v -0.980784 0.000000 0.195090
v -0.961939 -0.195090 0.191341
v -0.906127 -0.382683 0.180240
v -0.815493 -0.555570 0.162211
v -0.693520 -0.707107 0.137950
v -0.544895 -0.831470 0.108386
v -0.375330 -0.923880 0.074658
v -0.191342 -0.980785 0.038060
v -0.195090 0.980785 -0.000000
v -0.382683 0.923880 -0.000000
v -0.555570 0.831470 -0.000000
v -0.707107 0.707107 -0.000000
v -0.831469 0.555570 -0.000000
v -0.923879 0.382683 -0.000000
v -0.980785 0.195090 -0.000000
v -0.999999 0.000000 -0.000000
v -0.980785 -0.195090 -0.000000
v -0.923879 -0.382683 -0.000000
v -0.831469 -0.555570 -0.000000
v -0.707107 -0.707107 -0.000000
v -0.555570 -0.831470 -0.000000
v -0.382683 -0.923880 -0.000000
v -0.195090 -0.980785 -0.000000
v -0.191342 0.980785 -0.038060
v -0.375330 0.923880 -0.074658
v -0.544895 0.831470 -0.108386
v -0.693520 0.707107 -0.137950
v -0.815493 0.555570 -0.162212
v -0.906127 0.382683 -0.180240
v -0.961939 0.195090 -0.191342
v -0.980784 0.000000 -0.195091
v -0.961939 -0.195090 -0.191342
v -0.906127 -0.382683 -0.180240
v -0.815493 -0.555570 -0.162212
v -0.693520 -0.707107 -0.137950
v -0.544895 -0.831470 -0.108386
v -0.375330 -0.923880 -0.074658
v -0.191342 -0.980785 -0.038060
v -0.180240 0.980785 -0.074658
v -0.353553 0.923880 -0.146447
v -0.513279 0.831470 -0.212607
v -0.653281 0.707107 -0.270598
v -0.768177 0.555570 -0.318190
v -0.853553 0.382683 -0.353553
v -0.906127 0.195090 -0.375330
v -0.923878 0.000000 -0.382683
v -0.906127 -0.195090 -0.375330
v -0.853553 -0.382683 -0.353553
v -0.768177 -0.555570 -0.318190
v -0.653281 -0.707107 -0.270598
v -0.513279 -0.831470 -0.212607
v -0.353553 -0.923880 -0.146447
v -0.180240 -0.980785 -0.074658
v -0.162212 0.980785 -0.108386
v -0.318189 0.923880 -0.212607
v -0.461939 0.831470 -0.308658
v -0.587938 0.707107 -0.392847
v -0.691341 0.555570 -0.461940
v -0.768177 0.382683 -0.513280
v -0.815493 0.195090 -0.544895
v -0.831468 0.000000 -0.555570
v -0.815493 -0.195090 -0.544895
v -0.768177 -0.382683 -0.513280
v -0.691341 -0.555570 -0.461940
v -0.587938 -0.707107 -0.392847
v -0.461939 -0.831470 -0.308658
v -0.318189 -0.923880 -0.212607
v -0.162212 -0.980785 -0.108386
v -0.137950 0.980785 -0.137950
v -0.270598 0.923880 -0.270598
v -0.392847 0.831470 -0.392847
v -0.500000 0.707107 -0.500000
v -0.587937 0.555570 -0.587938
v -0.653281 0.382683 -0.653281
v -0.693519 0.195090 -0.693520
v -0.707106 0.000000 -0.707106
v -0.693519 -0.195090 -0.693520
v -0.653281 -0.382683 -0.653281
v -0.587937 -0.555570 -0.587938
v -0.500000 -0.707107 -0.500000
v -0.392847 -0.831470 -0.392847
v -0.270598 -0.923880 -0.270598
v -0.137950 -0.980785 -0.137950
v -0.108386 0.980785 -0.162212
v -0.212607 0.923880 -0.318190
v -0.308658 0.831470 -0.461939
v -0.392847 0.707107 -0.587938
v -0.461939 0.555570 -0.691341
v -0.513280 0.382683 -0.768177
v -0.544895 0.195090 -0.815493
v -0.555569 0.000000 -0.831469
v -0.544895 -0.195090 -0.815493
v -0.513280 -0.382683 -0.768177
v -0.461939 -0.555570 -0.691341
v -0.392847 -0.707107 -0.587938
v -0.308658 -0.831470 -0.461939
v -0.212607 -0.923880 -0.318190
v -0.108386 -0.980785 -0.162212
v -0.074658 0.980785 -0.180240
v -0.146446 0.923880 -0.353553
v -0.212607 0.831470 -0.513279
v -0.270598 0.707107 -0.653281
v -0.318189 0.555570 -0.768177
v -0.353553 0.382683 -0.853553
v -0.375330 0.195090 -0.906127
v -0.382683 0.000000 -0.923879
v -0.375330 -0.195090 -0.906127
v -0.353553 -0.382683 -0.853553
v -0.318189 -0.555570 -0.768177
v -0.270598 -0.707107 -0.653281
v -0.212607 -0.831470 -0.513279
v -0.146446 -0.923880 -0.353553
v -0.074658 -0.980785 -0.180240
v -0.038060 0.980785 -0.191342
v -0.074658 0.923880 -0.375330
v -0.108386 0.831470 -0.544895
v -0.137950 0.707107 -0.693520
v -0.162211 0.555570 -0.815493
v -0.180240 0.382683 -0.906127
v -0.191341 0.195090 -0.961939
v -0.195090 0.000000 -0.980784
v -0.191341 -0.195090 -0.961939
v -0.180240 -0.382683 -0.906127
v -0.162211 -0.555570 -0.815493
v -0.137950 -0.707107 -0.693520
v -0.108386 -0.831470 -0.544895
v -0.074658 -0.923880 -0.375330
v -0.038060 -0.980785 -0.191342
v 0.000000 0.980785 -0.195090
v 0.000000 0.923880 -0.382683
v 0.000000 0.707107 -0.707107
v 0.000000 0.382683 -0.923879
v 0.000000 -0.382683 -0.923879
v 0.000000 -0.707107 -0.707107
v 0.000000 -0.831470 -0.555570
v 0.000000 -0.923880 -0.382683
v 0.000000 -0.980785 -0.195090
vn 0.0938 0.2890 -0.9527
vn 0.0286 -0.9565 -0.2902
vn 0.0975 0.0975 -0.9904
vn 0.0097 0.9951 -0.0980
vn 0.0097 -0.9951 -0.0980
vn 0.0975 -0.0976 -0.9904
vn 0.0286 0.9565 -0.2902
vn 0.0938 -0.2890 -0.9527
vn 0.0464 0.8810 -0.4709
vn 0.0865 -0.4696 -0.8786
vn 0.0624 0.7715 -0.6332
vn 0.0759 -0.6326 -0.7708
vn 0.0759 0.6326 -0.7708
vn 0.0624 -0.7715 -0.6332
vn 0.0865 0.4696 -0.8786
vn 0.0464 -0.8810 -0.4709
vn 0.1847 -0.7715 -0.6088
vn 0.2563 0.4696 -0.8448
vn 0.1374 -0.8810 -0.4528
vn 0.2779 0.2890 -0.9161
vn 0.0846 -0.9565 -0.2790
vn 0.2889 0.0976 -0.9524
vn 0.0286 0.9951 -0.0942
vn 0.0286 -0.9951 -0.0942
vn 0.2889 -0.0976 -0.9524
vn 0.0846 0.9565 -0.2790
vn 0.2779 -0.2890 -0.9161
vn 0.1374 0.8810 -0.4528
vn 0.2563 -0.4696 -0.8448
vn 0.1847 0.7715 -0.6088
vn 0.2248 -0.6326 -0.7412
vn 0.2248 0.6326 -0.7412
vn 0.4513 -0.2890 -0.8443
vn 0.2231 0.8810 -0.4173
vn 0.4162 -0.4696 -0.7786
vn 0.2999 0.7715 -0.5611
vn 0.3651 -0.6326 -0.6831
vn 0.3651 0.6326 -0.6831
vn 0.2999 -0.7715 -0.5611
vn 0.4162 0.4696 -0.7786
vn 0.2230 -0.8810 -0.4173
vn 0.4513 0.2890 -0.8443
vn 0.1374 -0.9565 -0.2571
vn 0.4691 0.0975 -0.8777
vn 0.0464 0.9951 -0.0869
vn 0.0464 -0.9951 -0.0869
vn 0.4691 -0.0975 -0.8777
vn 0.1374 0.9565 -0.2571
vn 0.3002 -0.8810 -0.3658
vn 0.6073 0.2890 -0.7400
vn 0.1850 -0.9565 -0.2254
vn 0.6314 0.0975 -0.7693
vn 0.0625 0.9951 -0.0761
vn 0.0625 -0.9951 -0.0761
vn 0.6314 -0.0975 -0.7693
vn 0.1850 0.9565 -0.2254
vn 0.6073 -0.2890 -0.7400
vn 0.3002 0.8810 -0.3658
vn 0.5601 -0.4696 -0.6825
vn 0.4036 0.7715 -0.4918
vn 0.4913 -0.6326 -0.5987
vn 0.4913 0.6326 -0.5987
vn 0.4036 -0.7715 -0.4918
vn 0.5601 0.4696 -0.6825
vn 0.3658 0.8810 -0.3002
vn 0.6825 -0.4696 -0.5601
vn 0.4918 0.7715 -0.4036
vn 0.5987 -0.6326 -0.4913
vn 0.5987 0.6326 -0.4913
vn 0.4918 -0.7715 -0.4036
vn 0.6825 0.4696 -0.5601
vn 0.3658 -0.8810 -0.3002
vn 0.7400 0.2890 -0.6073
vn 0.2254 -0.9566 -0.1850
vn 0.7693 0.0975 -0.6314
vn 0.0761 0.9951 -0.0625
vn 0.0761 -0.9951 -0.0625
vn 0.7693 -0.0975 -0.6314
vn 0.2254 0.9565 -0.1850
vn 0.7400 -0.2890 -0.6073
vn 0.8443 0.2890 -0.4513
vn 0.2571 -0.9565 -0.1374
vn 0.8777 0.0975 -0.4691
vn 0.0869 0.9951 -0.0464
vn 0.0869 -0.9951 -0.0464
vn 0.8777 -0.0975 -0.4691
vn 0.2571 0.9565 -0.1374
vn 0.8443 -0.2890 -0.4513
vn 0.4173 0.8810 -0.2230
vn 0.7786 -0.4696 -0.4162
vn 0.5611 0.7715 -0.2999
vn 0.6831 -0.6326 -0.3651
vn 0.6831 0.6326 -0.3651
vn 0.5611 -0.7715 -0.2999
vn 0.7786 0.4696 -0.4162
vn 0.4173 -0.8810 -0.2230
vn 0.8448 -0.4696 -0.2563
vn 0.6088 0.7715 -0.1847
vn 0.7412 -0.6326 -0.2248
vn 0.7412 0.6326 -0.2248
vn 0.6088 -0.7715 -0.1847
vn 0.8448 0.4696 -0.2563
vn 0.4528 -0.8810 -0.1374
vn 0.9161 0.2890 -0.2779
vn 0.2790 -0.9565 -0.0846
vn 0.9524 0.0975 -0.2889
vn 0.0942 0.9951 -0.0286
vn 0.0942 -0.9951 -0.0286
vn 0.9524 -0.0975 -0.2889
vn 0.2790 0.9565 -0.0846
vn 0.9161 -0.2890 -0.2779
vn 0.4528 0.8810 -0.1374
vn 0.2902 -0.9565 -0.0286
vn 0.9904 0.0975 -0.0975
vn 0.0980 0.9951 -0.0097
vn 0.0980 -0.9951 -0.0097
vn 0.9904 -0.0975 -0.0975
vn 0.2902 0.9565 -0.0286
vn 0.9527 -0.2890 -0.0938
vn 0.4709 0.8810 -0.0464
vn 0.8786 -0.4696 -0.0865
vn 0.6332 0.7715 -0.0624
vn 0.7708 -0.6326 -0.0759
vn 0.7708 0.6326 -0.0759
vn 0.6332 -0.7715 -0.0624
vn 0.8786 0.4696 -0.0865
vn 0.4709 -0.8810 -0.0464
vn 0.9527 0.2890 -0.0938
vn 0.6332 0.7715 0.0624
vn 0.7708 -0.6326 0.0759
vn 0.7708 0.6326 0.0759
vn 0.6332 -0.7715 0.0624
vn 0.8786 0.4696 0.0865
vn 0.4709 -0.8810 0.0464
vn 0.9527 0.2890 0.0938
vn 0.2902 -0.9565 0.0286
vn 0.9904 0.0975 0.0976
vn 0.0980 0.9951 0.0097
vn 0.0980 -0.9951 0.0097
vn 0.9904 -0.0975 0.0976
vn 0.2902 0.9565 0.0286
vn 0.9527 -0.2890 0.0938
vn 0.4709 0.8810 0.0464
vn 0.8786 -0.4696 0.0865
vn 0.9524 0.0975 0.2889
vn 0.0942 0.9951 0.0286
vn 0.0942 -0.9951 0.0286
vn 0.9524 -0.0975 0.2889
vn 0.2790 0.9565 0.0846
vn 0.9161 -0.2890 0.2779
vn 0.4528 0.8810 0.1374
vn 0.8448 -0.4696 0.2563
vn 0.6088 0.7715 0.1847
vn 0.7412 -0.6326 0.2248
vn 0.7412 0.6326 0.2248
vn 0.6088 -0.7715 0.1847
vn 0.8448 0.4696 0.2563
vn 0.4528 -0.8810 0.1374
vn 0.9161 0.2890 0.2779
vn 0.2790 -0.9565 0.0846
vn 0.6831 -0.6326 0.3651
vn 0.6831 0.6326 0.3651
vn 0.5611 -0.7715 0.2999
vn 0.7786 0.4696 0.4162
vn 0.4173 -0.8810 0.2230
vn 0.8443 0.2890 0.4513
vn 0.2571 -0.9565 0.1374
vn 0.8777 0.0975 0.4691
vn 0.0869 0.9951 0.0464
vn 0.0869 -0.9951 0.0464
vn 0.8777 -0.0975 0.4691
vn 0.2571 0.9565 0.1374
vn 0.8443 -0.2890 0.4513
vn 0.4173 0.8810 0.2231
vn 0.7786 -0.4696 0.4162
vn 0.5611 0.7715 0.2999
vn 0.0761 -0.9951 0.0625
vn 0.7693 -0.0975 0.6314
vn 0.2254 0.9565 0.1850
vn 0.7400 -0.2890 0.6073
vn 0.3658 0.8810 0.3002
vn 0.6825 -0.4696 0.5601
vn 0.4918 0.7715 0.4036
vn 0.5987 -0.6326 0.4913
vn 0.5987 0.6326 0.4913
vn 0.4918 -0.7715 0.4036
vn 0.6825 0.4696 0.5601
vn 0.3658 -0.8810 0.3002
vn 0.7400 0.2890 0.6073
vn 0.2254 -0.9565 0.1850
vn 0.7693 0.0975 0.6314
vn 0.0761 0.9951 0.0625
vn 0.4036 -0.7715 0.4918
vn 0.5601 0.4696 0.6825
vn 0.3002 -0.8810 0.3658
vn 0.6073 0.2890 0.7400
vn 0.1850 -0.9565 0.2254
vn 0.6314 0.0975 0.7693
vn 0.0625 0.9951 0.0761
vn 0.0625 -0.9951 0.0761
vn 0.6314 -0.0975 0.7693
vn 0.1850 0.9565 0.2254
vn 0.6073 -0.2890 0.7400
vn 0.3002 0.8810 0.3658
vn 0.5601 -0.4696 0.6825
vn 0.4036 0.7715 0.4918
vn 0.4913 -0.6326 0.5987
vn 0.4913 0.6326 0.5987
vn 0.1374 0.9565 0.2571
vn 0.4513 -0.2890 0.8443
vn 0.2230 0.8810 0.4173
vn 0.4162 -0.4696 0.7786
vn 0.2999 0.7715 0.5611
vn 0.3651 -0.6326 0.6831
vn 0.3651 0.6326 0.6831
vn 0.2999 -0.7715 0.5611
vn 0.4162 0.4696 0.7786
vn 0.2230 -0.8810 0.4173
vn 0.4513 0.2890 0.8443
vn 0.1374 -0.9565 0.2571
vn 0.4691 0.0975 0.8777
vn 0.0464 0.9951 0.0869
vn 0.0464 -0.9951 0.0869
vn 0.4691 -0.0975 0.8777
vn 0.2563 0.4696 0.8448
vn 0.1374 -0.8810 0.4528
vn 0.2779 0.2890 0.9161
vn 0.0846 -0.9565 0.2790
vn 0.2889 0.0975 0.9524
vn 0.0286 0.9951 0.0942
vn 0.0286 -0.9951 0.0942
vn 0.2889 -0.0975 0.9524
vn 0.0846 0.9565 0.2790
vn 0.2779 -0.2890 0.9161
vn 0.1374 0.8810 0.4528
vn 0.2563 -0.4696 0.8448
vn 0.1847 0.7715 0.6088
vn 0.2248 -0.6326 0.7412
vn 0.2248 0.6326 0.7412
vn 0.1847 -0.7715 0.6088
vn 0.0938 -0.2890 0.9527
vn 0.0464 0.8810 0.4709
vn 0.0865 -0.4696 0.8786
vn 0.0624 0.7715 0.6332
vn 0.0759 -0.6326 0.7708
vn 0.0759 0.6326 0.7708
vn 0.0624 -0.7715 0.6332
vn 0.0865 0.4696 0.8786
vn 0.0464 -0.8810 0.4709
vn 0.0938 0.2890 0.9527
vn 0.0286 -0.9565 0.2902
vn 0.0975 0.0975 0.9904
vn 0.0097 0.9951 0.0980
vn 0.0097 -0.9951 0.0980
vn 0.0975 -0.0975 0.9904
vn 0.0286 0.9565 0.2902
vn -0.0464 -0.8810 0.4709
vn -0.0938 0.2890 0.9527
vn -0.0286 -0.9565 0.2902
vn -0.0976 0.0975 0.9904
vn -0.0097 0.9951 0.0980
vn -0.0097 -0.9951 0.0980
vn -0.0975 -0.0975 0.9904
vn -0.0286 0.9565 0.2902
vn -0.0938 -0.2890 0.9527
vn -0.0464 0.8810 0.4709
vn -0.0865 -0.4696 0.8786
vn -0.0624 0.7715 0.6332
vn -0.0759 -0.6326 0.7708
vn -0.0759 0.6326 0.7708
vn -0.0624 -0.7715 0.6332
vn -0.0865 0.4696 0.8786
vn -0.1374 0.8810 0.4528
vn -0.2563 -0.4696 0.8448
vn -0.1847 0.7715 0.6088
vn -0.2248 -0.6326 0.7412
vn -0.2248 0.6326 0.7412
vn -0.1847 -0.7715 0.6088
vn -0.2563 0.4696 0.8448
vn -0.1374 -0.8810 0.4528
vn -0.2779 0.2890 0.9161
vn -0.0846 -0.9565 0.2790
vn -0.2889 0.0975 0.9524
vn -0.0286 0.9951 0.0942
vn -0.0286 -0.9951 0.0942
vn -0.2889 -0.0975 0.9524
vn -0.0846 0.9565 0.2790
vn -0.2779 -0.2890 0.9161
vn -0.4513 0.2890 0.8443
vn -0.1374 -0.9565 0.2571
vn -0.4691 0.0975 0.8777
vn -0.0464 0.9951 0.0869
vn -0.0464 -0.9951 0.0869
vn -0.4691 -0.0975 0.8777
vn -0.1374 0.9565 0.2571
vn -0.4513 -0.2890 0.8443
vn -0.2230 0.8810 0.4173
vn -0.4162 -0.4696 0.7786
vn -0.2999 0.7715 0.5611
vn -0.3651 -0.6326 0.6831
vn -0.3651 0.6326 0.6831
vn -0.2999 -0.7715 0.5611
vn -0.4162 0.4696 0.7786
vn -0.2230 -0.8810 0.4173
vn -0.5601 -0.4696 0.6825
vn -0.4036 0.7715 0.4918
vn -0.4913 -0.6326 0.5987
vn -0.4913 0.6326 0.5987
vn -0.4036 -0.7715 0.4918
vn -0.5601 0.4696 0.6825
vn -0.3002 -0.8810 0.3658
vn -0.6073 0.2890 0.7400
vn -0.1850 -0.9565 0.2254
vn -0.6314 0.0975 0.7693
vn -0.0625 0.9951 0.0761
vn -0.0625 -0.9951 0.0761
vn -0.6314 -0.0975 0.7693
vn -0.1850 0.9565 0.2254
vn -0.6073 -0.2890 0.7400
vn -0.3002 0.8810 0.3658
vn -0.2254 -0.9566 0.1850
vn -0.7693 0.0975 0.6314
vn -0.0761 0.9951 0.0625
vn -0.0761 -0.9951 0.0625
vn -0.7693 -0.0975 0.6314
vn -0.2254 0.9565 0.1850
vn -0.7400 -0.2890 0.6073
vn -0.3658 0.8810 0.3002
vn -0.6825 -0.4696 0.5601
vn -0.4918 0.7715 0.4036
vn -0.5987 -0.6326 0.4913
vn -0.5987 0.6326 0.4913
vn -0.4918 -0.7715 0.4036
vn -0.6825 0.4696 0.5601
vn -0.3658 -0.8810 0.3002
vn -0.7400 0.2890 0.6073
vn -0.6831 -0.6326 0.3651
vn -0.6831 0.6326 0.3651
vn -0.5611 -0.7715 0.2999
vn -0.7786 0.4696 0.4162
vn -0.4173 -0.8810 0.2231
vn -0.8443 0.2890 0.4513
vn -0.2571 -0.9565 0.1374
vn -0.8777 0.0975 0.4691
vn -0.0869 0.9951 0.0464
vn -0.0869 -0.9951 0.0464
vn -0.8777 -0.0975 0.4691
vn -0.2571 0.9565 0.1374
vn -0.8443 -0.2890 0.4513
vn -0.4173 0.8810 0.2230
vn -0.7786 -0.4696 0.4162
vn -0.5611 0.7715 0.2999
vn -0.0942 0.9951 0.0286
vn -0.0942 -0.9951 0.0286
vn -0.9524 -0.0975 0.2889
vn -0.2790 0.9565 0.0846
vn -0.9161 -0.2890 0.2779
vn -0.4528 0.8810 0.1374
vn -0.8448 -0.4696 0.2563
vn -0.6088 0.7715 0.1847
vn -0.7412 -0.6326 0.2248
vn -0.7412 0.6326 0.2248
vn -0.6088 -0.7715 0.1847
vn -0.8448 0.4696 0.2563
vn -0.4528 -0.8810 0.1374
vn -0.9161 0.2890 0.2779
vn -0.2790 -0.9565 0.0846
vn -0.9524 0.0975 0.2889
vn -0.7708 0.6326 0.0759
vn -0.6332 -0.7715 0.0624
vn -0.8786 0.4696 0.0865
vn -0.4709 -0.8810 0.0464
vn -0.9527 0.2890 0.0938
vn -0.2902 -0.9565 0.0286
vn -0.9904 0.0975 0.0975
vn -0.0980 0.9951 0.0097
vn -0.0980 -0.9951 0.0097
vn -0.9904 -0.0975 0.0976
vn -0.2902 0.9565 0.0286
vn -0.9527 -0.2890 0.0938
vn -0.4709 0.8810 0.0464
vn -0.8786 -0.4696 0.0865
vn -0.6332 0.7715 0.0624
vn -0.7708 -0.6326 0.0759
vn -0.9904 -0.0975 -0.0976
vn -0.2902 0.9565 -0.0286
vn -0.9527 -0.2890 -0.0938
vn -0.4709 0.8810 -0.0464
vn -0.8786 -0.4696 -0.0865
vn -0.6332 0.7715 -0.0624
vn -0.7708 -0.6326 -0.0759
vn -0.7708 0.6326 -0.0759
vn -0.6332 -0.7715 -0.0624
vn -0.8786 0.4696 -0.0865
vn -0.4709 -0.8810 -0.0464
vn -0.9527 0.2890 -0.0938
vn -0.2902 -0.9565 -0.0286
vn -0.9904 0.0975 -0.0975
vn -0.0980 0.9951 -0.0097
vn -0.0980 -0.9951 -0.0097
vn -0.6088 -0.7715 -0.1847
vn -0.8448 0.4696 -0.2563
vn -0.4528 -0.8810 -0.1374
vn -0.9161 0.2890 -0.2779
vn -0.2790 -0.9565 -0.0846
vn -0.9524 0.0975 -0.2889
vn -0.0942 0.9951 -0.0286
vn -0.0942 -0.9951 -0.0286
vn -0.9524 -0.0975 -0.2889
vn -0.2790 0.9565 -0.0846
vn -0.9161 -0.2890 -0.2779
vn -0.4528 0.8810 -0.1374
vn -0.8448 -0.4696 -0.2563
vn -0.6088 0.7715 -0.1847
vn -0.7412 -0.6326 -0.2248
vn -0.7412 0.6326 -0.2248
vn -0.2571 0.9565 -0.1374
vn -0.8443 -0.2890 -0.4513
vn -0.4173 0.8810 -0.2231
vn -0.7786 -0.4696 -0.4162
vn -0.5611 0.7715 -0.2999
vn -0.6831 -0.6326 -0.3651
vn -0.6831 0.6326 -0.3651
vn -0.5611 -0.7715 -0.2999
vn -0.7786 0.4696 -0.4162
vn -0.4173 -0.8810 -0.2231
vn -0.8443 0.2890 -0.4513
vn -0.2571 -0.9565 -0.1374
vn -0.8777 0.0975 -0.4691
vn -0.0869 0.9951 -0.0464
vn -0.0869 -0.9951 -0.0464
vn -0.8777 -0.0975 -0.4691
vn -0.6825 0.4696 -0.5601
vn -0.3658 -0.8810 -0.3002
vn -0.7400 0.2890 -0.6073
vn -0.2254 -0.9565 -0.1850
vn -0.7693 0.0975 -0.6314
vn -0.0761 0.9951 -0.0625
vn -0.0761 -0.9951 -0.0625
vn -0.7693 -0.0975 -0.6314
vn -0.2254 0.9565 -0.1850
vn -0.7400 -0.2890 -0.6073
vn -0.3658 0.8810 -0.3002
vn -0.6825 -0.4696 -0.5601
vn -0.4918 0.7715 -0.4036
vn -0.5987 -0.6326 -0.4913
vn -0.5987 0.6326 -0.4913
vn -0.4918 -0.7715 -0.4036
vn -0.6073 -0.2890 -0.7400
vn -0.3002 0.8810 -0.3658
vn -0.5601 -0.4696 -0.6825
vn -0.4036 0.7715 -0.4918
vn -0.4913 -0.6326 -0.5987
vn -0.4913 0.6326 -0.5987
vn -0.4036 -0.7715 -0.4918
vn -0.5601 0.4696 -0.6825
vn -0.3002 -0.8810 -0.3658
vn -0.6073 0.2890 -0.7400
vn -0.1850 -0.9565 -0.2254
vn -0.6314 0.0975 -0.7693
vn -0.0625 0.9951 -0.0761
vn -0.0625 -0.9951 -0.0761
vn -0.6314 -0.0975 -0.7693
vn -0.1850 0.9565 -0.2254
vn -0.2230 -0.8810 -0.4173
vn -0.4513 0.2890 -0.8443
vn -0.1374 -0.9565 -0.2571
vn -0.4691 0.0975 -0.8777
vn -0.0464 0.9951 -0.0869
vn -0.0464 -0.9951 -0.0869
vn -0.4691 -0.0975 -0.8777
vn -0.1374 0.9565 -0.2571
vn -0.4513 -0.2890 -0.8443
vn -0.2230 0.8810 -0.4173
vn -0.4162 -0.4696 -0.7786
vn -0.2999 0.7715 -0.5611
vn -0.3651 -0.6326 -0.6831
vn -0.3651 0.6326 -0.6831
vn -0.2999 -0.7715 -0.5611
vn -0.4162 0.4696 -0.7786
vn -0.2563 -0.4696 -0.8448
vn -0.1847 0.7715 -0.6088
vn -0.2248 -0.6326 -0.7412
vn -0.2248 0.6326 -0.7412
vn -0.1847 -0.7715 -0.6088
vn -0.2563 0.4696 -0.8448
vn -0.1374 -0.8810 -0.4528
vn -0.2779 0.2890 -0.9161
vn -0.0846 -0.9565 -0.2790
vn -0.2889 0.0975 -0.9524
vn -0.0286 0.9951 -0.0942
vn -0.0286 -0.9951 -0.0942
vn -0.2889 -0.0975 -0.9524
vn -0.0846 0.9565 -0.2790
vn -0.2779 -0.2890 -0.9161
vn -0.1374 0.8810 -0.4528
vn -0.0286 -0.9565 -0.2902
vn -0.0976 0.0975 -0.9904
vn -0.0097 0.9951 -0.0980
vn -0.0097 -0.9951 -0.0980
vn -0.0976 -0.0975 -0.9904
vn -0.0286 0.9565 -0.2902
vn -0.0938 -0.2890 -0.9527
vn -0.0464 0.8810 -0.4709
vn -0.0865 -0.4696 -0.8786
vn -0.0624 0.7715 -0.6332
vn -0.0759 -0.6326 -0.7708
vn -0.0759 0.6326 -0.7708
vn -0.0624 -0.7715 -0.6332
vn -0.0865 0.4696 -0.8786
vn -0.0464 -0.8810 -0.4709
vn -0.0938 0.2890 -0.9527
vn 0.0975 0.0976 -0.9904
vn 0.0975 -0.0975 -0.9904
vn 0.2230 0.8810 -0.4173
vn 0.2231 -0.8810 -0.4173
vn 0.2254 -0.9565 -0.1850
vn 0.4173 -0.8810 0.2231
vn 0.4173 0.8810 0.2230
vn 0.2231 -0.8810 0.4173
vn -0.0975 0.0975 0.9904
vn -0.0976 -0.0975 0.9904
vn -0.2231 0.8810 0.4173
vn -0.2231 -0.8810 0.4173
vn -0.2254 -0.9565 0.1850
vn -0.4173 -0.8810 0.2230
vn -0.9904 0.0975 0.0976
vn -0.9904 -0.0975 0.0975
vn -0.9904 -0.0975 -0.0975
vn -0.9904 0.0975 -0.0976
vt 0.750000 0.559765
vt 0.718750 0.621254
vt 0.718750 0.559765
vt 0.750000 0.129344
vt 0.718750 0.067856
vt 0.750000 0.067856
vt 0.718750 0.498277
vt 0.750000 0.498277
vt 0.750000 0.928698
vt 0.734375 0.990186
vt 0.718750 0.928698
vt 0.734375 0.006367
vt 0.718750 0.436788
vt 0.750000 0.436788
vt 0.750000 0.867209
vt 0.718750 0.867209
vt 0.718750 0.375299
vt 0.750000 0.375299
vt 0.750000 0.805720
vt 0.718750 0.805720
vt 0.718750 0.313810
vt 0.750000 0.313811
vt 0.750000 0.744232
vt 0.718750 0.744232
vt 0.718750 0.252322
vt 0.750000 0.252322
vt 0.750000 0.682743
vt 0.718750 0.682743
vt 0.718750 0.190833
vt 0.750000 0.190833
vt 0.750000 0.621254
vt 0.718750 0.129344
vt 0.687500 0.252322
vt 0.687500 0.190833
vt 0.687500 0.621254
vt 0.687500 0.129344
vt 0.687500 0.559765
vt 0.687500 0.067856
vt 0.687500 0.498277
vt 0.703125 0.990186
vt 0.687500 0.928698
vt 0.703125 0.006367
vt 0.687500 0.436788
vt 0.687500 0.867209
vt 0.687500 0.375299
vt 0.687500 0.805720
vt 0.687500 0.313810
vt 0.687500 0.744232
vt 0.687500 0.682743
vt 0.656250 0.375299
vt 0.656250 0.805720
vt 0.656250 0.313810
vt 0.656250 0.744232
vt 0.656250 0.252322
vt 0.656250 0.682743
vt 0.656250 0.190833
vt 0.656250 0.621254
vt 0.656250 0.129344
vt 0.656250 0.559765
vt 0.656250 0.067856
vt 0.656250 0.498277
vt 0.671875 0.990186
vt 0.656250 0.928698
vt 0.671875 0.006367
vt 0.656250 0.436788
vt 0.656250 0.867209
vt 0.625000 0.129344
vt 0.625000 0.621254
vt 0.625000 0.559765
vt 0.625000 0.067856
vt 0.625000 0.498277
vt 0.640625 0.990186
vt 0.625000 0.928698
vt 0.640625 0.006367
vt 0.625000 0.436788
vt 0.625000 0.867209
vt 0.625000 0.375299
vt 0.625000 0.805720
vt 0.625000 0.313810
vt 0.625000 0.744231
vt 0.625000 0.252322
vt 0.625000 0.682743
vt 0.625000 0.190833
vt 0.593750 0.805720
vt 0.593750 0.375299
vt 0.593750 0.313810
vt 0.593750 0.744232
vt 0.593750 0.252322
vt 0.593750 0.682743
vt 0.593750 0.190833
vt 0.593750 0.621254
vt 0.593750 0.129344
vt 0.593750 0.559765
vt 0.593750 0.067856
vt 0.593750 0.498277
vt 0.609375 0.990186
vt 0.593750 0.928698
vt 0.609375 0.006367
vt 0.593750 0.436788
vt 0.593750 0.867209
vt 0.562500 0.621254
vt 0.562500 0.559765
vt 0.562500 0.129344
vt 0.562500 0.067856
vt 0.562500 0.498277
vt 0.578125 0.990186
vt 0.562500 0.928698
vt 0.578125 0.006367
vt 0.562500 0.436788
vt 0.562500 0.867209
vt 0.562500 0.375299
vt 0.562500 0.805720
vt 0.562500 0.313810
vt 0.562500 0.744232
vt 0.562500 0.252322
vt 0.562500 0.682743
vt 0.562500 0.190833
vt 0.531250 0.375299
vt 0.531250 0.313810
vt 0.531250 0.744232
vt 0.531250 0.252322
vt 0.531250 0.682743
vt 0.531250 0.190833
vt 0.531250 0.621254
vt 0.531250 0.129344
vt 0.531250 0.559765
vt 0.531250 0.067856
vt 0.531250 0.498277
vt 0.546875 0.990186
vt 0.531250 0.928698
vt 0.546875 0.006367
vt 0.531250 0.436788
vt 0.531250 0.867209
vt 0.531250 0.805720
vt 0.500000 0.067856
vt 0.500000 0.559765
vt 0.500000 0.498277
vt 0.515625 0.990186
vt 0.500000 0.928698
vt 0.515625 0.006367
vt 0.500000 0.436788
vt 0.500000 0.867209
vt 0.500000 0.375299
vt 0.500000 0.805720
vt 0.500000 0.313810
vt 0.500000 0.744232
vt 0.500000 0.252322
vt 0.500000 0.682743
vt 0.500000 0.190833
vt 0.500000 0.621254
vt 0.500000 0.129344
vt 0.468750 0.744232
vt 0.468750 0.252322
vt 0.468750 0.682743
vt 0.468750 0.190833
vt 0.468750 0.621254
vt 0.468750 0.129344
vt 0.468750 0.559765
vt 0.468750 0.067856
vt 0.468750 0.498277
vt 0.484375 0.990186
vt 0.468750 0.928698
vt 0.484375 0.006367
vt 0.468750 0.436788
vt 0.468750 0.867209
vt 0.468750 0.375299
vt 0.468750 0.805720
vt 0.468750 0.313810
vt 0.437500 0.559765
vt 0.437500 0.498277
vt 0.453125 0.990186
vt 0.437500 0.928698
vt 0.453125 0.006367
vt 0.437500 0.067856
vt 0.437500 0.436788
vt 0.437500 0.867209
vt 0.437500 0.375299
vt 0.437500 0.805720
vt 0.437500 0.313810
vt 0.437500 0.744232
vt 0.437500 0.252322
vt 0.437500 0.682743
vt 0.437500 0.190833
vt 0.437500 0.621254
vt 0.437500 0.129344
vt 0.406250 0.252322
vt 0.406250 0.744232
vt 0.406250 0.682743
vt 0.406250 0.190833
vt 0.406250 0.621254
vt 0.406250 0.129344
vt 0.406250 0.559765
vt 0.406250 0.067856
vt 0.406250 0.498277
vt 0.421875 0.990186
vt 0.406250 0.928698
vt 0.421875 0.006367
vt 0.406250 0.436788
vt 0.406250 0.867209
vt 0.406250 0.375299
vt 0.406250 0.805720
vt 0.406250 0.313810
vt 0.390625 0.006367
vt 0.375000 0.067856
vt 0.375000 0.436788
vt 0.375000 0.867209
vt 0.375000 0.375299
vt 0.375000 0.805720
vt 0.375000 0.313810
vt 0.375000 0.744232
vt 0.375000 0.252322
vt 0.375000 0.682743
vt 0.375000 0.190833
vt 0.375000 0.621254
vt 0.375000 0.129344
vt 0.375000 0.559765
vt 0.375000 0.498277
vt 0.390625 0.990186
vt 0.375000 0.928698
vt 0.343750 0.252322
vt 0.343750 0.190833
vt 0.343750 0.621254
vt 0.343750 0.129344
vt 0.343750 0.559765
vt 0.343750 0.067856
vt 0.343750 0.498277
vt 0.359375 0.990186
vt 0.343750 0.928698
vt 0.359375 0.006367
vt 0.343750 0.436788
vt 0.343750 0.867209
vt 0.343750 0.375299
vt 0.343750 0.805720
vt 0.343750 0.313810
vt 0.343750 0.744232
vt 0.343750 0.682743
vt 0.312500 0.867209
vt 0.312500 0.375299
vt 0.312500 0.805720
vt 0.312500 0.313810
vt 0.312500 0.744232
vt 0.312500 0.252322
vt 0.312500 0.682743
vt 0.312500 0.190833
vt 0.312500 0.621254
vt 0.312500 0.129344
vt 0.312500 0.559765
vt 0.312500 0.067856
vt 0.312500 0.498277
vt 0.328125 0.990186
vt 0.312500 0.928698
vt 0.328125 0.006367
vt 0.312500 0.436788
vt 0.281250 0.621254
vt 0.281250 0.129344
vt 0.281250 0.559765
vt 0.281250 0.067856
vt 0.281250 0.498277
vt 0.296875 0.990186
vt 0.281250 0.928698
vt 0.296875 0.006367
vt 0.281250 0.436788
vt 0.281250 0.867209
vt 0.281250 0.375299
vt 0.281250 0.805720
vt 0.281250 0.313810
vt 0.281250 0.744232
vt 0.281250 0.252322
vt 0.281250 0.682743
vt 0.281250 0.190833
vt 0.250000 0.375299
vt 0.250000 0.867209
vt 0.250000 0.805720
vt 0.250000 0.313810
vt 0.250000 0.744232
vt 0.250000 0.252322
vt 0.250000 0.682743
vt 0.250000 0.190833
vt 0.250000 0.621254
vt 0.250000 0.129344
vt 0.250000 0.559765
vt 0.250000 0.067856
vt 0.250000 0.498277
vt 0.265625 0.990186
vt 0.250000 0.928698
vt 0.265625 0.006367
vt 0.250000 0.436788
vt 0.218750 0.129344
vt 0.218750 0.621254
vt 0.218750 0.559765
vt 0.218750 0.067856
vt 0.218750 0.498277
vt 0.234375 0.990186
vt 0.218750 0.928698
vt 0.234375 0.006367
vt 0.218750 0.436788
vt 0.218750 0.867209
vt 0.218750 0.375299
vt 0.218750 0.805720
vt 0.218750 0.313810
vt 0.218750 0.744232
vt 0.218750 0.252322
vt 0.218750 0.682743
vt 0.218750 0.190833
vt 0.187500 0.805720
vt 0.187500 0.375299
vt 0.187500 0.313810
vt 0.187500 0.744232
vt 0.187500 0.252322
vt 0.187500 0.682743
vt 0.187500 0.190833
vt 0.187500 0.621254
vt 0.187500 0.129344
vt 0.187500 0.559765
vt 0.187500 0.067856
vt 0.187500 0.498277
vt 0.203125 0.990186
vt 0.187500 0.928698
vt 0.203125 0.006367
vt 0.187500 0.436788
vt 0.187500 0.867209
vt 0.156250 0.621254
vt 0.156250 0.559765
vt 0.156250 0.129344
vt 0.156250 0.067856
vt 0.156250 0.498277
vt 0.171875 0.990186
vt 0.156250 0.928698
vt 0.171875 0.006367
vt 0.156250 0.436788
vt 0.156250 0.867209
vt 0.156250 0.375299
vt 0.156250 0.805720
vt 0.156250 0.313810
vt 0.156250 0.744232
vt 0.156250 0.252322
vt 0.156250 0.682743
vt 0.156250 0.190833
vt 0.125000 0.375299
vt 0.125000 0.313810
vt 0.125000 0.744232
vt 0.125000 0.252322
vt 0.125000 0.682743
vt 0.125000 0.190833
vt 0.125000 0.621254
vt 0.125000 0.129344
vt 0.125000 0.559765
vt 0.125000 0.067856
vt 0.125000 0.498277
vt 0.140625 0.990186
vt 0.125000 0.928698
vt 0.140625 0.006367
vt 0.125000 0.436788
vt 0.125000 0.867209
vt 0.125000 0.805720
vt 0.093750 0.067856
vt 0.093750 0.559765
vt 0.093750 0.498277
vt 0.109375 0.990186
vt 0.093750 0.928698
vt 0.109375 0.006367
vt 0.093750 0.436788
vt 0.093750 0.867209
vt 0.093750 0.375299
vt 0.093750 0.805720
vt 0.093750 0.313810
vt 0.093750 0.744232
vt 0.093750 0.252322
vt 0.093750 0.682743
vt 0.093750 0.190833
vt 0.093750 0.621254
vt 0.093750 0.129344
vt 0.062500 0.252322
vt 0.062500 0.682743
vt 0.062500 0.190833
vt 0.062500 0.621254
vt 0.062500 0.129344
vt 0.062500 0.559765
vt 0.062500 0.067856
vt 0.062500 0.498277
vt 0.078125 0.990186
vt 0.062500 0.928698
vt 0.078125 0.006367
vt 0.062500 0.436788
vt 0.062500 0.867209
vt 0.062500 0.375299
vt 0.062500 0.805720
vt 0.062500 0.313810
vt 0.062500 0.744232
vt 0.046875 0.990186
vt 0.031250 0.928698
vt 0.046875 0.006367
vt 0.031250 0.067856
vt 0.031250 0.436788
vt 0.031250 0.867209
vt 0.031250 0.375299
vt 0.031250 0.805720
vt 0.031250 0.313810
vt 0.031250 0.744232
vt 0.031250 0.252322
vt 0.031250 0.682743
vt 0.031250 0.190833
vt 0.031250 0.621254
vt 0.031250 0.129344
vt 0.031250 0.559765
vt 0.031250 0.498277
vt 0.000000 0.744232
vt 0.000000 0.682743
vt 0.000000 0.252322
vt 0.000000 0.190833
vt 0.000000 0.621254
vt 0.000000 0.129344
vt 0.000000 0.559765
vt 0.000000 0.067856
vt 0.000000 0.498277
vt 0.015625 0.990186
vt 0.000000 0.928698
vt 0.015625 0.006367
vt 0.000000 0.436788
vt 0.000000 0.867209
vt 0.000000 0.375299
vt 0.000000 0.805720
vt 0.000000 0.313810
vt 1.000000 0.498277
vt 0.968750 0.436788
vt 1.000000 0.436788
vt 1.000000 0.928698
vt 0.968750 0.867209
vt 1.000000 0.867209
vt 0.968750 0.375299
vt 1.000000 0.375299
vt 1.000000 0.805720
vt 0.968750 0.805720
vt 1.000000 0.313810
vt 0.968750 0.313810
vt 0.968750 0.744232
vt 1.000000 0.744232
vt 0.968750 0.252322
vt 1.000000 0.252322
vt 1.000000 0.682743
vt 0.968750 0.682743
vt 1.000000 0.190833
vt 0.968750 0.190833
vt 0.968750 0.621254
vt 1.000000 0.621254
vt 0.968750 0.129344
vt 1.000000 0.129344
vt 1.000000 0.559765
vt 0.968750 0.559765
vt 0.968750 0.067856
vt 1.000000 0.067856
vt 0.968750 0.498277
vt 0.984375 0.990186
vt 0.968750 0.928698
vt 0.984375 0.006367
vt 0.937500 0.252322
vt 0.937500 0.190833
vt 0.937500 0.621254
vt 0.937500 0.129344
vt 0.937500 0.559765
vt 0.937500 0.067856
vt 0.937500 0.498277
vt 0.953125 0.990186
vt 0.937500 0.928698
vt 0.953125 0.006367
vt 0.937500 0.436788
vt 0.937500 0.867209
vt 0.937500 0.375299
vt 0.937500 0.805720
vt 0.937500 0.313810
vt 0.937500 0.744232
vt 0.937500 0.682743
vt 0.906250 0.928698
vt 0.906250 0.867209
vt 0.906250 0.375299
vt 0.906250 0.805720
vt 0.906250 0.313810
vt 0.906250 0.744232
vt 0.906250 0.252322
vt 0.906250 0.682743
vt 0.906250 0.190833
vt 0.906250 0.621254
vt 0.906250 0.129344
vt 0.906250 0.559765
vt 0.906250 0.067856
vt 0.906250 0.498277
vt 0.921875 0.990186
vt 0.921875 0.006367
vt 0.906250 0.436788
vt 0.875000 0.621254
vt 0.875000 0.129344
vt 0.875000 0.559765
vt 0.875000 0.067856
vt 0.875000 0.498277
vt 0.890625 0.990186
vt 0.875000 0.928698
vt 0.890625 0.006367
vt 0.875000 0.436788
vt 0.875000 0.867209
vt 0.875000 0.375299
vt 0.875000 0.805720
vt 0.875000 0.313810
vt 0.875000 0.744232
vt 0.875000 0.252322
vt 0.875000 0.682743
vt 0.875000 0.190833
vt 0.843750 0.375299
vt 0.843750 0.867209
vt 0.843750 0.805720
vt 0.843750 0.313810
vt 0.843750 0.744232
vt 0.843750 0.252322
vt 0.843750 0.682743
vt 0.843750 0.190833
vt 0.843750 0.621254
vt 0.843750 0.129344
vt 0.843750 0.559765
vt 0.843750 0.067856
vt 0.843750 0.498277
vt 0.859375 0.990186
vt 0.843750 0.928698
vt 0.859375 0.006367
vt 0.843750 0.436788
vt 0.812500 0.129344
vt 0.812500 0.621254
vt 0.812500 0.559765
vt 0.812500 0.067856
vt 0.812500 0.498277
vt 0.828125 0.990186
vt 0.812500 0.928698
vt 0.828125 0.006367
vt 0.812500 0.436788
vt 0.812500 0.867209
vt 0.812500 0.375299
vt 0.812500 0.805720
vt 0.812500 0.313810
vt 0.812500 0.744232
vt 0.812500 0.252322
vt 0.812500 0.682743
vt 0.812500 0.190833
vt 0.781250 0.375299
vt 0.781250 0.313810
vt 0.781250 0.744232
vt 0.781250 0.252322
vt 0.781250 0.682743
vt 0.781250 0.190833
vt 0.781250 0.621254
vt 0.781250 0.129344
vt 0.781250 0.559765
vt 0.781250 0.067856
vt 0.781250 0.498277
vt 0.796875 0.990186
vt 0.781250 0.928698
vt 0.796875 0.006367
vt 0.781250 0.436788
vt 0.781250 0.867209
vt 0.781250 0.805720
vt 0.765625 0.990186
vt 0.765625 0.006367
s 0
usemtl Material.001
f 4/1/1 14/2/1 15/3/1
f 481/4/2 23/5/2 482/6/2
f 4/1/3 16/7/3 5/8/3
f 474/9/4 1/10/4 9/11/4
f 8/12/5 482/6/5 23/5/5
f 5/8/6 17/13/6 6/14/6
f 475/15/7 9/11/7 10/16/7
f 6/14/8 18/17/8 478/18/8
f 2/19/9 10/16/9 11/20/9
f 478/18/10 19/21/10 7/22/10
f 476/23/11 11/20/11 12/24/11
f 7/22/12 20/25/12 479/26/12
f 3/27/13 12/24/13 13/28/13
f 479/26/14 21/29/14 480/30/14
f 477/31/15 13/28/15 14/2/15
f 480/30/16 22/32/16 481/4/16
f 21/29/17 35/33/17 36/34/17
f 13/28/18 29/35/18 14/2/18
f 22/32/19 36/34/19 37/36/19
f 15/3/20 29/35/20 30/37/20
f 22/32/21 38/38/21 23/5/21
f 15/3/22 31/39/22 16/7/22
f 9/11/23 1/40/23 24/41/23
f 8/42/24 23/5/24 38/38/24
f 16/7/25 32/43/25 17/13/25
f 9/11/26 25/44/26 10/16/26
f 17/13/27 33/45/27 18/17/27
f 10/16/28 26/46/28 11/20/28
f 18/17/29 34/47/29 19/21/29
f 11/20/30 27/48/30 12/24/30
f 19/21/31 35/33/31 20/25/31
f 12/24/32 28/49/32 13/28/32
f 32/43/33 48/50/33 33/45/33
f 25/44/34 41/51/34 26/46/34
f 34/47/35 48/50/35 49/52/35
f 26/46/36 42/53/36 27/48/36
f 35/33/37 49/52/37 50/54/37
f 27/48/38 43/55/38 28/49/38
f 36/34/39 50/54/39 51/56/39
f 28/49/40 44/57/40 29/35/40
f 36/34/41 52/58/41 37/36/41
f 29/35/42 45/59/42 30/37/42
f 37/36/43 53/60/43 38/38/43
f 30/37/44 46/61/44 31/39/44
f 24/41/45 1/62/45 39/63/45
f 8/64/46 38/38/46 53/60/46
f 32/43/47 46/61/47 47/65/47
f 24/41/48 40/66/48 25/44/48
f 51/56/49 67/67/49 52/58/49
f 45/59/50 59/68/50 60/69/50
f 52/58/51 68/70/51 53/60/51
f 46/61/52 60/69/52 61/71/52
f 39/63/53 1/72/53 54/73/53
f 8/74/54 53/60/54 68/70/54
f 46/61/55 62/75/55 47/65/55
f 39/63/56 55/76/56 40/66/56
f 47/65/57 63/77/57 48/50/57
f 40/66/58 56/78/58 41/51/58
f 49/52/59 63/77/59 64/79/59
f 41/51/60 57/80/60 42/53/60
f 49/52/61 65/81/61 50/54/61
f 42/53/62 58/82/62 43/55/62
f 50/54/63 66/83/63 51/56/63
f 43/55/64 59/68/64 44/57/64
f 55/76/65 71/84/65 56/78/65
f 64/79/66 78/85/66 79/86/66
f 56/78/67 72/87/67 57/80/67
f 64/79/68 80/88/68 65/81/68
f 58/82/69 72/87/69 73/89/69
f 65/81/70 81/90/70 66/83/70
f 58/82/71 74/91/71 59/68/71
f 67/67/72 81/90/72 82/92/72
f 60/69/73 74/91/73 75/93/73
f 67/67/74 83/94/74 68/70/74
f 61/71/75 75/93/75 76/95/75
f 54/73/76 1/96/76 69/97/76
f 8/98/77 68/70/77 83/94/77
f 61/71/78 77/99/78 62/75/78
f 54/73/79 70/100/79 55/76/79
f 62/75/80 78/85/80 63/77/80
f 75/93/81 89/101/81 90/102/81
f 83/94/82 97/103/82 98/104/82
f 76/95/83 90/102/83 91/105/83
f 69/97/84 1/106/84 84/107/84
f 8/108/85 83/94/85 98/104/85
f 76/95/86 92/109/86 77/99/86
f 69/97/87 85/110/87 70/100/87
f 77/99/88 93/111/88 78/85/88
f 70/100/89 86/112/89 71/84/89
f 79/86/90 93/111/90 94/113/90
f 71/84/91 87/114/91 72/87/91
f 79/86/92 95/115/92 80/88/92
f 73/89/93 87/114/93 88/116/93
f 80/88/94 96/117/94 81/90/94
f 73/89/95 89/101/95 74/91/95
f 81/90/96 97/103/96 82/92/96
f 94/113/97 108/118/97 109/119/97
f 86/112/98 102/120/98 87/114/98
f 94/113/99 110/121/99 95/115/99
f 88/116/100 102/120/100 103/122/100
f 96/117/101 110/121/101 111/123/101
f 88/116/102 104/124/102 89/101/102
f 97/103/103 111/123/103 112/125/103
f 90/102/104 104/124/104 105/126/104
f 97/103/105 113/127/105 98/104/105
f 91/105/106 105/126/106 106/128/106
f 84/107/107 1/129/107 99/130/107
f 8/131/108 98/104/108 113/127/108
f 91/105/109 107/132/109 92/109/109
f 85/110/110 99/130/110 100/133/110
f 92/109/111 108/118/111 93/111/111
f 85/110/112 101/134/112 86/112/112
f 112/125/113 128/135/113 113/127/113
f 106/128/114 120/136/114 121/137/114
f 99/130/115 1/138/115 114/139/115
f 8/140/116 113/127/116 128/135/116
f 106/128/117 122/141/117 107/132/117
f 100/133/118 114/139/118 115/142/118
f 107/132/119 123/143/119 108/118/119
f 100/133/120 116/144/120 101/134/120
f 109/119/121 123/143/121 124/145/121
f 101/134/122 117/146/122 102/120/122
f 109/119/123 125/147/123 110/121/123
f 103/122/124 117/146/124 118/148/124
f 111/123/125 125/147/125 126/149/125
f 103/122/126 119/150/126 104/124/126
f 111/123/127 127/151/127 112/125/127
f 105/126/128 119/150/128 120/136/128
f 116/144/129 132/152/129 117/146/129
f 124/145/130 140/153/130 125/147/130
f 118/148/131 132/152/131 133/154/131
f 126/149/132 140/153/132 141/155/132
f 118/148/133 134/156/133 119/150/133
f 126/149/134 142/157/134 127/151/134
f 120/136/135 134/156/135 135/158/135
f 127/151/136 143/159/136 128/135/136
f 121/137/137 135/158/137 136/160/137
f 114/139/138 1/161/138 129/162/138
f 8/163/139 128/135/139 143/159/139
f 121/137/140 137/164/140 122/141/140
f 114/139/141 130/165/141 115/142/141
f 122/141/142 138/166/142 123/143/142
f 115/142/143 131/167/143 116/144/143
f 124/145/144 138/166/144 139/168/144
f 136/160/145 150/169/145 151/170/145
f 129/162/146 1/171/146 144/172/146
f 8/173/147 143/159/147 158/174/147
f 136/160/148 152/175/148 137/164/148
f 129/162/149 145/176/149 130/165/149
f 137/164/150 153/177/150 138/166/150
f 131/167/151 145/176/151 146/178/151
f 139/168/152 153/177/152 154/179/152
f 131/167/153 147/180/153 132/152/153
f 139/168/154 155/181/154 140/153/154
f 133/154/155 147/180/155 148/182/155
f 141/155/156 155/181/156 156/183/156
f 133/154/157 149/184/157 134/156/157
f 141/155/158 157/185/158 142/157/158
f 135/158/159 149/184/159 150/169/159
f 143/159/160 157/185/160 158/174/160
f 154/179/161 170/186/161 155/181/161
f 148/182/162 162/187/162 163/188/162
f 156/183/163 170/186/163 171/189/163
f 148/182/164 164/190/164 149/184/164
f 156/183/165 172/191/165 157/185/165
f 150/169/166 164/190/166 165/192/166
f 157/185/167 173/193/167 158/174/167
f 151/170/168 165/192/168 166/194/168
f 144/172/169 1/195/169 159/196/169
f 8/197/170 158/174/170 173/193/170
f 151/170/171 167/198/171 152/175/171
f 144/172/172 160/199/172 145/176/172
f 152/175/173 168/200/173 153/177/173
f 146/178/174 160/199/174 161/201/174
f 154/179/175 168/200/175 169/202/175
f 146/178/176 162/187/176 147/180/176
f 8/203/177 173/193/177 188/204/177
f 166/194/178 182/205/178 167/198/178
f 159/196/179 175/206/179 160/199/179
f 167/198/180 183/207/180 168/200/180
f 160/199/181 176/208/181 161/201/181
f 169/202/182 183/207/182 184/209/182
f 161/201/183 177/210/183 162/187/183
f 169/202/184 185/211/184 170/186/184
f 163/188/185 177/210/185 178/212/185
f 170/186/186 186/213/186 171/189/186
f 163/188/187 179/214/187 164/190/187
f 172/191/188 186/213/188 187/215/188
f 165/192/189 179/214/189 180/216/189
f 173/193/190 187/215/190 188/204/190
f 166/194/191 180/216/191 181/217/191
f 159/196/192 1/218/192 174/219/192
f 186/213/193 200/220/193 201/221/193
f 178/212/194 194/222/194 179/214/194
f 186/213/195 202/223/195 187/215/195
f 180/216/196 194/222/196 195/224/196
f 187/215/197 203/225/197 188/204/197
f 181/217/198 195/224/198 196/226/198
f 174/219/199 1/227/199 189/228/199
f 8/229/200 188/204/200 203/225/200
f 181/217/201 197/230/201 182/205/201
f 175/206/202 189/228/202 190/231/202
f 182/205/203 198/232/203 183/207/203
f 176/208/204 190/231/204 191/233/204
f 184/209/205 198/232/205 199/234/205
f 176/208/206 192/235/206 177/210/206
f 184/209/207 200/220/207 185/211/207
f 178/212/208 192/235/208 193/236/208
f 189/228/209 205/237/209 190/231/209
f 197/230/210 213/238/210 198/232/210
f 190/231/211 206/239/211 191/233/211
f 199/234/212 213/238/212 214/240/212
f 191/233/213 207/241/213 192/235/213
f 199/234/214 215/242/214 200/220/214
f 193/236/215 207/241/215 208/243/215
f 201/221/216 215/242/216 216/244/216
f 193/236/217 209/245/217 194/222/217
f 201/221/218 217/246/218 202/223/218
f 195/224/219 209/245/219 210/247/219
f 202/223/220 218/248/220 203/225/220
f 196/226/221 210/247/221 211/249/221
f 189/228/222 1/250/222 204/251/222
f 8/252/223 203/225/223 218/248/223
f 196/226/224 212/253/224 197/230/224
f 208/243/225 224/254/225 209/245/225
f 216/244/226 232/255/226 217/246/226
f 210/247/227 224/254/227 225/256/227
f 217/246/228 233/257/228 218/248/228
f 211/249/229 225/256/229 226/258/229
f 204/251/230 1/259/230 219/260/230
f 8/261/231 218/248/231 233/257/231
f 211/249/232 227/262/232 212/253/232
f 204/251/233 220/263/233 205/237/233
f 212/253/234 228/264/234 213/238/234
f 205/237/235 221/265/235 206/239/235
f 214/240/236 228/264/236 229/266/236
f 206/239/237 222/267/237 207/241/237
f 214/240/238 230/268/238 215/242/238
f 208/243/239 222/267/239 223/269/239
f 216/244/240 230/268/240 231/270/240
f 227/262/241 243/271/241 228/264/241
f 221/265/242 235/272/242 236/273/242
f 229/266/243 243/271/243 244/274/243
f 221/265/244 237/275/244 222/267/244
f 229/266/245 245/276/245 230/268/245
f 223/269/246 237/275/246 238/277/246
f 231/270/247 245/276/247 246/278/247
f 223/269/248 239/279/248 224/254/248
f 231/270/249 247/280/249 232/255/249
f 225/256/250 239/279/250 240/281/250
f 233/257/251 247/280/251 248/282/251
f 226/258/252 240/281/252 241/283/252
f 219/260/253 1/284/253 234/285/253
f 8/286/254 233/257/254 248/282/254
f 226/258/255 242/287/255 227/262/255
f 219/260/256 235/272/256 220/263/256
f 246/278/257 262/288/257 247/280/257
f 240/281/258 254/289/258 255/290/258
f 247/280/259 263/291/259 248/282/259
f 241/283/260 255/290/260 256/292/260
f 234/285/261 1/293/261 249/294/261
f 8/295/262 248/282/262 263/291/262
f 241/283/263 257/296/263 242/287/263
f 234/285/264 250/297/264 235/272/264
f 242/287/265 258/298/265 243/271/265
f 235/272/266 251/299/266 236/273/266
f 244/274/267 258/298/267 259/300/267
f 236/273/268 252/301/268 237/275/268
f 244/274/269 260/302/269 245/276/269
f 238/277/270 252/301/270 253/303/270
f 246/278/271 260/302/271 261/304/271
f 238/277/272 254/289/272 239/279/272
f 250/297/273 266/305/273 251/299/273
f 259/300/274 273/306/274 274/307/274
f 251/299/275 267/308/275 252/301/275
f 259/300/276 275/309/276 260/302/276
f 253/303/277 267/308/277 268/310/277
f 261/304/278 275/309/278 276/311/278
f 253/303/279 269/312/279 254/289/279
f 261/304/280 277/313/280 262/288/280
f 255/290/281 269/312/281 270/314/281
f 262/288/282 278/315/282 263/291/282
f 256/292/283 270/314/283 271/316/283
f 249/294/284 1/317/284 264/318/284
f 8/319/285 263/291/285 278/315/285
f 256/292/286 272/320/286 257/296/286
f 250/297/287 264/318/287 265/321/287
f 257/296/288 273/306/288 258/298/288
f 270/314/289 284/322/289 285/323/289
f 278/315/290 292/324/290 293/325/290
f 271/316/291 285/323/291 286/326/291
f 264/318/292 1/327/292 279/328/292
f 8/329/293 278/315/293 293/325/293
f 271/316/294 287/330/294 272/320/294
f 265/321/295 279/328/295 280/331/295
f 272/320/296 288/332/296 273/306/296
f 265/321/297 281/333/297 266/305/297
f 274/307/298 288/332/298 289/334/298
f 266/305/299 282/335/299 267/308/299
f 274/307/300 290/336/300 275/309/300
f 268/310/301 282/335/301 283/337/301
f 276/311/302 290/336/302 291/338/302
f 268/310/303 284/322/303 269/312/303
f 276/311/304 292/324/304 277/313/304
f 289/334/305 303/339/305 304/340/305
f 281/333/306 297/341/306 282/335/306
f 289/334/307 305/342/307 290/336/307
f 283/337/308 297/341/308 298/343/308
f 291/338/309 305/342/309 306/344/309
f 283/337/310 299/345/310 284/322/310
f 291/338/311 307/346/311 292/324/311
f 285/323/312 299/345/312 300/347/312
f 293/325/313 307/346/313 308/348/313
f 286/326/314 300/347/314 301/349/314
f 279/328/315 1/350/315 294/351/315
f 8/352/316 293/325/316 308/348/316
f 286/326/317 302/353/317 287/330/317
f 279/328/318 295/354/318 280/331/318
f 287/330/319 303/339/319 288/332/319
f 280/331/320 296/355/320 281/333/320
f 307/346/321 323/356/321 308/348/321
f 301/349/322 315/357/322 316/358/322
f 294/351/323 1/359/323 309/360/323
f 8/361/324 308/348/324 323/356/324
f 301/349/325 317/362/325 302/353/325
f 294/351/326 310/363/326 295/354/326
f 302/353/327 318/364/327 303/339/327
f 295/354/328 311/365/328 296/355/328
f 304/340/329 318/364/329 319/366/329
f 296/355/330 312/367/330 297/341/330
f 304/340/331 320/368/331 305/342/331
f 298/343/332 312/367/332 313/369/332
f 306/344/333 320/368/333 321/370/333
f 298/343/334 314/371/334 299/345/334
f 306/344/335 322/372/335 307/346/335
f 300/347/336 314/371/336 315/357/336
f 319/366/337 335/373/337 320/368/337
f 312/367/338 328/374/338 313/369/338
f 321/370/339 335/373/339 336/375/339
f 313/369/340 329/376/340 314/371/340
f 321/370/341 337/377/341 322/372/341
f 315/357/342 329/376/342 330/378/342
f 322/372/343 338/379/343 323/356/343
f 316/358/344 330/378/344 331/380/344
f 309/360/345 1/381/345 324/382/345
f 8/383/346 323/356/346 338/379/346
f 316/358/347 332/384/347 317/362/347
f 309/360/348 325/385/348 310/363/348
f 317/362/349 333/386/349 318/364/349
f 310/363/350 326/387/350 311/365/350
f 319/366/351 333/386/351 334/388/351
f 311/365/352 327/389/352 312/367/352
f 324/382/353 1/390/353 339/391/353
f 8/392/354 338/379/354 353/393/354
f 331/380/355 347/394/355 332/384/355
f 324/382/356 340/395/356 325/385/356
f 332/384/357 348/396/357 333/386/357
f 325/385/358 341/397/358 326/387/358
f 334/388/359 348/396/359 349/398/359
f 326/387/360 342/399/360 327/389/360
f 334/388/361 350/400/361 335/373/361
f 328/374/362 342/399/362 343/401/362
f 336/375/363 350/400/363 351/402/363
f 328/374/364 344/403/364 329/376/364
f 336/375/365 352/404/365 337/377/365
f 330/378/366 344/403/366 345/405/366
f 337/377/367 353/393/367 338/379/367
f 331/380/368 345/405/368 346/406/368
f 343/401/369 357/407/369 358/408/369
f 351/402/370 365/409/370 366/410/370
f 343/401/371 359/411/371 344/403/371
f 351/402/372 367/412/372 352/404/372
f 345/405/373 359/411/373 360/413/373
f 352/404/374 368/414/374 353/393/374
f 346/406/375 360/413/375 361/415/375
f 339/391/376 1/416/376 354/417/376
f 8/418/377 353/393/377 368/414/377
f 346/406/378 362/419/378 347/394/378
f 339/391/379 355/420/379 340/395/379
f 347/394/380 363/421/380 348/396/380
f 341/397/381 355/420/381 356/422/381
f 349/398/382 363/421/382 364/423/382
f 341/397/383 357/407/383 342/399/383
f 349/398/384 365/409/384 350/400/384
f 361/424/385 377/425/385 362/426/385
f 354/427/386 370/428/386 355/429/386
f 362/426/387 378/430/387 363/431/387
f 356/432/388 370/428/388 371/433/388
f 364/434/389 378/430/389 379/435/389
f 356/432/390 372/436/390 357/437/390
f 364/434/391 380/438/391 365/439/391
f 358/440/392 372/436/392 373/441/392
f 366/442/393 380/438/393 381/443/393
f 358/440/394 374/444/394 359/445/394
f 366/442/395 382/446/395 367/447/395
f 360/448/396 374/444/396 375/449/396
f 367/447/397 383/450/397 368/451/397
f 361/424/398 375/449/398 376/452/398
f 354/427/399 1/453/399 369/454/399
f 8/455/400 368/451/400 383/450/400
f 381/443/401 395/456/401 396/457/401
f 373/441/402 389/458/402 374/444/402
f 381/443/403 397/459/403 382/446/403
f 375/449/404 389/458/404 390/460/404
f 382/446/405 398/461/405 383/450/405
f 376/452/406 390/460/406 391/462/406
f 369/454/407 1/463/407 384/464/407
f 8/465/408 383/450/408 398/461/408
f 376/452/409 392/466/409 377/425/409
f 369/454/410 385/467/410 370/428/410
f 377/425/411 393/468/411 378/430/411
f 371/433/412 385/467/412 386/469/412
f 379/435/413 393/468/413 394/470/413
f 371/433/414 387/471/414 372/436/414
f 379/435/415 395/456/415 380/438/415
f 373/441/416 387/471/416 388/472/416
f 385/467/417 399/473/417 400/474/417
f 392/466/418 408/475/418 393/468/418
f 385/467/419 401/476/419 386/469/419
f 394/470/420 408/475/420 409/477/420
f 386/469/421 402/478/421 387/471/421
f 394/470/422 410/479/422 395/456/422
f 388/472/423 402/478/423 403/480/423
f 396/457/424 410/479/424 411/481/424
f 388/472/425 404/482/425 389/458/425
f 397/459/426 411/481/426 412/483/426
f 390/460/427 404/482/427 405/484/427
f 397/459/428 413/485/428 398/461/428
f 391/462/429 405/484/429 406/486/429
f 384/464/430 1/487/430 399/473/430
f 8/488/431 398/461/431 413/485/431
f 391/462/432 407/489/432 392/466/432
f 403/480/433 419/490/433 404/482/433
f 411/481/434 427/491/434 412/483/434
f 405/484/435 419/490/435 420/492/435
f 412/483/436 428/493/436 413/485/436
f 406/486/437 420/492/437 421/494/437
f 399/473/438 1/495/438 414/496/438
f 8/497/439 413/485/439 428/493/439
f 406/486/440 422/498/440 407/489/440
f 399/473/441 415/499/441 400/474/441
f 407/489/442 423/500/442 408/475/442
f 401/476/443 415/499/443 416/501/443
f 409/477/444 423/500/444 424/502/444
f 401/476/445 417/503/445 402/478/445
f 409/477/446 425/504/446 410/479/446
f 403/480/447 417/503/447 418/505/447
f 411/481/448 425/504/448 426/506/448
f 422/498/449 438/507/449 423/500/449
f 416/501/450 430/508/450 431/509/450
f 424/502/451 438/507/451 439/510/451
f 416/501/452 432/511/452 417/503/452
f 424/502/453 440/512/453 425/504/453
f 418/505/454 432/511/454 433/513/454
f 426/506/455 440/512/455 441/514/455
f 418/505/456 434/515/456 419/490/456
f 426/506/457 442/516/457 427/491/457
f 420/492/458 434/515/458 435/517/458
f 427/491/459 443/518/459 428/493/459
f 421/494/460 435/517/460 436/519/460
f 414/496/461 1/520/461 429/521/461
f 8/522/462 428/493/462 443/518/462
f 421/494/463 437/523/463 422/498/463
f 414/496/464 430/508/464 415/499/464
f 441/514/465 457/524/465 442/516/465
f 435/517/466 449/525/466 450/526/466
f 442/516/467 458/527/467 443/518/467
f 436/519/468 450/526/468 451/528/468
f 429/521/469 1/529/469 444/530/469
f 8/531/470 443/518/470 458/527/470
f 436/519/471 452/532/471 437/523/471
f 430/508/472 444/530/472 445/533/472
f 437/523/473 453/534/473 438/507/473
f 430/508/474 446/535/474 431/509/474
f 439/510/475 453/534/475 454/536/475
f 431/509/476 447/537/476 432/511/476
f 439/510/477 455/538/477 440/512/477
f 433/513/478 447/537/478 448/539/478
f 441/514/479 455/538/479 456/540/479
f 433/513/480 449/525/480 434/515/480
f 454/536/481 468/541/481 469/542/481
f 446/535/482 462/543/482 447/537/482
f 454/536/483 470/544/483 455/538/483
f 448/539/484 462/543/484 463/545/484
f 456/540/485 470/544/485 471/546/485
f 448/539/486 464/547/486 449/525/486
f 456/540/487 472/548/487 457/524/487
f 450/526/488 464/547/488 465/549/488
f 458/527/489 472/548/489 473/550/489
f 451/528/490 465/549/490 466/551/490
f 444/530/491 1/552/491 459/553/491
f 8/554/492 458/527/492 473/550/492
f 451/528/493 467/555/493 452/532/493
f 444/530/494 460/556/494 445/533/494
f 452/532/495 468/541/495 453/534/495
f 446/535/496 460/556/496 461/557/496
f 472/548/497 482/6/497 473/550/497
f 466/551/498 4/1/498 5/8/498
f 459/553/499 1/558/499 474/9/499
f 8/559/500 473/550/500 482/6/500
f 466/551/501 6/14/501 467/555/501
f 460/556/502 474/9/502 475/15/502
f 467/555/503 478/18/503 468/541/503
f 461/557/504 475/15/504 2/19/504
f 468/541/505 7/22/505 469/542/505
f 462/543/506 2/19/506 476/23/506
f 469/542/507 479/26/507 470/544/507
f 463/545/508 476/23/508 3/27/508
f 471/546/509 479/26/509 480/30/509
f 464/547/510 3/27/510 477/31/510
f 471/546/511 481/4/511 472/548/511
f 465/549/512 477/31/512 4/1/512
f 4/1/1 477/31/1 14/2/1
f 481/4/2 22/32/2 23/5/2
f 4/1/513 15/3/513 16/7/513
f 5/8/514 16/7/514 17/13/514
f 475/15/7 474/9/7 9/11/7
f 6/14/8 17/13/8 18/17/8
f 2/19/9 475/15/9 10/16/9
f 478/18/10 18/17/10 19/21/10
f 476/23/11 2/19/11 11/20/11
f 7/22/12 19/21/12 20/25/12
f 3/27/13 476/23/13 12/24/13
f 479/26/14 20/25/14 21/29/14
f 477/31/15 3/27/15 13/28/15
f 480/30/16 21/29/16 22/32/16
f 21/29/17 20/25/17 35/33/17
f 13/28/18 28/49/18 29/35/18
f 22/32/19 21/29/19 36/34/19
f 15/3/20 14/2/20 29/35/20
f 22/32/21 37/36/21 38/38/21
f 15/3/22 30/37/22 31/39/22
f 16/7/25 31/39/25 32/43/25
f 9/11/26 24/41/26 25/44/26
f 17/13/27 32/43/27 33/45/27
f 10/16/28 25/44/28 26/46/28
f 18/17/29 33/45/29 34/47/29
f 11/20/30 26/46/30 27/48/30
f 19/21/31 34/47/31 35/33/31
f 12/24/32 27/48/32 28/49/32
f 32/43/33 47/65/33 48/50/33
f 25/44/515 40/66/515 41/51/515
f 34/47/35 33/45/35 48/50/35
f 26/46/36 41/51/36 42/53/36
f 35/33/37 34/47/37 49/52/37
f 27/48/38 42/53/38 43/55/38
f 36/34/39 35/33/39 50/54/39
f 28/49/40 43/55/40 44/57/40
f 36/34/516 51/56/516 52/58/516
f 29/35/42 44/57/42 45/59/42
f 37/36/43 52/58/43 53/60/43
f 30/37/44 45/59/44 46/61/44
f 32/43/47 31/39/47 46/61/47
f 24/41/48 39/63/48 40/66/48
f 51/56/49 66/83/49 67/67/49
f 45/59/50 44/57/50 59/68/50
f 52/58/51 67/67/51 68/70/51
f 46/61/52 45/59/52 60/69/52
f 46/61/55 61/71/55 62/75/55
f 39/63/56 54/73/56 55/76/56
f 47/65/57 62/75/57 63/77/57
f 40/66/58 55/76/58 56/78/58
f 49/52/59 48/50/59 63/77/59
f 41/51/60 56/78/60 57/80/60
f 49/52/61 64/79/61 65/81/61
f 42/53/62 57/80/62 58/82/62
f 50/54/63 65/81/63 66/83/63
f 43/55/64 58/82/64 59/68/64
f 55/76/65 70/100/65 71/84/65
f 64/79/66 63/77/66 78/85/66
f 56/78/67 71/84/67 72/87/67
f 64/79/68 79/86/68 80/88/68
f 58/82/69 57/80/69 72/87/69
f 65/81/70 80/88/70 81/90/70
f 58/82/71 73/89/71 74/91/71
f 67/67/72 66/83/72 81/90/72
f 60/69/73 59/68/73 74/91/73
f 67/67/517 82/92/517 83/94/517
f 61/71/75 60/69/75 75/93/75
f 61/71/78 76/95/78 77/99/78
f 54/73/79 69/97/79 70/100/79
f 62/75/80 77/99/80 78/85/80
f 75/93/81 74/91/81 89/101/81
f 83/94/82 82/92/82 97/103/82
f 76/95/83 75/93/83 90/102/83
f 76/95/86 91/105/86 92/109/86
f 69/97/87 84/107/87 85/110/87
f 77/99/88 92/109/88 93/111/88
f 70/100/89 85/110/89 86/112/89
f 79/86/90 78/85/90 93/111/90
f 71/84/91 86/112/91 87/114/91
f 79/86/92 94/113/92 95/115/92
f 73/89/93 72/87/93 87/114/93
f 80/88/94 95/115/94 96/117/94
f 73/89/95 88/116/95 89/101/95
f 81/90/96 96/117/96 97/103/96
f 94/113/97 93/111/97 108/118/97
f 86/112/98 101/134/98 102/120/98
f 94/113/99 109/119/99 110/121/99
f 88/116/100 87/114/100 102/120/100
f 96/117/101 95/115/101 110/121/101
f 88/116/102 103/122/102 104/124/102
f 97/103/103 96/117/103 111/123/103
f 90/102/104 89/101/104 104/124/104
f 97/103/105 112/125/105 113/127/105
f 91/105/106 90/102/106 105/126/106
f 91/105/109 106/128/109 107/132/109
f 85/110/110 84/107/110 99/130/110
f 92/109/111 107/132/111 108/118/111
f 85/110/112 100/133/112 101/134/112
f 112/125/113 127/151/113 128/135/113
f 106/128/114 105/126/114 120/136/114
f 106/128/117 121/137/117 122/141/117
f 100/133/118 99/130/118 114/139/118
f 107/132/119 122/141/119 123/143/119
f 100/133/120 115/142/120 116/144/120
f 109/119/121 108/118/121 123/143/121
f 101/134/122 116/144/122 117/146/122
f 109/119/123 124/145/123 125/147/123
f 103/122/124 102/120/124 117/146/124
f 111/123/125 110/121/125 125/147/125
f 103/122/126 118/148/126 119/150/126
f 111/123/127 126/149/127 127/151/127
f 105/126/128 104/124/128 119/150/128
f 116/144/129 131/167/129 132/152/129
f 124/145/130 139/168/130 140/153/130
f 118/148/131 117/146/131 132/152/131
f 126/149/132 125/147/132 140/153/132
f 118/148/133 133/154/133 134/156/133
f 126/149/134 141/155/134 142/157/134
f 120/136/135 119/150/135 134/156/135
f 127/151/136 142/157/136 143/159/136
f 121/137/137 120/136/137 135/158/137
f 121/137/140 136/160/140 137/164/140
f 114/139/141 129/162/141 130/165/141
f 122/141/142 137/164/142 138/166/142
f 115/142/143 130/165/143 131/167/143
f 124/145/144 123/143/144 138/166/144
f 136/160/145 135/158/145 150/169/145
f 136/160/148 151/170/148 152/175/148
f 129/162/149 144/172/149 145/176/149
f 137/164/150 152/175/150 153/177/150
f 131/167/151 130/165/151 145/176/151
f 139/168/152 138/166/152 153/177/152
f 131/167/153 146/178/153 147/180/153
f 139/168/154 154/179/154 155/181/154
f 133/154/155 132/152/155 147/180/155
f 141/155/156 140/153/156 155/181/156
f 133/154/157 148/182/157 149/184/157
f 141/155/158 156/183/158 157/185/158
f 135/158/159 134/156/159 149/184/159
f 143/159/160 142/157/160 157/185/160
f 154/179/161 169/202/161 170/186/161
f 148/182/162 147/180/162 162/187/162
f 156/183/163 155/181/163 170/186/163
f 148/182/164 163/188/164 164/190/164
f 156/183/518 171/189/518 172/191/518
f 150/169/166 149/184/166 164/190/166
f 157/185/167 172/191/167 173/193/167
f 151/170/168 150/169/168 165/192/168
f 151/170/171 166/194/171 167/198/171
f 144/172/172 159/196/172 160/199/172
f 152/175/173 167/198/173 168/200/173
f 146/178/519 145/176/519 160/199/519
f 154/179/175 153/177/175 168/200/175
f 146/178/176 161/201/176 162/187/176
f 166/194/178 181/217/178 182/205/178
f 159/196/179 174/219/179 175/206/179
f 167/198/180 182/205/180 183/207/180
f 160/199/181 175/206/181 176/208/181
f 169/202/182 168/200/182 183/207/182
f 161/201/183 176/208/183 177/210/183
f 169/202/184 184/209/184 185/211/184
f 163/188/185 162/187/185 177/210/185
f 170/186/186 185/211/186 186/213/186
f 163/188/187 178/212/187 179/214/187
f 172/191/188 171/189/188 186/213/188
f 165/192/189 164/190/189 179/214/189
f 173/193/190 172/191/190 187/215/190
f 166/194/191 165/192/191 180/216/191
f 186/213/193 185/211/193 200/220/193
f 178/212/194 193/236/194 194/222/194
f 186/213/195 201/221/195 202/223/195
f 180/216/196 179/214/196 194/222/196
f 187/215/197 202/223/197 203/225/197
f 181/217/198 180/216/198 195/224/198
f 181/217/201 196/226/201 197/230/201
f 175/206/202 174/219/202 189/228/202
f 182/205/203 197/230/203 198/232/203
f 176/208/204 175/206/204 190/231/204
f 184/209/205 183/207/205 198/232/205
f 176/208/206 191/233/206 192/235/206
f 184/209/207 199/234/207 200/220/207
f 178/212/208 177/210/208 192/235/208
f 189/228/209 204/251/209 205/237/209
f 197/230/210 212/253/210 213/238/210
f 190/231/211 205/237/211 206/239/211
f 199/234/212 198/232/212 213/238/212
f 191/233/213 206/239/213 207/241/213
f 199/234/214 214/240/214 215/242/214
f 193/236/215 192/235/215 207/241/215
f 201/221/216 200/220/216 215/242/216
f 193/236/217 208/243/217 209/245/217
f 201/221/520 216/244/520 217/246/520
f 195/224/219 194/222/219 209/245/219
f 202/223/220 217/246/220 218/248/220
f 196/226/221 195/224/221 210/247/221
f 196/226/224 211/249/224 212/253/224
f 208/243/225 223/269/225 224/254/225
f 216/244/226 231/270/226 232/255/226
f 210/247/227 209/245/227 224/254/227
f 217/246/228 232/255/228 233/257/228
f 211/249/229 210/247/229 225/256/229
f 211/249/232 226/258/232 227/262/232
f 204/251/233 219/260/233 220/263/233
f 212/253/234 227/262/234 228/264/234
f 205/237/235 220/263/235 221/265/235
f 214/240/236 213/238/236 228/264/236
f 206/239/237 221/265/237 222/267/237
f 214/240/238 229/266/238 230/268/238
f 208/243/239 207/241/239 222/267/239
f 216/244/240 215/242/240 230/268/240
f 227/262/241 242/287/241 243/271/241
f 221/265/242 220/263/242 235/272/242
f 229/266/243 228/264/243 243/271/243
f 221/265/244 236/273/244 237/275/244
f 229/266/245 244/274/245 245/276/245
f 223/269/246 222/267/246 237/275/246
f 231/270/247 230/268/247 245/276/247
f 223/269/248 238/277/248 239/279/248
f 231/270/249 246/278/249 247/280/249
f 225/256/250 224/254/250 239/279/250
f 233/257/251 232/255/251 247/280/251
f 226/258/252 225/256/252 240/281/252
f 226/258/255 241/283/255 242/287/255
f 219/260/256 234/285/256 235/272/256
f 246/278/257 261/304/257 262/288/257
f 240/281/258 239/279/258 254/289/258
f 247/280/259 262/288/259 263/291/259
f 241/283/521 240/281/521 255/290/521
f 241/283/522 256/292/522 257/296/522
f 234/285/264 249/294/264 250/297/264
f 242/287/265 257/296/265 258/298/265
f 235/272/266 250/297/266 251/299/266
f 244/274/267 243/271/267 258/298/267
f 236/273/268 251/299/268 252/301/268
f 244/274/269 259/300/269 260/302/269
f 238/277/270 237/275/270 252/301/270
f 246/278/271 245/276/271 260/302/271
f 238/277/272 253/303/272 254/289/272
f 250/297/273 265/321/273 266/305/273
f 259/300/274 258/298/274 273/306/274
f 251/299/275 266/305/275 267/308/275
f 259/300/276 274/307/276 275/309/276
f 253/303/277 252/301/277 267/308/277
f 261/304/278 260/302/278 275/309/278
f 253/303/279 268/310/279 269/312/279
f 261/304/280 276/311/280 277/313/280
f 255/290/281 254/289/281 269/312/281
f 262/288/282 277/313/282 278/315/282
f 256/292/283 255/290/283 270/314/283
f 256/292/286 271/316/286 272/320/286
f 250/297/287 249/294/287 264/318/287
f 257/296/288 272/320/288 273/306/288
f 270/314/289 269/312/289 284/322/289
f 278/315/290 277/313/290 292/324/290
f 271/316/291 270/314/291 285/323/291
f 271/316/294 286/326/294 287/330/294
f 265/321/295 264/318/295 279/328/295
f 272/320/296 287/330/296 288/332/296
f 265/321/523 280/331/523 281/333/523
f 274/307/298 273/306/298 288/332/298
f 266/305/299 281/333/299 282/335/299
f 274/307/300 289/334/300 290/336/300
f 268/310/301 267/308/301 282/335/301
f 276/311/302 275/309/302 290/336/302
f 268/310/303 283/337/303 284/322/303
f 276/311/524 291/338/524 292/324/524
f 289/334/305 288/332/305 303/339/305
f 281/333/306 296/355/306 297/341/306
f 289/334/307 304/340/307 305/342/307
f 283/337/308 282/335/308 297/341/308
f 291/338/309 290/336/309 305/342/309
f 283/337/310 298/343/310 299/345/310
f 291/338/311 306/344/311 307/346/311
f 285/323/312 284/322/312 299/345/312
f 293/325/313 292/324/313 307/346/313
f 286/326/314 285/323/314 300/347/314
f 286/326/317 301/349/317 302/353/317
f 279/328/318 294/351/318 295/354/318
f 287/330/319 302/353/319 303/339/319
f 280/331/320 295/354/320 296/355/320
f 307/346/525 322/372/525 323/356/525
f 301/349/322 300/347/322 315/357/322
f 301/349/325 316/358/325 317/362/325
f 294/351/326 309/360/326 310/363/326
f 302/353/327 317/362/327 318/364/327
f 295/354/328 310/363/328 311/365/328
f 304/340/329 303/339/329 318/364/329
f 296/355/330 311/365/330 312/367/330
f 304/340/331 319/366/331 320/368/331
f 298/343/332 297/341/332 312/367/332
f 306/344/333 305/342/333 320/368/333
f 298/343/334 313/369/334 314/371/334
f 306/344/335 321/370/335 322/372/335
f 300/347/336 299/345/336 314/371/336
f 319/366/337 334/388/337 335/373/337
f 312/367/338 327/389/338 328/374/338
f 321/370/339 320/368/339 335/373/339
f 313/369/340 328/374/340 329/376/340
f 321/370/526 336/375/526 337/377/526
f 315/357/342 314/371/342 329/376/342
f 322/372/343 337/377/343 338/379/343
f 316/358/344 315/357/344 330/378/344
f 316/358/347 331/380/347 332/384/347
f 309/360/348 324/382/348 325/385/348
f 317/362/349 332/384/349 333/386/349
f 310/363/350 325/385/350 326/387/350
f 319/366/351 318/364/351 333/386/351
f 311/365/352 326/387/352 327/389/352
f 331/380/355 346/406/355 347/394/355
f 324/382/356 339/391/356 340/395/356
f 332/384/357 347/394/357 348/396/357
f 325/385/358 340/395/358 341/397/358
f 334/388/359 333/386/359 348/396/359
f 326/387/360 341/397/360 342/399/360
f 334/388/361 349/398/361 350/400/361
f 328/374/362 327/389/362 342/399/362
f 336/375/363 335/373/363 350/400/363
f 328/374/364 343/401/364 344/403/364
f 336/375/365 351/402/365 352/404/365
f 330/378/366 329/376/366 344/403/366
f 337/377/367 352/404/367 353/393/367
f 331/380/368 330/378/368 345/405/368
f 343/401/369 342/399/369 357/407/369
f 351/402/370 350/400/370 365/409/370
f 343/401/371 358/408/371 359/411/371
f 351/402/372 366/410/372 367/412/372
f 345/405/373 344/403/373 359/411/373
f 352/404/374 367/412/374 368/414/374
f 346/406/527 345/405/527 360/413/527
f 346/406/528 361/415/528 362/419/528
f 339/391/379 354/417/379 355/420/379
f 347/394/380 362/419/380 363/421/380
f 341/397/381 340/395/381 355/420/381
f 349/398/382 348/396/382 363/421/382
f 341/397/383 356/422/383 357/407/383
f 349/398/384 364/423/384 365/409/384
f 361/424/529 376/452/529 377/425/529
f 354/427/386 369/454/386 370/428/386
f 362/426/387 377/425/387 378/430/387
f 356/432/388 355/429/388 370/428/388
f 364/434/389 363/431/389 378/430/389
f 356/432/390 371/433/390 372/436/390
f 364/434/391 379/435/391 380/438/391
f 358/440/392 357/437/392 372/436/392
f 366/442/393 365/439/393 380/438/393
f 358/440/394 373/441/394 374/444/394
f 366/442/395 381/443/395 382/446/395
f 360/448/396 359/445/396 374/444/396
f 367/447/397 382/446/397 383/450/397
f 361/424/530 360/448/530 375/449/530
f 381/443/401 380/438/401 395/456/401
f 373/441/402 388/472/402 389/458/402
f 381/443/403 396/457/403 397/459/403
f 375/449/404 374/444/404 389/458/404
f 382/446/405 397/459/405 398/461/405
f 376/452/406 375/449/406 390/460/406
f 376/452/409 391/462/409 392/466/409
f 369/454/410 384/464/410 385/467/410
f 377/425/411 392/466/411 393/468/411
f 371/433/412 370/428/412 385/467/412
f 379/435/413 378/430/413 393/468/413
f 371/433/414 386/469/414 387/471/414
f 379/435/415 394/470/415 395/456/415
f 373/441/416 372/436/416 387/471/416
f 385/467/417 384/464/417 399/473/417
f 392/466/418 407/489/418 408/475/418
f 385/467/419 400/474/419 401/476/419
f 394/470/420 393/468/420 408/475/420
f 386/469/421 401/476/421 402/478/421
f 394/470/422 409/477/422 410/479/422
f 388/472/423 387/471/423 402/478/423
f 396/457/424 395/456/424 410/479/424
f 388/472/425 403/480/425 404/482/425
f 397/459/426 396/457/426 411/481/426
f 390/460/427 389/458/427 404/482/427
f 397/459/428 412/483/428 413/485/428
f 391/462/429 390/460/429 405/484/429
f 391/462/432 406/486/432 407/489/432
f 403/480/433 418/505/433 419/490/433
f 411/481/434 426/506/434 427/491/434
f 405/484/435 404/482/435 419/490/435
f 412/483/436 427/491/436 428/493/436
f 406/486/437 405/484/437 420/492/437
f 406/486/440 421/494/440 422/498/440
f 399/473/441 414/496/441 415/499/441
f 407/489/442 422/498/442 423/500/442
f 401/476/443 400/474/443 415/499/443
f 409/477/444 408/475/444 423/500/444
f 401/476/445 416/501/445 417/503/445
f 409/477/446 424/502/446 425/504/446
f 403/480/447 402/478/447 417/503/447
f 411/481/448 410/479/448 425/504/448
f 422/498/449 437/523/449 438/507/449
f 416/501/450 415/499/450 430/508/450
f 424/502/451 423/500/451 438/507/451
f 416/501/452 431/509/452 432/511/452
f 424/502/453 439/510/453 440/512/453
f 418/505/454 417/503/454 432/511/454
f 426/506/455 425/504/455 440/512/455
f 418/505/456 433/513/456 434/515/456
f 426/506/457 441/514/457 442/516/457
f 420/492/458 419/490/458 434/515/458
f 427/491/459 442/516/459 443/518/459
f 421/494/460 420/492/460 435/517/460
f 421/494/463 436/519/463 437/523/463
f 414/496/464 429/521/464 430/508/464
f 441/514/465 456/540/465 457/524/465
f 435/517/466 434/515/466 449/525/466
f 442/516/467 457/524/467 458/527/467
f 436/519/468 435/517/468 450/526/468
f 436/519/471 451/528/471 452/532/471
f 430/508/472 429/521/472 444/530/472
f 437/523/473 452/532/473 453/534/473
f 430/508/474 445/533/474 446/535/474
f 439/510/475 438/507/475 453/534/475
f 431/509/476 446/535/476 447/537/476
f 439/510/477 454/536/477 455/538/477
f 433/513/478 432/511/478 447/537/478
f 441/514/479 440/512/479 455/538/479
f 433/513/480 448/539/480 449/525/480
f 454/536/481 453/534/481 468/541/481
f 446/535/482 461/557/482 462/543/482
f 454/536/483 469/542/483 470/544/483
f 448/539/484 447/537/484 462/543/484
f 456/540/485 455/538/485 470/544/485
f 448/539/486 463/545/486 464/547/486
f 456/540/487 471/546/487 472/548/487
f 450/526/488 449/525/488 464/547/488
f 458/527/489 457/524/489 472/548/489
f 451/528/490 450/526/490 465/549/490
f 451/528/493 466/551/493 467/555/493
f 444/530/494 459/553/494 460/556/494
f 452/532/495 467/555/495 468/541/495
f 446/535/496 445/533/496 460/556/496
f 472/548/497 481/4/497 482/6/497
f 466/551/498 465/549/498 4/1/498
f 466/551/501 5/8/501 6/14/501
f 460/556/502 459/553/502 474/9/502
f 467/555/503 6/14/503 478/18/503
f 461/557/504 460/556/504 475/15/504
f 468/541/505 478/18/505 7/22/505
f 462/543/506 461/557/506 2/19/506
f 469/542/507 7/22/507 479/26/507
f 463/545/508 462/543/508 476/23/508
f 471/546/509 470/544/509 479/26/509
f 464/547/510 463/545/510 3/27/510
f 471/546/511 480/30/511 481/4/511
f 465/549/512 464/547/512 477/31/512
