# Blender 5.1.1
# www.blender.org
mtllib lara.mtl
o shot_2026-04-29_20-17-29-712.001
v 0.508987 0.474401 -2.740928
v 0.339655 0.410335 -2.881067
v 0.497205 0.319106 -2.786185
v 0.340904 0.326108 -2.896062
v 0.339655 0.410335 -2.881067
v 0.261031 0.407129 -2.810261
v 0.340904 0.326108 -2.896062
v 0.249699 0.322388 -2.813927
v 0.508987 0.474401 -2.740928
v 0.380044 0.469142 -2.624806
v 0.339655 0.410335 -2.881067
v 0.261031 0.407129 -2.810261
v 0.497205 0.319106 -2.786185
v 0.340904 0.326108 -2.896062
v 0.371471 0.311902 -2.615962
v 0.249699 0.322388 -2.813927
v 0.575114 2.059352 -2.776600
v 0.517359 1.981224 -2.701357
v 0.694681 2.063658 -2.687988
v 0.636927 1.985530 -2.612746
v 0.371471 0.311902 -2.615962
v 0.249699 0.322388 -2.813927
v 0.380044 0.469142 -2.624806
v 0.261031 0.407129 -2.810261
v 0.630257 2.216978 -2.602800
v 0.550420 2.222449 -2.658405
v 0.694681 2.063658 -2.687988
v 0.575114 2.059352 -2.776600
v 0.517359 1.981224 -2.701357
v 0.575114 2.059352 -2.776600
v 0.505718 2.180933 -2.598313
v 0.550420 2.222449 -2.658405
v 0.508987 0.474401 -2.740928
v 0.497205 0.319106 -2.786185
v 0.684500 0.310956 -2.521725
v 0.587273 2.216677 -2.629679
v 0.533931 2.206909 -2.628300
v 0.555128 2.168679 -2.625357
v 0.549122 0.547899 -2.655166
v 0.508987 0.474401 -2.740928
v 0.678336 0.459750 -2.534642
v 0.549122 0.547899 -2.655166
v 0.457918 0.544180 -2.573031
v 0.508987 0.474401 -2.740928
v 0.380044 0.469142 -2.624806
v 0.583218 0.578751 -2.624700
v 0.499572 0.553749 -2.623106
v 0.576233 0.528073 -2.626208
v 0.694681 2.063658 -2.687988
v 0.636927 1.985530 -2.612746
v 0.630257 2.216978 -2.602800
v 0.585555 2.175461 -2.542709
v 0.505718 2.180933 -2.598313
v 0.550420 2.222449 -2.658405
v 0.585555 2.175461 -2.542709
v 0.630257 2.216978 -2.602800
v 0.636927 1.985530 -2.612746
v 0.517359 1.981224 -2.701357
v 0.585555 2.175461 -2.542709
v 0.505718 2.180933 -2.598313
v 0.558511 2.158380 -2.594103
v 0.589839 2.166300 -2.601181
v 0.555128 2.168679 -2.625357
v 0.605683 2.203670 -2.583143
v 0.587273 2.216677 -2.629679
v 0.589839 2.166300 -2.601181
v 0.587273 2.216677 -2.629679
v 0.555128 2.168679 -2.625357
v 0.589839 2.166300 -2.601181
v 0.533931 2.206909 -2.628300
v 0.519870 2.187737 -2.580298
v 0.555128 2.168679 -2.625357
v 0.519870 2.187737 -2.580298
v 0.558511 2.158380 -2.594103
v 0.555128 2.168679 -2.625357
v 0.684500 0.310956 -2.521725
v 0.678336 0.459750 -2.534642
v 0.508987 0.474401 -2.740928
v 0.684500 0.310956 -2.521725
v 0.497205 0.319106 -2.786185
v 0.587005 0.306980 -2.433925
v 0.371471 0.311902 -2.615962
v 0.369875 1.014305 -2.606630
v 0.531439 1.062635 -2.610324
v 0.355424 1.344652 -2.578065
v 0.355424 1.344652 -2.578065
v 0.261089 1.317263 -2.589395
v 0.369875 1.014305 -2.606630
v 0.499572 0.553749 -2.623106
v 0.514717 0.506038 -2.565755
v 0.576233 0.528073 -2.626208
v 0.623672 0.585414 -2.537268
v 0.583218 0.578751 -2.624700
v 0.576233 0.528073 -2.626208
v 0.545292 0.915635 -2.600146
v 0.416199 0.877717 -2.608557
v 0.583218 0.578751 -2.624700
v 0.499572 0.553749 -2.623106
v 0.369875 1.014305 -2.606630
v 0.416199 0.877717 -2.608557
v 0.531439 1.062635 -2.610324
v 0.545292 0.915635 -2.600146
v 0.369413 1.345725 -2.584709
v 0.264773 1.339144 -2.586250
v 0.327505 1.298089 -2.597867
v 0.589839 2.166300 -2.601181
v 0.558511 2.158380 -2.594103
v 0.561524 2.184883 -2.551287
v 0.561524 2.184883 -2.551287
v 0.605683 2.203670 -2.583143
v 0.589839 2.166300 -2.601181
v 0.519870 2.187737 -2.580298
v 0.561524 2.184883 -2.551287
v 0.558511 2.158380 -2.594103
v 0.587273 2.216677 -2.629679
v 0.525705 2.615921 -2.502164
v 0.533931 2.206909 -2.628300
v 0.449664 2.608253 -2.505114
v 0.380044 0.469142 -2.624806
v 0.457918 0.544180 -2.573031
v 0.557144 0.549425 -2.462675
v 0.678336 0.459750 -2.534642
v 0.648347 0.553144 -2.544810
v 0.549122 0.547899 -2.655166
v 0.380044 0.469142 -2.624806
v 0.587005 0.306980 -2.433925
v 0.371471 0.311902 -2.615962
v 0.557144 0.549425 -2.462675
v 0.457918 0.544180 -2.573031
v 0.648347 0.553144 -2.544810
v 0.549122 0.547899 -2.655166
v 0.596443 0.528635 -2.537569
v 0.576233 0.528073 -2.626208
v 0.514717 0.506038 -2.565755
v 0.257615 1.310165 -2.490871
v 0.261089 1.317263 -2.589395
v 0.355424 1.344652 -2.578065
v 0.261089 1.317263 -2.589395
v 0.257615 1.310165 -2.490871
v 0.369875 1.014305 -2.606630
v 0.499572 0.553749 -2.623106
v 0.488465 0.545341 -2.540230
v 0.514717 0.506038 -2.565755
v 0.576233 0.528073 -2.626208
v 0.596443 0.528635 -2.537569
v 0.623672 0.585414 -2.537268
v 0.416199 0.877717 -2.608557
v 0.404691 0.866059 -2.474803
v 0.499572 0.553749 -2.623106
v 0.488465 0.545341 -2.540230
v 0.583772 0.925389 -2.500555
v 0.545292 0.915635 -2.600146
v 0.623672 0.585414 -2.537268
v 0.583218 0.578751 -2.624700
v 0.205538 1.720101 -2.522201
v 0.264773 1.339144 -2.586250
v 0.369413 1.345725 -2.584709
v 0.264773 1.339144 -2.586250
v 0.263317 1.275457 -2.540645
v 0.327505 1.298089 -2.597867
v 0.400559 1.324609 -2.512073
v 0.369413 1.345725 -2.584709
v 0.327505 1.298089 -2.597867
v 0.605683 2.203670 -2.583143
v 0.553798 2.601116 -2.432586
v 0.587273 2.216677 -2.629679
v 0.525705 2.615921 -2.502164
v 0.533931 2.206909 -2.628300
v 0.449664 2.608253 -2.505114
v 0.519870 2.187737 -2.580298
v 0.428572 2.579495 -2.433111
v 0.562541 0.563859 -2.482771
v 0.623672 0.585414 -2.537268
v 0.596443 0.528635 -2.537569
v 0.488465 0.545341 -2.540230
v 0.562541 0.563859 -2.482771
v 0.514717 0.506038 -2.565755
v 0.562541 0.563859 -2.482771
v 0.596443 0.528635 -2.537569
v 0.514717 0.506038 -2.565755
v 0.404691 0.866059 -2.474803
v 0.416199 0.877717 -2.608557
v 0.341548 0.995334 -2.435427
v 0.369875 1.014305 -2.606630
v 0.531439 1.062635 -2.610324
v 0.545292 0.915635 -2.600146
v 0.568486 1.118025 -2.468041
v 0.583772 0.925389 -2.500555
v 0.568486 1.118025 -2.468041
v 0.382516 1.348331 -2.506788
v 0.531439 1.062635 -2.610324
v 0.355424 1.344652 -2.578065
v 0.205538 1.720101 -2.522201
v 0.369413 1.345725 -2.584709
v 0.388410 1.738218 -2.540201
v 0.352399 1.272986 -2.514080
v 0.327505 1.298089 -2.597867
v 0.263317 1.275457 -2.540645
v 0.264773 1.339144 -2.586250
v 0.259241 1.305094 -2.480914
v 0.263317 1.275457 -2.540645
v 0.327505 1.298089 -2.597867
v 0.352399 1.272986 -2.514080
v 0.400559 1.324609 -2.512073
v 0.561524 2.184883 -2.551287
v 0.491053 2.575213 -2.389594
v 0.605683 2.203670 -2.583143
v 0.553798 2.601116 -2.432586
v 0.519870 2.187737 -2.580298
v 0.428572 2.579495 -2.433111
v 0.561524 2.184883 -2.551287
v 0.491053 2.575213 -2.389594
v 0.522576 2.613261 -2.510338
v 0.442643 2.597459 -2.509148
v 0.472810 2.561629 -2.496622
v 0.522576 2.613261 -2.510338
v 0.472810 2.561629 -2.496622
v 0.526619 2.565170 -2.455561
v 0.557144 0.549425 -2.462675
v 0.568262 0.455261 -2.435514
v 0.380044 0.469142 -2.624806
v 0.380044 0.469142 -2.624806
v 0.568262 0.455261 -2.435514
v 0.587005 0.306980 -2.433925
v 0.568262 0.455261 -2.435514
v 0.557144 0.549425 -2.462675
v 0.678336 0.459750 -2.534642
v 0.648347 0.553144 -2.544810
v 0.257615 1.310165 -2.490871
v 0.341548 0.995334 -2.435427
v 0.369875 1.014305 -2.606630
v 0.495132 0.894134 -2.421534
v 0.583772 0.925389 -2.500555
v 0.562541 0.563859 -2.482771
v 0.623672 0.585414 -2.537268
v 0.257615 1.310165 -2.490871
v 0.355424 1.344652 -2.578065
v 0.324057 1.327373 -2.449061
v 0.382516 1.348331 -2.506788
v 0.174452 1.662776 -2.349462
v 0.264773 1.339144 -2.586250
v 0.205538 1.720101 -2.522201
v 0.330259 1.299821 -2.449402
v 0.400559 1.324609 -2.512073
v 0.352399 1.272986 -2.514080
v 0.259241 1.305094 -2.480914
v 0.330259 1.299821 -2.449402
v 0.263317 1.275457 -2.540645
v 0.330259 1.299821 -2.449402
v 0.352399 1.272986 -2.514080
v 0.263317 1.275457 -2.540645
v 0.367592 1.834598 -2.525543
v 0.453442 1.853058 -2.593007
v 0.373262 2.208127 -2.424532
v 0.459111 2.226587 -2.491994
v 0.451422 1.809432 -2.415162
v 0.537542 1.823865 -2.483909
v 0.367592 1.834598 -2.525543
v 0.453442 1.853058 -2.593007
v 0.400559 1.324609 -2.512073
v 0.465434 1.694047 -2.385750
v 0.369413 1.345725 -2.584709
v 0.388410 1.738218 -2.540201
v 0.553798 2.601116 -2.432586
v 0.449664 2.608253 -2.505114
v 0.525705 2.615921 -2.502164
v 0.478349 2.551037 -2.447049
v 0.526619 2.565170 -2.455561
v 0.472810 2.561629 -2.496622
v 0.545907 2.605473 -2.435384
v 0.522576 2.613261 -2.510338
v 0.526619 2.565170 -2.455561
v 0.442643 2.597459 -2.509148
v 0.422464 2.575436 -2.438892
v 0.472810 2.561629 -2.496622
v 0.422464 2.575436 -2.438892
v 0.478349 2.551037 -2.447049
v 0.472810 2.561629 -2.496622
v 0.522576 2.613261 -2.510338
v 0.427819 2.970574 -2.417226
v 0.442643 2.597459 -2.509148
v 0.338148 2.969180 -2.411522
v 0.678336 0.459750 -2.534642
v 0.684500 0.310956 -2.521725
v 0.568262 0.455261 -2.435514
v 0.587005 0.306980 -2.433925
v 0.562541 0.563859 -2.482771
v 0.488465 0.545341 -2.540230
v 0.495132 0.894134 -2.421534
v 0.404691 0.866059 -2.474803
v 0.495132 0.894134 -2.421534
v 0.488465 0.545341 -2.540230
v 0.174452 1.662776 -2.349462
v 0.259241 1.305094 -2.480914
v 0.264773 1.339144 -2.586250
v 0.572263 2.188022 -2.347438
v 0.459111 2.226587 -2.491994
v 0.537542 1.823865 -2.483909
v 0.453442 1.853058 -2.593007
v 0.392323 2.141764 -2.435899
v 0.191111 2.117180 -2.401551
v 0.388410 1.738218 -2.540201
v 0.205538 1.720101 -2.522201
v 0.553798 2.601116 -2.432586
v 0.491053 2.575213 -2.389594
v 0.449664 2.608253 -2.505114
v 0.428572 2.579495 -2.433111
v 0.526619 2.565170 -2.455561
v 0.478349 2.551037 -2.447049
v 0.486361 2.579642 -2.390132
v 0.486361 2.579642 -2.390132
v 0.545907 2.605473 -2.435384
v 0.526619 2.565170 -2.455561
v 0.422464 2.575436 -2.438892
v 0.486361 2.579642 -2.390132
v 0.478349 2.551037 -2.447049
v 0.545907 2.605473 -2.435384
v 0.448139 2.977636 -2.332626
v 0.522576 2.613261 -2.510338
v 0.427819 2.970574 -2.417226
v 0.442643 2.597459 -2.509148
v 0.338148 2.969180 -2.411522
v 0.422464 2.575436 -2.438892
v 0.307222 2.968415 -2.329036
v 0.583772 0.925389 -2.500555
v 0.495132 0.894134 -2.421534
v 0.568486 1.118025 -2.468041
v 0.449281 1.075993 -2.361771
v 0.495132 0.894134 -2.421534
v 0.404691 0.866059 -2.474803
v 0.449281 1.075993 -2.361771
v 0.341548 0.995334 -2.435427
v 0.449281 1.075993 -2.361771
v 0.324057 1.327373 -2.449061
v 0.568486 1.118025 -2.468041
v 0.382516 1.348331 -2.506788
v 0.449281 1.075993 -2.361771
v 0.341548 0.995334 -2.435427
v 0.324057 1.327373 -2.449061
v 0.257615 1.310165 -2.490871
v 0.346304 3.024213 -2.371057
v 0.338148 2.969180 -2.411522
v 0.427819 2.970574 -2.417226
v 0.195639 2.686599 -2.395251
v 0.300148 3.030680 -2.359734
v 0.069561 2.823057 -2.475808
v 0.367592 1.834598 -2.525543
v 0.373262 2.208127 -2.424532
v 0.451422 1.809432 -2.415162
v 0.486143 2.173588 -2.278691
v 0.373262 2.208127 -2.424532
v 0.459111 2.226587 -2.491994
v 0.486143 2.173588 -2.278691
v 0.572263 2.188022 -2.347438
v 0.486143 2.173588 -2.278691
v 0.572263 2.188022 -2.347438
v 0.451422 1.809432 -2.415162
v 0.537542 1.823865 -2.483909
v 0.463097 2.093606 -2.270298
v 0.392323 2.141764 -2.435899
v 0.465434 1.694047 -2.385750
v 0.388410 1.738218 -2.540201
v 0.330259 1.299821 -2.449402
v 0.330946 1.646627 -2.265857
v 0.400559 1.324609 -2.512073
v 0.465434 1.694047 -2.385750
v 0.259241 1.305094 -2.480914
v 0.174452 1.662776 -2.349462
v 0.330259 1.299821 -2.449402
v 0.330946 1.646627 -2.265857
v 0.165020 2.052348 -2.368875
v 0.368460 2.059693 -2.451323
v 0.126703 2.245981 -2.361902
v 0.163007 2.391842 -2.375355
v 0.126703 2.245981 -2.361902
v 0.308922 2.252976 -2.428017
v 0.368460 2.059693 -2.451323
v 0.400112 3.027755 -2.329996
v 0.346304 3.024213 -2.371057
v 0.427819 2.970574 -2.417226
v 0.427819 2.970574 -2.417226
v 0.448139 2.977636 -2.332626
v 0.400112 3.027755 -2.329996
v 0.307222 2.968415 -2.329036
v 0.338148 2.969180 -2.411522
v 0.346304 3.024213 -2.371057
v 0.486361 2.579642 -2.390132
v 0.374481 2.972841 -2.277709
v 0.545907 2.605473 -2.435384
v 0.448139 2.977636 -2.332626
v 0.422464 2.575436 -2.438892
v 0.307222 2.968415 -2.329036
v 0.486361 2.579642 -2.390132
v 0.374481 2.972841 -2.277709
v 0.191111 2.117180 -2.401551
v 0.392323 2.141764 -2.435899
v 0.463097 2.093606 -2.270298
v 0.191111 2.117180 -2.401551
v 0.141686 2.053389 -2.212463
v 0.205538 1.720101 -2.522201
v 0.174452 1.662776 -2.349462
v 0.163007 2.391842 -2.375355
v 0.308922 2.252976 -2.428017
v 0.301228 2.417327 -2.287534
v 0.458369 2.283092 -2.266272
v 0.308922 2.252976 -2.428017
v 0.519267 2.065286 -2.272962
v 0.368460 2.059693 -2.451323
v 0.349469 3.012248 -2.318258
v 0.346304 3.024213 -2.371057
v 0.400112 3.027755 -2.329996
v 0.346304 3.024213 -2.371057
v 0.349469 3.012248 -2.318258
v 0.307222 2.968415 -2.329036
v 0.300148 3.030680 -2.359734
v 0.195639 2.686599 -2.395251
v 0.441100 3.015828 -2.266856
v 0.159290 2.553953 -2.345844
v 0.321923 2.545310 -2.238506
v 0.195639 2.686599 -2.395251
v 0.548428 2.158569 -2.385778
v 0.540454 2.052154 -2.416943
v 0.688538 2.122377 -2.242943
v 0.680974 2.013767 -2.281093
v 0.494065 2.044041 -2.373502
v 0.631528 2.004576 -2.234927
v 0.540454 2.052154 -2.416943
v 0.680974 2.013767 -2.281093
v 0.458369 2.283092 -2.266272
v 0.301228 2.417327 -2.287534
v 0.308922 2.252976 -2.428017
v 0.368460 2.059693 -2.451323
v 0.165020 2.052348 -2.368875
v 0.191951 1.964100 -2.221640
v 0.519267 2.065286 -2.272962
v 0.368460 2.059693 -2.451323
v 0.429056 1.955310 -2.245355
v 0.349469 3.012248 -2.318258
v 0.400112 3.027755 -2.329996
v 0.374481 2.972841 -2.277709
v 0.400112 3.027755 -2.329996
v 0.448139 2.977636 -2.332626
v 0.374481 2.972841 -2.277709
v 0.349469 3.012248 -2.318258
v 0.374481 2.972841 -2.277709
v 0.307222 2.968415 -2.329036
v 0.192469 3.338691 -2.309994
v 0.178584 3.414553 -2.307480
v 0.068170 3.339209 -2.229705
v 0.417149 2.693630 -2.258820
v 0.441100 3.015828 -2.266856
v 0.195639 2.686599 -2.395251
v 0.321923 2.545310 -2.238506
v 0.417149 2.693630 -2.258820
v 0.195639 2.686599 -2.395251
v 0.166234 2.405846 -2.364590
v 0.310709 2.390623 -2.269390
v 0.159290 2.553953 -2.345844
v 0.321923 2.545310 -2.238506
v 0.642420 2.110237 -2.200786
v 0.504957 2.149702 -2.339360
v 0.688538 2.122377 -2.242943
v 0.548428 2.158569 -2.385778
v 0.494065 2.044041 -2.373502
v 0.504957 2.149702 -2.339360
v 0.631528 2.004576 -2.234927
v 0.642420 2.110237 -2.200786
v 0.191951 1.964100 -2.221640
v 0.429056 1.955310 -2.245355
v 0.368460 2.059693 -2.451323
v 0.402768 3.179360 -2.275738
v 0.355662 3.525274 -2.203398
v 0.340280 3.351320 -2.288172
v 0.340280 3.351320 -2.288172
v 0.225464 3.504819 -2.289885
v 0.316682 3.363209 -2.222306
v 0.217017 3.517209 -2.254606
v 0.316682 3.363209 -2.222306
v 0.225464 3.504819 -2.289885
v 0.225464 3.504819 -2.289885
v 0.355662 3.525274 -2.203398
v 0.134405 3.569955 -2.262459
v 0.192469 3.338691 -2.309994
v 0.316682 3.363209 -2.222306
v 0.178584 3.414553 -2.307480
v 0.062727 3.406848 -2.231930
v 0.068170 3.339209 -2.229705
v 0.178584 3.414553 -2.307480
v 0.340280 3.351320 -2.288172
v 0.355662 3.525274 -2.203398
v 0.225464 3.504819 -2.289885
v 0.105170 3.272559 -2.267518
v 0.056074 3.266861 -2.239171
v 0.132338 3.146169 -2.241970
v 0.034525 3.278990 -2.253170
v 0.105170 3.272559 -2.267518
v 0.068170 3.339209 -2.229705
v 0.132338 3.146169 -2.241970
v 0.310979 3.193522 -2.199062
v 0.192469 3.338691 -2.309994
v 0.132338 3.146169 -2.241970
v 0.192469 3.338691 -2.309994
v 0.105170 3.272559 -2.267518
v 0.105170 3.272559 -2.267518
v 0.192469 3.338691 -2.309994
v 0.068170 3.339209 -2.229705
v 0.217017 3.517209 -2.254606
v 0.178584 3.414553 -2.307480
v 0.316682 3.363209 -2.222306
v 0.034525 3.278990 -2.253170
v 0.056074 3.266861 -2.239171
v 0.105170 3.272559 -2.267518
v 0.134405 3.569955 -2.262459
v 0.217017 3.517209 -2.254606
v 0.225464 3.504819 -2.289885
v 0.217017 3.517209 -2.254606
v 0.105534 3.518153 -2.201370
v 0.178584 3.414553 -2.307480
v 0.340280 3.351320 -2.288172
v 0.316682 3.363209 -2.222306
v 0.402768 3.179360 -2.275738
v 0.069561 2.823057 -2.475808
v -0.149970 2.816057 -2.143879
v 0.195639 2.686599 -2.395251
v -0.023892 2.679599 -2.063320
v 0.191111 2.117180 -2.401551
v 0.463097 2.093606 -2.270298
v 0.141686 2.053389 -2.212463
v 0.310269 2.039719 -2.134056
v 0.310269 2.039719 -2.134056
v 0.463097 2.093606 -2.270298
v 0.330946 1.646627 -2.265857
v 0.465434 1.694047 -2.385750
v 0.163007 2.391842 -2.375355
v -0.008710 2.395184 -2.128605
v 0.126703 2.245981 -2.361902
v -0.011845 2.248599 -2.164272
v 0.126703 2.245981 -2.361902
v -0.011845 2.248599 -2.164272
v 0.165020 2.052348 -2.368875
v -0.001959 2.055587 -2.129142
v 0.134405 3.569955 -2.262459
v 0.105534 3.518153 -2.201370
v 0.217017 3.517209 -2.254606
v 0.310979 3.193522 -2.199062
v 0.402768 3.179360 -2.275738
v 0.316682 3.363209 -2.222306
v 0.316682 3.363209 -2.222306
v 0.192469 3.338691 -2.309994
v 0.310979 3.193522 -2.199062
v 0.062727 3.406848 -2.231930
v 0.178584 3.414553 -2.307480
v 0.105534 3.518153 -2.201370
v 0.034525 3.278990 -2.253170
v 0.046904 3.266464 -2.179245
v 0.056074 3.266861 -2.239171
v 0.034525 3.278990 -2.253170
v 0.068170 3.339209 -2.229705
v 0.046904 3.266464 -2.179245
v 0.084500 3.136292 -2.223030
v 0.132338 3.146169 -2.241970
v 0.056074 3.266861 -2.239171
v 0.417149 2.693630 -2.258820
v 0.522769 2.714235 -2.153038
v 0.441100 3.015828 -2.266856
v 0.159290 2.553953 -2.345844
v 0.016829 2.549410 -2.130443
v 0.166234 2.405846 -2.364590
v -0.001917 2.400485 -2.110347
v 0.300148 3.030680 -2.359734
v 0.043250 3.022489 -1.971306
v 0.069561 2.823057 -2.475808
v -0.149970 2.816057 -2.143879
v 0.195639 2.686599 -2.395251
v -0.023892 2.679599 -2.063320
v 0.159290 2.553953 -2.345844
v 0.016829 2.549410 -2.130443
v 0.631528 2.004576 -2.234927
v 0.642420 2.110237 -2.200786
v 0.680974 2.013767 -2.281093
v 0.688538 2.122377 -2.242943
v 0.141686 2.053389 -2.212463
v 0.310269 2.039719 -2.134056
v 0.174452 1.662776 -2.349462
v 0.330946 1.646627 -2.265857
v -0.001959 2.055587 -2.129142
v 0.141065 1.964804 -2.153827
v 0.165020 2.052348 -2.368875
v 0.191951 1.964100 -2.221640
v 0.241842 3.572665 -2.110153
v 0.134405 3.569955 -2.262459
v 0.355662 3.525274 -2.203398
v 0.402768 3.179360 -2.275738
v 0.310979 3.193522 -2.199062
v 0.402563 3.077399 -2.156105
v 0.046904 3.266464 -2.179245
v 0.083294 3.144606 -2.167816
v 0.056074 3.266861 -2.239171
v 0.271566 3.145569 -2.099175
v 0.132338 3.146169 -2.241970
v 0.084500 3.136292 -2.223030
v 0.062727 3.406848 -2.231930
v 0.041990 3.410180 -2.093273
v 0.068170 3.339209 -2.229705
v 0.134405 3.569955 -2.262459
v 0.241842 3.572665 -2.110153
v 0.105534 3.518153 -2.201370
v 0.271566 3.145569 -2.099175
v 0.310979 3.193522 -2.199062
v 0.132338 3.146169 -2.241970
v 0.084500 3.136292 -2.223030
v 0.056074 3.266861 -2.239171
v 0.083294 3.144606 -2.167816
v 0.510972 2.990915 -2.145024
v 0.441100 3.015828 -2.266856
v 0.522769 2.714235 -2.153038
v 0.166234 2.405846 -2.364590
v -0.001917 2.400485 -2.110347
v 0.310709 2.390623 -2.269390
v 0.142558 2.385261 -2.015146
v -0.008710 2.395184 -2.128605
v 0.163007 2.391842 -2.375355
v 0.127141 2.420721 -2.037275
v 0.301228 2.417327 -2.287534
v 0.271566 3.145569 -2.099175
v 0.402563 3.077399 -2.156105
v 0.310979 3.193522 -2.199062
v 0.402563 3.077399 -2.156105
v 0.426257 3.124467 -2.063337
v 0.402768 3.179360 -2.275738
v 0.077210 3.572281 -2.137771
v 0.105534 3.518153 -2.201370
v 0.241842 3.572665 -2.110153
v 0.402768 3.179360 -2.275738
v 0.476135 3.274150 -2.052706
v 0.355662 3.525274 -2.203398
v 0.062727 3.406848 -2.231930
v 0.105534 3.518153 -2.201370
v 0.041990 3.410180 -2.093273
v 0.046904 3.266464 -2.179245
v 0.068170 3.339209 -2.229705
v 0.043002 3.333925 -2.084000
v 0.271566 3.145569 -2.099175
v 0.084500 3.136292 -2.223030
v 0.083294 3.144606 -2.167816
v 0.243421 3.192447 -2.170554
v 0.222014 3.025771 -2.203346
v 0.338563 3.182422 -2.107862
v 0.341823 3.013146 -2.124399
v 0.476135 3.274150 -2.052706
v 0.402768 3.179360 -2.275738
v 0.426257 3.124467 -2.063337
v 0.424010 3.493049 -2.082721
v 0.241842 3.572665 -2.110153
v 0.355662 3.525274 -2.203398
v 0.043002 3.333925 -2.084000
v 0.068170 3.339209 -2.229705
v 0.041990 3.410180 -2.093273
v 0.046904 3.266464 -2.179245
v 0.043002 3.333925 -2.084000
v 0.083294 3.144606 -2.167816
v 0.077210 3.572281 -2.137771
v 0.104916 3.513635 -2.085109
v 0.105534 3.518153 -2.201370
v 0.424010 3.493049 -2.082721
v 0.355662 3.525274 -2.203398
v 0.476135 3.274150 -2.052706
v 0.104916 3.513635 -2.085109
v 0.041990 3.410180 -2.093273
v 0.105534 3.518153 -2.201370
v 0.310709 2.390623 -2.269390
v 0.142558 2.385261 -2.015146
v 0.321923 2.545310 -2.238506
v 0.179462 2.540768 -2.023104
v 0.222014 3.025771 -2.203346
v 0.243421 3.192447 -2.170554
v 0.154286 3.023611 -2.100943
v 0.189706 3.190734 -2.089338
v 0.043250 3.022489 -1.971306
v 0.300148 3.030680 -2.359734
v 0.184201 3.007636 -1.878427
v 0.441100 3.015828 -2.266856
v 0.202847 1.959842 -1.917907
v 0.429056 1.955310 -2.245355
v 0.141065 1.964804 -2.153827
v 0.191951 1.964100 -2.221640
v 0.127141 2.420721 -2.037275
v 0.301228 2.417327 -2.287534
v 0.203728 2.288244 -1.896721
v 0.458369 2.283092 -2.266272
v 0.367457 3.046462 -2.032719
v 0.402563 3.077399 -2.156105
v 0.271566 3.145569 -2.099175
v 0.077210 3.572281 -2.137771
v 0.101675 3.509207 -2.041652
v 0.104916 3.513635 -2.085109
v 0.271566 3.145569 -2.099175
v 0.083294 3.144606 -2.167816
v 0.191873 3.189724 -2.018971
v 0.043002 3.333925 -2.084000
v 0.191873 3.189724 -2.018971
v 0.083294 3.144606 -2.167816
v 0.402563 3.077399 -2.156105
v 0.367457 3.046462 -2.032719
v 0.426257 3.124467 -2.063337
v 0.189706 3.190734 -2.089338
v 0.243421 3.192447 -2.170554
v 0.284848 3.180709 -2.026645
v 0.338563 3.182422 -2.107862
v 0.321923 2.545310 -2.238506
v 0.179462 2.540768 -2.023104
v 0.417149 2.693630 -2.258820
v 0.190612 2.686407 -1.916297
v 0.130470 2.061160 -2.195146
v -0.027860 2.110589 -2.079858
v 0.043917 1.661067 -2.125918
v -0.111225 1.706581 -2.031619
v 0.269345 2.052663 -2.073357
v 0.130470 2.061160 -2.195146
v 0.180304 1.652213 -2.009565
v 0.043917 1.661067 -2.125918
v 0.101675 3.509207 -2.041652
v 0.077210 3.572281 -2.137771
v 0.201524 3.520359 -1.970340
v 0.104916 3.513635 -2.085109
v 0.171885 3.358592 -2.003373
v 0.041990 3.410180 -2.093273
v 0.241842 3.572665 -2.110153
v 0.201524 3.520359 -1.970340
v 0.077210 3.572281 -2.137771
v 0.043002 3.333925 -2.084000
v 0.041990 3.410180 -2.093273
v 0.171885 3.358592 -2.003373
v 0.104916 3.513635 -2.085109
v 0.101675 3.509207 -2.041652
v 0.171885 3.358592 -2.003373
v 0.337718 3.486060 -1.952075
v 0.241842 3.572665 -2.110153
v 0.424010 3.493049 -2.082721
v -0.023892 2.679599 -2.063320
v -0.149970 2.816057 -2.143879
v 0.043250 3.022489 -1.971306
v 0.326592 2.707980 -1.856420
v 0.522769 2.714235 -2.153038
v 0.190612 2.686407 -1.916297
v 0.417149 2.693630 -2.258820
v 0.142558 2.385261 -2.015146
v -0.001917 2.400485 -2.110347
v 0.179462 2.540768 -2.023104
v 0.016829 2.549410 -2.130443
v 0.341823 3.013146 -2.124399
v 0.274095 3.010986 -2.021996
v 0.338563 3.182422 -2.107862
v 0.284848 3.180709 -2.026645
v 0.154286 3.023611 -2.100943
v 0.189706 3.190734 -2.089338
v 0.274095 3.010986 -2.021996
v 0.284848 3.180709 -2.026645
v 0.269345 2.052663 -2.073357
v 0.198387 2.097138 -1.878940
v 0.130470 2.061160 -2.195146
v -0.027860 2.110589 -2.079858
v -0.001959 2.055587 -2.129142
v -0.011845 2.248599 -2.164272
v -0.005879 2.067864 -1.896965
v 0.141065 1.964804 -2.153827
v -0.001959 2.055587 -2.129142
v -0.005879 2.067864 -1.896965
v 0.203728 2.288244 -1.896721
v 0.458369 2.283092 -2.266272
v 0.212503 2.071576 -1.826222
v 0.519267 2.065286 -2.272962
v 0.212503 2.071576 -1.826222
v 0.519267 2.065286 -2.272962
v 0.202847 1.959842 -1.917907
v 0.429056 1.955310 -2.245355
v 0.499114 3.215387 -2.008250
v 0.426257 3.124467 -2.063337
v 0.485866 2.977734 -2.001527
v 0.499114 3.215387 -2.008250
v 0.476135 3.274150 -2.052706
v 0.426257 3.124467 -2.063337
v 0.403371 2.983892 -2.015324
v 0.485866 2.977734 -2.001527
v 0.367457 3.046462 -2.032719
v 0.426257 3.124467 -2.063337
v 0.367457 3.046462 -2.032719
v 0.485866 2.977734 -2.001527
v 0.367457 3.046462 -2.032719
v 0.271566 3.145569 -2.099175
v 0.269443 3.073154 -1.954828
v 0.171885 3.358592 -2.003373
v 0.191873 3.189724 -2.018971
v 0.043002 3.333925 -2.084000
v 0.337718 3.486060 -1.952075
v 0.201524 3.520359 -1.970340
v 0.241842 3.572665 -2.110153
v 0.271566 3.145569 -2.099175
v 0.191873 3.189724 -2.018971
v 0.269443 3.073154 -1.954828
v -0.023892 2.679599 -2.063320
v 0.190612 2.686407 -1.916297
v 0.016829 2.549410 -2.130443
v 0.190612 2.686407 -1.916297
v 0.179462 2.540768 -2.023104
v 0.016829 2.549410 -2.130443
v 0.510972 2.990915 -2.145024
v 0.324137 2.984957 -1.862530
v 0.441100 3.015828 -2.266856
v 0.184201 3.007636 -1.878427
v -0.111225 1.706581 -2.031619
v -0.117760 1.325834 -1.960662
v 0.043917 1.661067 -2.125918
v -0.117760 1.325834 -1.960662
v -0.024387 1.299879 -2.008226
v 0.043917 1.661067 -2.125918
v 0.180304 1.652213 -2.009565
v 0.043917 1.661067 -2.125918
v 0.032087 1.297050 -1.954694
v -0.024387 1.299879 -2.008226
v -0.008710 2.395184 -2.128605
v 0.127141 2.420721 -2.037275
v -0.003816 2.259802 -1.964884
v -0.011845 2.248599 -2.164272
v -0.008710 2.395184 -2.128605
v -0.005879 2.067864 -1.896965
v -0.003816 2.259802 -1.964884
v 0.403371 2.983892 -2.015324
v 0.367457 3.046462 -2.032719
v 0.446164 2.976468 -1.941497
v 0.363201 3.122456 -1.967995
v 0.446164 2.976468 -1.941497
v 0.367457 3.046462 -2.032719
v 0.101675 3.509207 -2.041652
v 0.201524 3.520359 -1.970340
v 0.154750 3.349484 -1.938735
v 0.154750 3.349484 -1.938735
v 0.171885 3.358592 -2.003373
v 0.101675 3.509207 -2.041652
v 0.269443 3.073154 -1.954828
v 0.363201 3.122456 -1.967995
v 0.367457 3.046462 -2.032719
v 0.191873 3.189724 -2.018971
v 0.171885 3.358592 -2.003373
v 0.159883 3.171615 -1.908496
v 0.403371 2.983892 -2.015324
v 0.446164 2.976468 -1.941497
v 0.485866 2.977734 -2.001527
v 0.499114 3.215387 -2.008250
v 0.443063 3.213600 -1.923501
v 0.476135 3.274150 -2.052706
v 0.389724 3.271394 -1.922053
v 0.337718 3.486060 -1.952075
v 0.424010 3.493049 -2.082721
v 0.389724 3.271394 -1.922053
v 0.476135 3.274150 -2.052706
v -0.023892 2.679599 -2.063320
v 0.043250 3.022489 -1.971306
v 0.190612 2.686407 -1.916297
v 0.324137 2.984957 -1.862530
v 0.510972 2.990915 -2.145024
v 0.326592 2.707980 -1.856420
v 0.522769 2.714235 -2.153038
v -0.078183 1.262871 -1.977899
v -0.024387 1.299879 -2.008226
v -0.117760 1.325834 -1.960662
v -0.078183 1.262871 -1.977899
v 0.032087 1.297050 -1.954694
v -0.024387 1.299879 -2.008226
v -0.005879 2.067864 -1.896965
v 0.202847 1.959842 -1.917907
v 0.141065 1.964804 -2.153827
v 0.093295 2.957280 -1.988420
v 0.155565 2.971083 -1.932492
v 0.106206 3.004982 -1.947857
v 0.055869 3.010205 -1.941576
v 0.018150 2.952169 -1.935621
v 0.093295 2.957280 -1.988420
v 0.093295 2.957280 -1.988420
v 0.106206 3.004982 -1.947857
v 0.055869 3.010205 -1.941576
v 0.443063 3.213600 -1.923501
v 0.446164 2.976468 -1.941497
v 0.363201 3.122456 -1.967995
v 0.159883 3.171615 -1.908496
v 0.269443 3.073154 -1.954828
v 0.191873 3.189724 -2.018971
v 0.269443 3.073154 -1.954828
v 0.159883 3.171615 -1.908496
v 0.363201 3.122456 -1.967995
v 0.154750 3.349484 -1.938735
v 0.159883 3.171615 -1.908496
v 0.171885 3.358592 -2.003373
v 0.337718 3.486060 -1.952075
v 0.389724 3.271394 -1.922053
v 0.201524 3.520359 -1.970340
v 0.485866 2.977734 -2.001527
v 0.446164 2.976468 -1.941497
v 0.499114 3.215387 -2.008250
v 0.443063 3.213600 -1.923501
v -0.079256 1.001043 -1.868658
v -0.024976 1.305008 -2.001464
v -0.115257 1.307635 -1.961261
v -0.079256 1.001043 -1.868658
v 0.064112 0.990535 -1.956829
v -0.024976 1.305008 -2.001464
v -0.024976 1.305008 -2.001464
v 0.034084 1.321949 -1.956123
v -0.115257 1.307635 -1.961261
v -0.068970 1.332582 -1.880925
v 0.174006 1.072749 -1.880223
v 0.034084 1.321949 -1.956123
v 0.064112 0.990535 -1.956829
v -0.024976 1.305008 -2.001464
v 0.198387 2.097138 -1.878940
v 0.011614 2.133742 -1.881737
v -0.027860 2.110589 -2.079858
v -0.076895 1.332790 -1.864357
v -0.117760 1.325834 -1.960662
v -0.111225 1.706581 -2.031619
v -0.106566 1.280661 -1.900132
v -0.078183 1.262871 -1.977899
v -0.117760 1.325834 -1.960662
v -0.078183 1.262871 -1.977899
v -0.014247 1.261113 -1.908058
v 0.032087 1.297050 -1.954694
v -0.027860 2.110589 -2.079858
v 0.011614 2.133742 -1.881737
v -0.111225 1.706581 -2.031619
v -0.055423 1.723331 -1.853733
v 0.198387 2.097138 -1.878940
v 0.269345 2.052663 -2.073357
v 0.119280 1.690461 -1.842366
v 0.180304 1.652213 -2.009565
v 0.203728 2.288244 -1.896721
v -0.003816 2.259802 -1.964884
v 0.127141 2.420721 -2.037275
v 0.107849 3.020332 -1.899271
v 0.055869 3.010205 -1.941576
v 0.106206 3.004982 -1.947857
v 0.036378 2.955869 -1.850322
v 0.018150 2.952169 -1.935621
v 0.055869 3.010205 -1.941576
v 0.155565 2.971083 -1.932492
v 0.107849 3.020332 -1.899271
v 0.106206 3.004982 -1.947857
v 0.443063 3.213600 -1.923501
v 0.363201 3.122456 -1.967995
v 0.389724 3.271394 -1.922053
v 0.389724 3.271394 -1.922053
v 0.363201 3.122456 -1.967995
v 0.159883 3.171615 -1.908496
v 0.159883 3.171615 -1.908496
v 0.154750 3.349484 -1.938735
v 0.201524 3.520359 -1.970340
v 0.159883 3.171615 -1.908496
v 0.201524 3.520359 -1.970340
v 0.389724 3.271394 -1.922053
v 0.184201 3.007636 -1.878427
v 0.190612 2.686407 -1.916297
v 0.043250 3.022489 -1.971306
v -0.055423 1.723331 -1.853733
v -0.076895 1.332790 -1.864357
v -0.111225 1.706581 -2.031619
v -0.078183 1.262871 -1.977899
v -0.106566 1.280661 -1.900132
v -0.014247 1.261113 -1.908058
v -0.014247 1.261113 -1.908058
v -0.000554 1.317508 -1.865262
v 0.032087 1.297050 -1.954694
v 0.119280 1.690461 -1.842366
v 0.180304 1.652213 -2.009565
v -0.000554 1.317508 -1.865262
v 0.032087 1.297050 -1.954694
v 0.036378 2.955869 -1.850322
v 0.055869 3.010205 -1.941576
v 0.107849 3.020332 -1.899271
v 0.155565 2.971083 -1.932492
v 0.122110 2.972425 -1.851011
v 0.107849 3.020332 -1.899271
v 0.155565 2.971083 -1.932492
v 0.093295 2.957280 -1.988420
v 0.113522 2.575081 -1.785902
v 0.054502 2.561911 -1.839187
v 0.093295 2.957280 -1.988420
v 0.018150 2.952169 -1.935621
v 0.054502 2.561911 -1.839187
v -0.013684 2.578685 -1.800183
v 0.326592 2.707980 -1.856420
v 0.190612 2.686407 -1.916297
v 0.324137 2.984957 -1.862530
v 0.184201 3.007636 -1.878427
v 0.324137 2.984957 -1.862530
v 0.190612 2.686407 -1.916297
v -0.297352 0.397610 -1.918778
v -0.297536 0.313064 -1.929498
v -0.083550 0.465888 -1.870198
v -0.072251 0.309494 -1.886580
v 0.034084 1.321949 -1.956123
v 0.007120 1.338850 -1.882245
v -0.068970 1.332582 -1.880925
v -0.079256 1.001043 -1.868658
v -0.115257 1.307635 -1.961261
v -0.068970 1.332582 -1.880925
v -0.079256 1.001043 -1.868658
v -0.060685 0.864427 -1.825971
v 0.064112 0.990535 -1.956829
v 0.059405 0.858986 -1.886918
v 0.064112 0.990535 -1.956829
v 0.059405 0.858986 -1.886918
v 0.174006 1.072749 -1.880223
v 0.141677 0.887460 -1.821915
v -0.106566 1.280661 -1.900132
v -0.117760 1.325834 -1.960662
v -0.076895 1.332790 -1.864357
v -0.000554 1.317508 -1.865262
v -0.014247 1.261113 -1.908058
v -0.106566 1.280661 -1.900132
v -0.106566 1.280661 -1.900132
v -0.076895 1.332790 -1.864357
v -0.000554 1.317508 -1.865262
v 0.202847 1.959842 -1.917907
v -0.005879 2.067864 -1.896965
v 0.212503 2.071576 -1.826222
v -0.003816 2.259802 -1.964884
v 0.203728 2.288244 -1.896721
v -0.005879 2.067864 -1.896965
v 0.212503 2.071576 -1.826222
v 0.107849 3.020332 -1.899271
v 0.122110 2.972425 -1.851011
v 0.036378 2.955869 -1.850322
v -0.297536 0.313064 -1.929498
v -0.297352 0.397610 -1.918778
v -0.342967 0.311095 -1.820012
v -0.336293 0.395922 -1.824932
v 0.007120 1.338850 -1.882245
v 0.034084 1.321949 -1.956123
v 0.118659 1.107440 -1.728578
v 0.174006 1.072749 -1.880223
v 0.014343 2.200149 -1.900555
v -0.060130 1.820969 -1.877807
v 0.190227 2.176903 -1.854081
v 0.075271 1.803940 -1.842923
v 0.011614 2.133742 -1.881737
v 0.198387 2.097138 -1.878940
v -0.055423 1.723331 -1.853733
v 0.119280 1.690461 -1.842366
v -0.055423 1.723331 -1.853733
v 0.119280 1.690461 -1.842366
v -0.076895 1.332790 -1.864357
v -0.000554 1.317508 -1.865262
v 0.018150 2.952169 -1.935621
v 0.036378 2.955869 -1.850322
v -0.013684 2.578685 -1.800183
v 0.002585 2.601895 -1.723943
v 0.122110 2.972425 -1.851011
v 0.155565 2.971083 -1.932492
v 0.081073 2.598818 -1.717813
v 0.113522 2.575081 -1.785902
v 0.123763 0.549969 -1.750687
v -0.013160 0.541572 -1.807604
v -0.083550 0.465888 -1.870198
v -0.072251 0.309494 -1.886580
v 0.173726 0.308652 -1.738767
v -0.083550 0.465888 -1.870198
v -0.083550 0.465888 -1.870198
v -0.151695 0.462934 -1.705969
v -0.297352 0.397610 -1.918778
v -0.336293 0.395922 -1.824932
v -0.297536 0.313064 -1.929498
v -0.342967 0.311095 -1.820012
v -0.072251 0.309494 -1.886580
v -0.186975 0.306066 -1.709582
v 0.059405 0.858986 -1.886918
v 0.040535 0.533936 -1.796287
v 0.141677 0.887460 -1.821915
v -0.068970 1.332582 -1.880925
v -0.025295 1.046573 -1.711864
v -0.079256 1.001043 -1.868658
v 0.059405 0.858986 -1.886918
v -0.060685 0.864427 -1.825971
v 0.040535 0.533936 -1.796287
v -0.036402 0.537722 -1.756089
v -0.016370 2.213998 -1.795076
v -0.090844 1.834819 -1.772328
v 0.014343 2.200149 -1.900555
v -0.060130 1.820969 -1.877807
v 0.159513 2.190752 -1.748602
v -0.016370 2.213998 -1.795076
v 0.190227 2.176903 -1.854081
v 0.014343 2.200149 -1.900555
v -0.090844 1.834819 -1.772328
v 0.048463 1.817256 -1.735896
v -0.060130 1.820969 -1.877807
v 0.075271 1.803940 -1.842923
v 0.057606 2.564936 -1.835123
v 0.114563 2.566146 -1.784431
v -0.007968 2.582820 -1.800157
v 0.086960 2.584837 -1.715670
v 0.059776 2.540494 -1.779458
v 0.113522 2.575081 -1.785902
v 0.054502 2.561911 -1.839187
v 0.009440 2.545716 -1.773176
v 0.054502 2.561911 -1.839187
v -0.013684 2.578685 -1.800183
v 0.009440 2.545716 -1.773176
v 0.059776 2.540494 -1.779458
v 0.054502 2.561911 -1.839187
v 0.036378 2.955869 -1.850322
v 0.122110 2.972425 -1.851011
v 0.002585 2.601895 -1.723943
v 0.081073 2.598818 -1.717813
v -0.083550 0.465888 -1.870198
v 0.158180 0.457078 -1.756375
v 0.123763 0.549969 -1.750687
v 0.173726 0.308652 -1.738767
v 0.158180 0.457078 -1.756375
v -0.083550 0.465888 -1.870198
v 0.120889 0.553401 -1.748362
v 0.141677 0.887460 -1.821915
v 0.040535 0.533936 -1.796287
v -0.079256 1.001043 -1.868658
v -0.025295 1.046573 -1.711864
v -0.060685 0.864427 -1.825971
v -0.009851 0.899221 -1.709349
v 0.174006 1.072749 -1.880223
v 0.141677 0.887460 -1.821915
v 0.118659 1.107440 -1.728578
v 0.101941 0.912366 -1.713042
v -0.068970 1.332582 -1.880925
v 0.007120 1.338850 -1.882245
v -0.025295 1.046573 -1.711864
v 0.118659 1.107440 -1.728578
v 0.141615 2.149711 -1.810280
v 0.116887 2.041348 -1.808327
v 0.325215 2.124676 -1.737529
v 0.299672 2.012206 -1.734933
v 0.048463 1.817256 -1.735896
v 0.159513 2.190752 -1.748602
v 0.075271 1.803940 -1.842923
v 0.190227 2.176903 -1.854081
v 0.009059 2.594241 -1.723992
v -0.007968 2.582820 -1.800157
v 0.086960 2.584837 -1.715670
v 0.114563 2.566146 -1.784431
v 0.057606 2.564936 -1.835123
v 0.008082 2.165932 -1.674325
v -0.029890 2.165125 -1.708120
v 0.057606 2.564936 -1.835123
v -0.007968 2.582820 -1.800157
v -0.029890 2.165125 -1.708120
v -0.074849 2.180607 -1.683498
v 0.009440 2.545716 -1.773176
v 0.061419 2.555844 -1.730871
v 0.059776 2.540494 -1.779458
v 0.009440 2.545716 -1.773176
v -0.013684 2.578685 -1.800183
v 0.002585 2.601895 -1.723943
v 0.061419 2.555844 -1.730871
v 0.009440 2.545716 -1.773176
v 0.002585 2.601895 -1.723943
v 0.113522 2.575081 -1.785902
v 0.059776 2.540494 -1.779458
v 0.061419 2.555844 -1.730871
v 0.061419 2.555844 -1.730871
v 0.081073 2.598818 -1.717813
v 0.113522 2.575081 -1.785902
v -0.342967 0.311095 -1.820012
v -0.336293 0.395922 -1.824932
v -0.186975 0.306066 -1.709582
v -0.151695 0.462934 -1.705969
v -0.151695 0.462934 -1.705969
v -0.083550 0.465888 -1.870198
v -0.058589 0.539603 -1.698118
v -0.013160 0.541572 -1.807604
v -0.072251 0.309494 -1.886580
v -0.186975 0.306066 -1.709582
v 0.173726 0.308652 -1.738767
v 0.125051 0.306542 -1.621462
v 0.023990 0.492296 -1.765127
v 0.040535 0.533936 -1.796287
v -0.036402 0.537722 -1.756089
v 0.023990 0.492296 -1.765127
v 0.120889 0.553401 -1.748362
v 0.040535 0.533936 -1.796287
v -0.060685 0.864427 -1.825971
v -0.009851 0.899221 -1.709349
v -0.036402 0.537722 -1.756089
v -0.003458 0.561510 -1.675749
v 0.101941 0.912366 -1.713042
v 0.141677 0.887460 -1.821915
v 0.092505 0.571191 -1.670595
v 0.120889 0.553401 -1.748362
v 0.141615 2.149711 -1.810280
v 0.325215 2.124676 -1.737529
v 0.119514 2.158948 -1.751311
v 0.300880 2.130696 -1.674030
v 0.299672 2.012206 -1.734933
v 0.116887 2.041348 -1.808327
v 0.276150 2.022332 -1.672076
v 0.090064 2.047010 -1.750263
v -0.090844 1.834819 -1.772328
v -0.016370 2.213998 -1.795076
v 0.048463 1.817256 -1.735896
v 0.159513 2.190752 -1.748602
v -0.007968 2.582820 -1.800157
v 0.009059 2.594241 -1.723992
v -0.074849 2.180607 -1.683498
v -0.062876 2.186441 -1.633377
v 0.061419 2.555844 -1.730871
v 0.002585 2.601895 -1.723943
v 0.081073 2.598818 -1.717813
v -0.058589 0.539603 -1.698118
v -0.013160 0.541572 -1.807604
v 0.078333 0.547999 -1.641201
v 0.123763 0.549969 -1.750687
v 0.023990 0.492296 -1.765127
v -0.005811 0.510975 -1.683471
v 0.083904 0.515051 -1.697755
v -0.005811 0.510975 -1.683471
v 0.023990 0.492296 -1.765127
v -0.036402 0.537722 -1.756089
v 0.023990 0.492296 -1.765127
v 0.083904 0.515051 -1.697755
v 0.120889 0.553401 -1.748362
v -0.025295 1.046573 -1.711864
v 0.118659 1.107440 -1.728578
v -0.009851 0.899221 -1.709349
v 0.101941 0.912366 -1.713042
v 0.090064 2.047010 -1.750263
v 0.119514 2.158948 -1.751311
v 0.276150 2.022332 -1.672076
v 0.300880 2.130696 -1.674030
v 0.325215 2.124676 -1.737529
v 0.299672 2.012206 -1.734933
v 0.300880 2.130696 -1.674030
v 0.276150 2.022332 -1.672076
v -0.029115 2.134550 -1.670028
v 0.008082 2.165932 -1.674325
v -0.029890 2.165125 -1.708120
v -0.061087 2.142088 -1.666167
v -0.029890 2.165125 -1.708120
v -0.074849 2.180607 -1.683498
v -0.061087 2.142088 -1.666167
v -0.029115 2.134550 -1.670028
v -0.029890 2.165125 -1.708120
v 0.009059 2.594241 -1.723992
v 0.086960 2.584837 -1.715670
v -0.062876 2.186441 -1.633377
v -0.011564 2.181952 -1.627173
v 0.086960 2.584837 -1.715670
v 0.114563 2.566146 -1.784431
v -0.011564 2.181952 -1.627173
v 0.008082 2.165932 -1.674325
v 0.099769 0.454546 -1.615608
v -0.151695 0.462934 -1.705969
v -0.058589 0.539603 -1.698118
v 0.125051 0.306542 -1.621462
v -0.186975 0.306066 -1.709582
v -0.151695 0.462934 -1.705969
v 0.078333 0.547999 -1.641201
v 0.123763 0.549969 -1.750687
v 0.099769 0.454546 -1.615608
v 0.158180 0.457078 -1.756375
v 0.173726 0.308652 -1.738767
v 0.125051 0.306542 -1.621462
v 0.158180 0.457078 -1.756375
v 0.099769 0.454546 -1.615608
v -0.005811 0.510975 -1.683471
v -0.036402 0.537722 -1.756089
v -0.003458 0.561510 -1.675749
v 0.092505 0.571191 -1.670595
v 0.083904 0.515051 -1.697755
v -0.005811 0.510975 -1.683471
v -0.005811 0.510975 -1.683471
v -0.003458 0.561510 -1.675749
v 0.092505 0.571191 -1.670595
v 0.083904 0.515051 -1.697755
v 0.092505 0.571191 -1.670595
v 0.120889 0.553401 -1.748362
v -0.009851 0.899221 -1.709349
v 0.101941 0.912366 -1.713042
v -0.003458 0.561510 -1.675749
v 0.092505 0.571191 -1.670595
v -0.025434 2.201196 -1.606662
v -0.098212 2.199649 -1.671435
v 0.021196 2.158533 -1.657972
v -0.051583 2.156986 -1.722746
v -0.145545 1.959291 -1.669858
v -0.029412 1.971295 -1.577565
v -0.051583 2.156986 -1.722746
v 0.021196 2.158533 -1.657972
v -0.206703 2.042354 -1.603213
v -0.145545 1.959291 -1.669858
v -0.098212 2.199649 -1.671435
v -0.051583 2.156986 -1.722746
v -0.061087 2.142088 -1.666167
v -0.029444 2.142761 -1.638004
v -0.029115 2.134550 -1.670028
v -0.061087 2.142088 -1.666167
v -0.074849 2.180607 -1.683498
v -0.062876 2.186441 -1.633377
v -0.029444 2.142761 -1.638004
v -0.061087 2.142088 -1.666167
v -0.062876 2.186441 -1.633377
v 0.008082 2.165932 -1.674325
v -0.029115 2.134550 -1.670028
v -0.029444 2.142761 -1.638004
v -0.029444 2.142761 -1.638004
v -0.011564 2.181952 -1.627173
v 0.008082 2.165932 -1.674325
v -0.058589 0.539603 -1.698118
v 0.078333 0.547999 -1.641201
v 0.099769 0.454546 -1.615608
v -0.151695 0.462934 -1.705969
v 0.099769 0.454546 -1.615608
v 0.125051 0.306542 -1.621462
v -0.029444 2.142761 -1.638004
v -0.062876 2.186441 -1.633377
v -0.011564 2.181952 -1.627173
v -0.029412 1.971295 -1.577565
v -0.090570 2.054357 -1.510920
v 0.021196 2.158533 -1.657972
v -0.025434 2.201196 -1.606662
v -0.090570 2.054357 -1.510920
v -0.206703 2.042354 -1.603213
v -0.025434 2.201196 -1.606662
v -0.098212 2.199649 -1.671435
v -0.145545 1.959291 -1.669858
v -0.206703 2.042354 -1.603213
v -0.029412 1.971295 -1.577565
v -0.090570 2.054357 -1.510920
vn 0.5837 0.1860 -0.7904
vn -0.6670 0.1210 -0.7352
vn -0.2080 0.9600 -0.1875
vn -0.0073 -0.9986 -0.0533
vn 0.3963 -0.7718 -0.4972
vn -0.8461 0.0904 0.5253
vn 0.4950 0.5716 -0.6544
vn -0.8642 0.1901 -0.4660
vn 0.8131 0.1052 -0.5726
vn -0.0106 -0.0826 -0.9965
vn 0.7506 0.2855 -0.5959
vn -0.4418 0.7728 -0.4556
vn -0.0291 0.0337 -0.9990
vn 0.7969 -0.0072 0.6041
vn -0.2372 0.8728 0.4265
vn -0.5328 -0.4123 0.7390
vn 0.1623 -0.9318 -0.3246
vn 0.8954 -0.1838 -0.4056
vn 0.5035 -0.4058 -0.7628
vn -0.7818 -0.4654 -0.4149
vn -0.6349 -0.7516 -0.1789
vn 0.7719 -0.0232 -0.6353
vn 0.0079 -0.9993 -0.0364
vn -0.0479 0.0840 -0.9953
vn 0.0930 0.0898 -0.9916
vn -0.2819 -0.7729 -0.5685
vn 0.9050 -0.1125 -0.4102
vn 0.0422 0.0774 -0.9961
vn 0.0554 0.0329 -0.9979
vn -0.0027 0.2684 -0.9633
vn 0.3156 -0.8166 0.4833
vn 0.6317 -0.5375 0.5587
vn -0.4022 -0.7655 0.5022
vn -0.0782 0.2924 -0.9531
vn -0.7146 0.3084 0.6279
vn 0.7299 0.1621 -0.6640
vn -0.6422 0.0779 0.7625
vn -0.0461 0.9989 -0.0060
vn 0.2849 -0.9568 -0.0589
vn -0.2849 0.9568 0.0589
vn -0.9407 -0.3345 -0.0573
vn -0.8662 -0.4721 -0.1640
vn 0.8841 -0.4229 -0.1989
vn -0.9673 -0.2316 -0.1034
vn 0.9176 0.1475 -0.3690
vn 0.0040 0.1664 -0.9860
vn -0.4665 -0.5079 -0.7242
vn 0.7258 -0.5115 -0.4599
vn 0.9167 0.2405 -0.3190
vn -0.9432 -0.1009 -0.3166
vn 0.6901 -0.3343 0.6419
vn -0.3483 -0.6630 0.6627
vn 0.0375 -0.8299 0.5567
vn -0.9419 -0.3179 -0.1087
vn 0.9289 0.0623 -0.3650
vn 0.7444 0.5335 -0.4015
vn -0.1088 0.1172 -0.9871
vn 0.0643 -0.9505 -0.3039
vn -0.9981 -0.0191 -0.0586
vn 0.6813 -0.6205 -0.3883
vn 0.6097 -0.2069 0.7652
vn -0.5414 -0.4033 0.7377
vn 0.0443 -0.2962 -0.9541
vn 0.4948 -0.6346 -0.5937
vn -0.6995 0.1206 0.7044
vn -0.7097 -0.0822 0.6997
vn 0.6356 0.2823 0.7186
vn -0.9405 -0.2837 -0.1870
vn 0.6659 -0.0024 0.7460
vn -0.9703 -0.1151 -0.2128
vn 0.6357 -0.6114 0.4713
vn -0.2498 -0.8741 0.4167
vn -0.1279 -0.9308 0.3424
vn -0.6316 0.2113 -0.7459
vn -0.0088 -0.9764 -0.2160
vn 0.9162 -0.0242 -0.3999
vn -0.1067 0.9629 0.2480
vn 0.2363 -0.9445 -0.2282
vn 0.9084 -0.2787 -0.3117
vn -0.6321 -0.6689 -0.3912
vn -0.4136 -0.8987 -0.1458
vn -0.0612 0.2365 -0.9697
vn 0.6643 0.0919 0.7418
vn -0.5506 -0.2595 0.7934
vn -0.4191 -0.2853 0.8619
vn -0.9753 -0.1898 -0.1126
vn 0.7975 0.1436 -0.5860
vn -0.1923 0.2473 -0.9497
vn -0.1622 0.9318 0.3246
vn 0.3214 -0.8635 0.3887
vn 0.6402 -0.5663 0.5191
vn -0.2974 -0.8356 0.4618
vn 0.9185 0.3093 -0.2464
vn -0.9299 -0.1767 -0.3225
vn 0.6774 -0.0698 0.7323
vn -0.3567 -0.4273 0.8308
vn 0.5123 0.4981 0.6996
vn -0.5664 0.0040 0.8241
vn -0.0602 0.5971 -0.7999
vn 0.4910 -0.0594 -0.8691
vn -0.8036 -0.1440 0.5775
vn -0.0032 0.9656 0.2601
vn 0.6226 -0.3260 0.7114
vn 0.9249 0.0867 -0.3701
vn 0.6898 -0.3397 0.6394
vn -0.3966 -0.3980 0.8272
vn -0.3740 -0.0406 -0.9265
vn -0.3410 -0.0018 -0.9401
vn 0.2936 0.8396 -0.4571
vn 0.6977 0.6804 -0.2244
vn -0.8721 0.3671 -0.3236
vn 0.5991 -0.0578 0.7985
vn -0.5480 -0.3704 0.7500
vn -0.0643 0.9505 0.3039
vn -0.9680 0.0067 -0.2508
vn 0.3355 0.6211 -0.7083
vn 0.6755 0.2898 -0.6781
vn -0.2363 0.9445 0.2282
vn -0.7298 0.6561 0.1924
vn 0.5427 -0.0785 -0.8362
vn 0.4846 -0.4188 -0.7680
vn 0.7080 0.1491 -0.6902
vn -0.0463 -0.9719 -0.2309
vn 0.5573 0.5544 -0.6181
vn -0.1654 -0.8590 -0.4846
vn 0.6073 -0.6222 -0.4940
vn -0.0496 0.7008 0.7117
vn 0.5135 0.4538 0.7283
vn -0.5772 0.3783 0.7237
vn -0.5414 -0.0713 -0.8377
vn 0.5249 -0.0602 -0.8491
vn 0.4861 -0.4173 -0.7678
vn 0.5551 0.1300 -0.8216
vn -0.0015 0.9614 0.2752
vn -0.7227 -0.1439 0.6760
vn -0.0766 -0.8983 -0.4327
vn 0.7571 0.2309 -0.6112
vn -0.7874 -0.5909 -0.1754
vn -0.8386 -0.5447 -0.0095
vn 0.3123 0.7048 -0.6369
vn 0.5548 0.1288 -0.8219
vn -0.5415 -0.0711 -0.8377
vn 0.4796 0.3498 -0.8048
vn -0.4578 -0.2696 -0.8472
vn -0.1424 0.4274 -0.8928
vn 0.3132 -0.4019 -0.8605
vn -0.2672 -0.2458 -0.9318
vn -0.5339 0.1732 -0.8276
vn 0.5670 0.1993 -0.7992
vn -0.1752 -0.8615 -0.4766
vn -0.5420 -0.8250 0.1600
vn -0.3617 0.5303 -0.7668
vn -0.9013 -0.3463 -0.2604
vn -0.5550 -0.7386 -0.3826
vn 0.6902 -0.1971 0.6962
vn -0.8106 0.1495 -0.5662
vn -0.8111 -0.1447 -0.5667
vn -0.3379 -0.6330 -0.6965
vn -0.6464 -0.0822 -0.7586
vn 0.5888 -0.1291 -0.7979
vn -0.5180 0.4059 -0.7529
vn -0.4517 -0.8890 -0.0750
vn -0.8857 0.4100 0.2178
vn -0.3283 -0.1859 -0.9261
vn 0.7127 -0.0704 -0.6979
vn -0.8340 0.0306 -0.5509
vn -0.5316 0.7778 -0.3352
vn -0.8341 0.0233 -0.5512
vn 0.6864 -0.2867 0.6683
vn -0.4216 -0.3081 0.8528
vn -0.5428 -0.7551 -0.3678
vn 0.2424 0.9518 -0.1879
vn -0.5507 -0.6348 -0.5420
vn -0.9440 -0.2956 -0.1464
vn 0.1446 -0.9788 -0.1451
vn -0.9858 -0.0841 -0.1454
vn -0.5492 0.7473 0.3741
vn 0.3122 -0.8986 -0.3082
vn -0.9773 -0.2115 0.0105
vn 0.8708 0.0513 -0.4889
vn -0.0635 -0.9960 -0.0630
vn -0.1204 0.9880 -0.0972
vn -0.5612 -0.6378 -0.5276
vn 0.9707 -0.1836 -0.1548
vn 0.1019 0.7795 -0.6181
vn 0.9014 0.2028 -0.3827
vn -0.9094 0.3897 -0.1454
vn -0.9718 0.1720 -0.1616
vn -0.0488 -0.9878 0.1477
vn 0.5546 0.0915 -0.8271
vn 0.9368 -0.2993 -0.1810
vn 0.3979 0.9172 0.0196
vn -0.9846 -0.0339 -0.1713
vn -0.9509 -0.2697 0.1521
vn -0.8962 -0.4431 -0.0220
vn 0.8770 0.1461 -0.4577
vn -0.8548 0.5187 0.0156
vn 0.8239 -0.1678 0.5414
vn -0.8174 0.2105 -0.5362
vn 0.0635 0.9960 0.0630
vn -0.0383 -0.9992 -0.0126
vn 0.5640 0.7318 0.3824
vn -0.5471 -0.7619 -0.3467
vn -0.8541 -0.5071 -0.1154
vn -0.1318 -0.9179 0.3744
vn -0.6706 -0.4150 0.6149
vn 0.8115 -0.5780 0.0860
vn 0.7607 -0.4207 0.4943
vn -0.5910 -0.0117 -0.8066
vn 0.6283 -0.2567 -0.7344
vn -0.4779 0.6737 0.5637
vn -0.4898 0.2316 0.8405
vn -0.0584 0.9404 0.3350
vn -0.5409 0.0945 0.8358
vn -0.8896 -0.4430 -0.1115
vn 0.3491 0.8948 0.2785
vn -0.6059 -0.0934 0.7901
vn 0.1287 -0.9896 0.0643
vn -0.5282 0.1785 0.8301
vn 0.8339 -0.0377 0.5507
vn -0.5451 0.0574 0.8364
vn 0.1923 0.9696 -0.1516
vn -0.9985 -0.0537 -0.0140
vn -0.5311 -0.8465 0.0358
vn 0.8067 0.2086 0.5529
vn 0.7253 -0.4683 0.5046
vn 0.6468 -0.0576 -0.7605
vn 0.7373 -0.1999 -0.6453
vn 0.1487 -0.1847 -0.9715
vn 0.0229 -0.3802 -0.9246
vn -0.5173 -0.7619 -0.3898
vn -0.5061 -0.1385 0.8513
vn 0.1756 0.9044 0.3890
vn -0.6905 -0.6424 -0.3324
vn -0.4730 -0.5161 0.7141
vn -0.4989 -0.4874 0.7166
vn 0.1459 0.9823 0.1172
vn -0.5446 -0.1446 -0.8261
vn -0.4866 -0.1861 -0.8536
vn 0.5923 -0.3586 -0.7215
vn -0.5008 0.6597 0.5604
vn -0.9991 0.0117 0.0396
vn -0.8252 -0.3505 0.4430
vn -0.8235 -0.3939 0.4083
vn -0.5766 0.2985 0.7606
vn -0.8380 -0.4637 -0.2875
vn 0.4042 -0.5798 0.7074
vn -0.9531 -0.0860 -0.2901
vn -0.0638 -0.9960 -0.0632
vn 0.6617 0.5994 0.4503
vn 0.7982 0.2643 0.5413
vn -0.5595 -0.1109 0.8214
vn 0.8337 0.0196 0.5518
vn -0.4643 -0.0497 -0.8843
vn 0.3477 -0.8425 -0.4113
vn -0.4495 -0.8878 0.0990
vn 0.5356 0.4583 -0.7094
vn -0.5637 0.2869 -0.7745
vn -0.0270 0.6518 -0.7579
vn -0.4194 -0.0741 0.9047
vn -0.7047 -0.6388 -0.3088
vn 0.2334 -0.1891 0.9538
vn -0.9615 -0.0728 -0.2651
vn -0.1041 0.1130 0.9881
vn 0.8340 -0.0309 0.5509
vn -0.3945 -0.3078 -0.8658
vn -0.5194 -0.2626 -0.8132
vn -0.0838 0.9643 -0.2512
vn 0.5451 0.0512 -0.8368
vn -0.9193 0.0873 0.3838
vn -0.8532 -0.4812 -0.2013
vn 0.3426 -0.8774 -0.3357
vn -0.9700 0.1703 0.1734
vn 0.9182 -0.1455 0.3684
vn -0.3233 0.5944 0.7364
vn 0.0609 0.9512 -0.3026
vn -0.8216 0.5495 0.1517
vn 0.6003 0.7565 -0.2593
vn -0.2416 -0.2465 0.9386
vn 0.1938 -0.3205 0.9272
vn 0.0486 0.1688 0.9845
vn -0.0187 0.1767 0.9841
vn -0.5549 -0.1083 0.8248
vn -0.9544 0.0444 0.2952
vn -0.1923 -0.9696 0.1516
vn 0.7774 -0.4890 0.3956
vn 0.8706 -0.3035 0.3872
vn -0.4638 0.8012 0.3780
vn 0.7788 0.5449 0.3108
vn 0.6715 -0.3184 -0.6691
vn -0.5455 -0.2486 -0.8004
vn -0.4051 0.0166 0.9141
vn -0.1310 -0.1186 0.9843
vn 0.1876 0.1232 -0.9745
vn -0.8716 0.0451 0.4882
vn -0.4400 -0.3218 -0.8383
vn 0.6512 -0.3742 -0.6603
vn -0.8951 0.2618 0.3609
vn -0.0571 -0.5947 0.8019
vn -0.0952 -0.5259 0.8452
vn -0.2363 -0.6041 0.7611
vn -0.3349 0.3175 0.8872
vn -0.1265 0.6850 0.7174
vn -0.9228 0.0504 -0.3820
vn 0.8321 0.5232 0.1840
vn 0.2358 -0.1043 -0.9662
vn -0.0016 0.0683 0.9977
vn -0.0693 -0.0233 0.9973
vn -0.9675 0.1550 0.2000
vn 0.9245 0.0421 0.3789
vn 0.3309 0.3993 -0.8550
vn 0.5113 0.1260 -0.8501
vn -0.2820 0.9542 -0.0999
vn -0.0151 -0.9996 -0.0242
vn 0.6515 -0.2386 -0.7201
vn -0.9484 0.0411 0.3145
vn -0.4497 -0.2156 -0.8668
vn -0.9405 0.1670 -0.2958
vn 0.1526 0.9846 -0.0849
vn -0.1469 -0.9854 0.0866
vn 0.1572 0.9671 -0.1998
vn 0.4817 -0.8106 -0.3332
vn -0.4646 -0.7329 -0.4970
vn -0.1375 -0.9362 -0.3235
vn -0.0583 0.3409 0.9383
vn 0.4227 0.2106 -0.8815
vn 0.4233 -0.0629 -0.9038
vn 0.5380 -0.2131 -0.8156
vn -0.9331 -0.0919 0.3478
vn 0.9342 -0.0520 0.3529
vn -0.0267 0.5056 0.8623
vn 0.3573 -0.0983 -0.9288
vn 0.9167 -0.2623 0.3014
vn 0.1365 0.9748 -0.1767
vn 0.6252 -0.3572 -0.6939
vn -0.4983 -0.1615 -0.8518
vn -0.0609 -0.9512 0.3026
vn -0.8790 -0.3705 0.3003
vn -0.4140 -0.6280 0.6590
vn 0.5457 -0.8042 0.2356
vn 0.7144 -0.4811 0.5082
vn -0.5733 0.0923 0.8141
vn -0.6055 0.7596 -0.2376
vn 0.0059 -0.9999 -0.0155
vn -0.4361 -0.4216 -0.7950
vn 0.5028 -0.6370 -0.5843
vn -0.9188 0.0218 0.3940
vn 0.9405 0.0162 0.3395
vn 0.1696 0.9814 -0.0902
vn -0.1905 -0.9779 0.0862
vn -0.2392 0.1049 0.9653
vn -0.9599 0.2126 0.1827
vn -0.0852 -0.2538 0.9635
vn -0.0586 0.9983 -0.0064
vn 0.0838 -0.9643 0.2512
vn -0.6043 -0.7958 -0.0385
vn 0.5473 -0.8093 -0.2133
vn 0.0850 0.0719 0.9938
vn -0.3731 0.1068 0.9216
vn 0.9073 -0.1975 0.3713
vn 0.5017 -0.6696 -0.5477
vn -0.5421 -0.4982 -0.6767
vn -0.2514 -0.7573 -0.6028
vn -0.0757 0.2315 0.9699
vn 0.9071 -0.1313 0.3998
vn -0.3151 0.2901 0.9037
vn -0.2716 0.0389 0.9616
vn 0.8783 0.3028 0.3699
vn 0.9135 0.1409 0.3816
vn -0.9235 -0.0156 0.3833
vn 0.1603 -0.4497 0.8787
vn -0.0380 -0.1492 0.9881
vn 0.8639 -0.3204 0.3886
vn 0.0183 0.1229 0.9922
vn 0.3384 0.8515 -0.4005
vn 0.5820 -0.4566 -0.6729
vn -0.6576 0.1133 -0.7448
vn -0.1949 -0.9506 0.2417
vn -0.9418 -0.2235 0.2510
vn -0.5683 -0.5038 0.6505
vn 0.6455 -0.7382 0.1959
vn 0.7463 -0.4706 0.4708
vn -0.3872 0.1598 0.9080
vn -0.3394 -0.0950 0.9358
vn -0.1352 -0.2061 0.9691
vn 0.7728 0.0623 0.6315
vn -0.5277 0.6171 0.5837
vn -0.3757 -0.7323 0.5680
vn 0.5730 0.1519 -0.8054
vn -0.0079 -0.9988 -0.0481
vn -0.8505 0.0756 0.5205
vn 0.4796 0.5614 -0.6744
vn -0.8493 0.2194 -0.4802
vn 0.8010 0.0040 0.5986
vn -0.2373 0.8728 0.4265
vn -0.5388 -0.4159 0.7326
vn -0.0301 0.0371 -0.9989
vn -0.0021 -0.0693 -0.9976
vn 0.0073 0.2948 -0.9555
vn -0.9587 -0.2399 -0.1528
vn 0.8958 0.1318 -0.4245
vn 0.9241 0.2380 -0.2990
vn -0.9036 -0.3829 -0.1919
vn 0.9472 0.1250 -0.2953
vn 0.7849 0.5271 -0.3256
vn 0.6281 -0.2026 0.7513
vn 0.0029 -0.9655 -0.2605
vn 0.8957 0.0071 -0.4446
vn -0.0653 0.2363 -0.9695
vn 0.8020 0.1446 -0.5796
vn -0.1218 0.2845 -0.9509
vn 0.9167 0.3091 -0.2532
vn -0.9217 -0.1732 -0.3472
vn -0.3213 -0.3678 0.8727
vn 0.4702 0.5018 0.7260
vn -0.5338 0.0066 0.8456
vn -0.7988 -0.1429 0.5844
vn 0.0129 0.9752 0.2209
vn 0.9017 0.1249 -0.4139
vn -0.4618 -0.4142 0.7843
vn -0.3413 0.0082 -0.9399
vn 0.6189 -0.0538 0.7837
vn -0.9850 0.0164 -0.1718
vn 0.7403 0.2264 -0.6330
vn 0.7246 0.1829 -0.6644
vn -0.0385 -0.9713 -0.2346
vn 0.5511 0.1248 -0.8250
vn 0.0317 0.9758 0.2161
vn -0.8079 0.1556 -0.5684
vn -0.8133 -0.1406 -0.5646
vn -0.8341 0.0233 -0.5511
vn 0.6820 -0.2842 0.6739
vn -0.4714 -0.3268 0.8191
vn -0.5075 -0.7768 -0.3728
vn -0.0310 -0.9994 -0.0129
vn 0.5697 0.7275 0.3824
vn -0.5184 0.0049 -0.8551
vn 0.6165 -0.2618 -0.7426
vn -0.5366 0.1696 0.8266
vn 0.8070 0.2120 0.5512
vn 0.7205 -0.4761 0.5043
vn 0.6365 -0.3451 -0.6897
vn -0.9989 0.0245 0.0389
vn 0.8008 0.2689 0.5353
vn 0.5979 0.0559 -0.7996
vn -0.9354 0.2255 0.2722
vn 0.6734 -0.3185 -0.6672
vn -0.5264 -0.2499 -0.8127
vn 0.1848 0.1156 -0.9759
vn -0.5027 -0.3916 -0.7707
vn 0.6920 -0.3238 -0.6452
vn -0.2998 0.2842 0.9107
vn -0.9228 0.0505 -0.3820
vn 0.2413 -0.1032 -0.9649
vn -0.0462 0.0984 0.9941
vn -0.0004 -0.0611 0.9981
vn -0.9751 0.1510 0.1621
vn 0.9081 0.0485 0.4159
vn -0.0108 -0.9996 -0.0264
vn -0.4603 -0.2183 -0.8605
vn -0.1461 -0.9855 0.0860
vn -0.0599 0.3407 0.9383
vn -0.9167 0.0002 0.3995
vn -0.1166 0.5098 0.8524
vn 0.3544 -0.1019 -0.9295
vn 0.9235 -0.2767 0.2657
vn -0.5157 -0.1585 -0.8420
vn -0.5660 0.1085 0.8172
vn -0.9264 0.0117 0.3764
vn 0.1662 0.9856 -0.0297
vn -0.1438 -0.9892 0.0300
vn -0.2411 0.1045 0.9648
vn -0.9555 0.2137 0.2034
vn 0.0306 0.0203 0.9993
vn -0.3764 0.1025 0.9208
vn 0.9083 -0.2007 0.3671
vn -0.0967 0.2321 0.9679
vn 0.8993 -0.1281 0.4182
vn -0.0632 0.0976 0.9932
vn 0.6000 -0.4471 -0.6634
vn -0.6691 0.1453 -0.7289
vn 0.7679 0.0742 0.6362
vn -0.5313 0.6153 0.5823
vt 0.070154 0.906464
vt 0.020308 0.860310
vt 0.908032 0.393335
vt 0.948925 0.456001
vt 0.908032 0.456001
vt 0.241847 0.814156
vt 0.583489 0.934156
vt 0.646155 0.849717
vt 0.646155 0.934156
vt 0.875413 0.366142
vt 0.880285 0.378737
vt 0.875413 0.379047
vt 0.420924 0.868179
vt 0.358258 0.952618
vt 0.420924 0.952618
vt 0.893644 0.687256
vt 0.956310 0.771694
vt 0.893644 0.771694
vt 0.001846 0.721848
vt 0.001846 0.675694
vt 0.077539 0.629540
vt 0.952409 0.393335
vt 0.993233 0.456001
vt 0.952409 0.456001
vt 0.020308 0.583386
vt 0.897336 0.553847
vt 0.960002 0.469409
vt 0.960002 0.553847
vt 0.132923 0.537232
vt 0.003796 0.967387
vt 0.066462 0.882948
vt 0.066462 0.967387
vt 0.463386 0.491078
vt 0.001846 0.444924
vt 0.044308 0.398770
vt 0.125539 0.352616
vt 0.177231 0.306462
vt 0.001846 0.260308
vt 0.001846 0.214154
vt 0.001846 0.168000
vt 0.009231 0.121846
vt 0.033231 0.075692
vt 0.046154 0.048000
vt 0.238154 0.794644
vt 0.197331 0.900925
vt 0.238154 0.900925
vt 0.048000 0.049846
vt 0.048000 0.044308
vt 0.049846 0.038769
vt 0.044308 0.051692
vt 0.049846 0.042462
vt 0.049846 0.051692
vt 0.049846 0.046154
vt 0.051692 0.035077
vt 0.894446 0.412964
vt 0.887879 0.409193
vt 0.894446 0.397391
vt 0.051692 0.040615
vt 0.051692 0.053539
vt 0.051692 0.044308
vt 0.053539 0.031385
vt 0.051692 0.048000
vt 0.053539 0.036923
vt 0.826871 0.900925
vt 0.867694 0.794644
vt 0.867694 0.900925
vt 0.450254 0.798337
vt 0.491078 0.904617
vt 0.450254 0.904617
vt 0.042462 0.055385
vt 0.053539 0.042462
vt 0.048000 0.055385
vt 0.053539 0.046154
vt 0.053539 0.055385
vt 0.053539 0.049846
vt 0.055385 0.027692
vt 0.044308 0.057231
vt 0.055385 0.033231
vt 0.049846 0.057231
vt 0.055385 0.038769
vt 0.057231 0.024000
vt 0.055385 0.044308
vt 0.057231 0.029539
vt 0.055385 0.048000
vt 0.057231 0.035077
vt 0.055385 0.051692
vt 0.057231 0.040615
vt 0.040615 0.059077
vt 0.873212 0.368838
vt 0.872539 0.383262
vt 0.867596 0.368838
vt 0.894446 0.412964
vt 0.894446 0.397391
vt 0.900237 0.401509
vt 0.898665 0.443046
vt 0.889511 0.430785
vt 0.898665 0.429464
vt 0.051692 0.059077
vt 0.862913 0.454836
vt 0.887189 0.391637
vt 0.887189 0.454836
vt 0.057231 0.053539
vt 0.059077 0.020308
vt 0.042462 0.060923
vt 0.059077 0.025846
vt 0.048000 0.060923
vt 0.972195 0.690665
vt 0.982102 0.726379
vt 0.972195 0.726618
vt 0.994264 0.605361
vt 0.986520 0.595605
vt 0.994339 0.595373
vt 0.059077 0.036923
vt 0.060923 0.022154
vt 0.059077 0.042462
vt 0.060923 0.027692
vt 0.059077 0.048000
vt 0.060923 0.033231
vt 0.038769 0.062769
vt 0.884559 0.390107
vt 0.892552 0.381654
vt 0.892812 0.390107
vt 0.596309 0.496173
vt 0.558200 0.595386
vt 0.558200 0.481535
vt 0.401671 0.552001
vt 0.302457 0.513892
vt 0.416309 0.513892
vt 0.044308 0.062769
vt 0.983195 0.584510
vt 0.973186 0.557109
vt 0.986520 0.556955
vt 0.189565 0.040259
vt 0.208616 0.190154
vt 0.189565 0.190154
vt 0.049846 0.062769
vt 0.040615 0.064616
vt 0.062769 0.012923
vt 0.046154 0.064616
vt 0.062769 0.018462
vt 0.064616 0.009231
vt 0.062769 0.024000
vt 0.064616 0.014769
vt 0.062769 0.029539
vt 0.064616 0.020308
vt 0.062769 0.035077
vt 0.783601 0.848445
vt 0.817848 0.826097
vt 0.817848 0.900925
vt 0.064616 0.025846
vt 0.973262 0.597921
vt 0.981004 0.584797
vt 0.981004 0.598072
vt 0.988198 0.690426
vt 0.993902 0.726789
vt 0.988198 0.723474
vt 0.466489 0.458770
vt 0.485539 0.308875
vt 0.485539 0.458770
vt 0.036923 0.066462
vt 0.064616 0.036923
vt 0.897025 0.941332
vt 0.937848 0.941332
vt 0.897025 0.982156
vt 0.001871 0.268719
vt 0.173539 0.331385
vt 0.173539 0.268719
vt 0.042462 0.066462
vt 0.038769 0.068308
vt 0.048000 0.066462
vt 0.044308 0.068308
vt 0.066462 0.005538
vt 0.068308 0.001846
vt 0.304616 0.487386
vt 0.154720 0.468335
vt 0.304616 0.468335
vt 0.854281 0.144427
vt 0.904617 0.212308
vt 0.904617 0.107101
vt 0.891694 0.904721
vt 0.829028 0.967387
vt 0.891694 0.967387
vt 0.066462 0.011077
vt 0.068308 0.007385
vt 0.033064 0.262154
vt 0.001236 0.208173
vt 0.124616 0.208173
vt 0.120889 0.203793
vt 0.118462 0.205628
vt 0.118462 0.200449
vt 0.400720 0.458770
vt 0.463386 0.308875
vt 0.463386 0.458770
vt 0.849025 0.308308
vt 0.889848 0.202028
vt 0.889848 0.308308
vt 0.841848 0.069751
vt 0.791512 0.001870
vt 0.791512 0.107077
vt 0.068308 0.012923
vt 0.066462 0.022154
vt 0.068308 0.018462
vt 0.066462 0.027692
vt 0.068308 0.024000
vt 0.264924 0.369232
vt 0.115028 0.369232
vt 0.264924 0.284723
vt 0.265847 0.137095
vt 0.211866 0.168923
vt 0.211866 0.045543
vt 0.134804 0.203348
vt 0.132819 0.210587
vt 0.129437 0.203348
vt 0.124651 0.218698
vt 0.129139 0.213310
vt 0.128916 0.218638
vt 0.852717 0.108923
vt 0.893540 0.002643
vt 0.893540 0.108923
vt 0.241490 0.402566
vt 0.391385 0.465232
vt 0.391385 0.402566
vt 0.066462 0.038769
vt 0.468001 0.574640
vt 0.468001 0.659078
vt 0.361720 0.574640
vt 0.591255 0.350770
vt 0.591255 0.244489
vt 0.675694 0.350770
vt 0.675694 0.353413
vt 0.675694 0.459693
vt 0.591255 0.353413
vt 0.677540 0.464182
vt 0.677540 0.570463
vt 0.593102 0.464182
vt 0.140308 0.700196
vt 0.089986 0.768002
vt 0.089986 0.662850
vt 0.408001 0.154720
vt 0.408001 0.304616
vt 0.323493 0.154720
vt 0.681232 0.245412
vt 0.681232 0.351693
vt 0.596794 0.245412
vt 0.001933 0.148072
vt 0.092308 0.002036
vt 0.092308 0.204000
vt 0.624001 0.624001
vt 0.539493 0.624001
vt 0.624001 0.517721
vt 0.068308 0.035077
vt 0.462830 0.997037
vt 0.496479 0.977783
vt 0.525451 0.996625
vt 0.241720 0.640617
vt 0.241720 0.556109
vt 0.348001 0.640617
vt 0.030909 0.852502
vt 0.081231 0.784696
vt 0.081231 0.889848
vt 0.474483 0.504317
vt 0.391294 0.570463
vt 0.527078 0.570463
vt 0.239077 0.664617
vt 0.154639 0.664617
vt 0.239077 0.558336
vt 0.930255 0.069876
vt 0.930255 0.110769
vt 0.971079 0.069876
vt 0.471255 0.681232
vt 0.471255 0.574952
vt 0.555694 0.681232
vt 0.907720 0.108923
vt 0.926771 0.002643
vt 0.926771 0.108923
vt 0.036923 0.072000
vt 0.458770 0.489232
vt 0.308875 0.470181
vt 0.458770 0.470181
vt 0.684647 0.779875
vt 0.725540 0.886156
vt 0.725540 0.779875
vt 0.889848 0.682029
vt 0.827182 0.788310
vt 0.889848 0.788310
vt 0.672001 0.675694
vt 0.587563 0.675694
vt 0.672001 0.569413
vt 0.692309 0.001720
vt 0.692309 0.108000
vt 0.607871 0.001720
vt 0.594566 0.446770
vt 0.594566 0.362262
vt 0.657232 0.446770
vt 0.585024 0.937570
vt 0.585024 0.978464
vt 0.625848 0.937570
vt 0.207582 0.579694
vt 0.154986 0.513547
vt 0.290770 0.513547
vt 0.352490 0.655386
vt 0.458770 0.655386
vt 0.352490 0.570878
vt 0.265847 0.265847
vt 0.094109 0.265847
vt 0.265847 0.159566
vt 0.334258 0.307385
vt 0.334258 0.179262
vt 0.396924 0.307385
vt 0.085027 0.886156
vt 0.147693 0.779875
vt 0.147693 0.886156
vt 0.238154 0.457847
vt 0.088259 0.373409
vt 0.238154 0.373409
vt 0.662771 0.240924
vt 0.578332 0.134643
vt 0.662771 0.134643
vt 0.993233 0.838156
vt 0.952409 0.775490
vt 0.993233 0.775490
vt 0.488642 0.304616
vt 0.507693 0.154720
vt 0.507693 0.304616
vt 0.040615 0.070154
vt 0.607871 0.112616
vt 0.607871 0.006335
vt 0.692309 0.112616
vt 0.145846 0.593413
vt 0.145846 0.699694
vt 0.061408 0.593413
vt 0.095164 0.148072
vt 0.185539 0.204000
vt 0.185539 0.002036
vt 0.042462 0.072000
vt 0.001489 0.334570
vt 0.001489 0.419078
vt 0.151385 0.334570
vt 0.242332 0.753232
vt 0.242332 0.646952
vt 0.326770 0.753232
vt 0.046154 0.070154
vt 0.294462 0.001801
vt 0.188181 0.001801
vt 0.294462 0.173539
vt 0.499400 0.530006
vt 0.555694 0.414912
vt 0.555694 0.557540
vt 0.072000 0.001846
vt 0.217257 0.952618
vt 0.236308 0.911794
vt 0.236308 0.952618
vt 0.738463 0.115258
vt 0.738463 0.221539
vt 0.654025 0.115258
vt 0.330947 0.753232
vt 0.330947 0.646952
vt 0.415386 0.753232
vt 0.723694 0.723694
vt 0.639255 0.723694
vt 0.723694 0.617413
vt 0.756925 0.226028
vt 0.756925 0.332308
vt 0.672486 0.226028
vt 0.513024 0.939417
vt 0.553847 0.939417
vt 0.513024 0.980310
vt 0.001720 0.657232
vt 0.108000 0.657232
vt 0.001720 0.572724
vt 0.070154 0.003692
vt 0.072000 0.005538
vt 0.428309 0.658029
vt 0.428309 0.764309
vt 0.343870 0.658029
vt 0.760617 0.579694
vt 0.676179 0.579694
vt 0.760617 0.473413
vt 0.397847 0.399693
vt 0.397847 0.315185
vt 0.247951 0.399693
vt 0.553467 0.964283
vt 0.595029 0.986914
vt 0.516856 0.987368
vt 0.561717 0.760617
vt 0.561717 0.654336
vt 0.646155 0.760617
vt 0.679871 0.461539
vt 0.679871 0.355259
vt 0.764309 0.461539
vt 0.468716 0.939417
vt 0.509540 0.939417
vt 0.468716 0.980310
vt 0.129437 0.212709
vt 0.124651 0.204261
vt 0.129437 0.203348
vt 0.070154 0.014769
vt 0.002031 0.568617
vt 0.130154 0.527723
vt 0.002031 0.527723
vt 0.072000 0.016615
vt 0.411797 0.304616
vt 0.474463 0.154720
vt 0.474463 0.304616
vt 0.086769 0.768002
vt 0.002331 0.768002
vt 0.086769 0.661721
vt 0.177231 0.775386
vt 0.092793 0.775386
vt 0.177231 0.669106
vt 0.070154 0.020308
vt 0.072000 0.022154
vt 0.771694 0.775386
vt 0.687256 0.775386
vt 0.771694 0.669106
vt 0.070154 0.025846
vt 0.121866 0.193452
vt 0.121866 0.198923
vt 0.488642 0.308875
vt 0.507693 0.458770
vt 0.488642 0.458770
vt 0.154720 0.509540
vt 0.304616 0.490489
vt 0.304616 0.509540
vt 0.698332 0.002643
vt 0.782771 0.002643
vt 0.698332 0.108923
vt 0.259833 0.889425
vt 0.310155 0.926771
vt 0.310155 0.821620
vt 0.786463 0.108923
vt 0.702025 0.108923
vt 0.786463 0.002643
vt 0.945233 0.247888
vt 0.894911 0.210541
vt 0.894911 0.315693
vt 0.432486 0.683875
vt 0.516924 0.683875
vt 0.432486 0.790156
vt 0.518770 0.793848
vt 0.434332 0.793848
vt 0.518770 0.687567
vt 0.914679 0.898291
vt 0.948925 0.950771
vt 0.948925 0.875943
vt 0.070154 0.031385
vt 0.059122 0.420733
vt 0.069269 0.431949
vt 0.059595 0.431819
vt 0.035077 0.073846
vt 0.040615 0.075692
vt 0.038769 0.073846
vt 0.341331 0.957948
vt 0.341331 0.998771
vt 0.382155 0.957948
vt 0.075692 0.001846
vt 0.603694 0.130154
vt 0.519255 0.002101
vt 0.603694 0.002101
vt 0.574155 0.261231
vt 0.533262 0.133108
vt 0.574155 0.133108
vt 0.743027 0.943257
vt 0.777232 0.890750
vt 0.777232 0.965541
vt 0.961848 0.203181
vt 0.920955 0.203181
vt 0.961848 0.265847
vt 0.914679 0.798598
vt 0.948925 0.851079
vt 0.948925 0.776250
vt 0.275077 0.921039
vt 0.240831 0.868558
vt 0.240831 0.943387
vt 0.687256 0.356308
vt 0.687256 0.250028
vt 0.771694 0.356308
vt 0.668413 0.223385
vt 0.731078 0.223385
vt 0.668413 0.138877
vt 0.181408 0.790156
vt 0.181408 0.683875
vt 0.265847 0.790156
vt 0.727871 0.582336
vt 0.812310 0.582336
vt 0.727871 0.688617
vt 0.075870 0.434730
vt 0.069269 0.437898
vt 0.069269 0.419487
vt 0.081570 0.419487
vt 0.081570 0.437898
vt 0.075870 0.426816
vt 0.073846 0.003692
vt 0.075692 0.009231
vt 0.073846 0.007385
vt 0.075692 0.012923
vt 0.854281 0.613351
vt 0.904617 0.576025
vt 0.904617 0.681232
vt 0.268719 0.348924
vt 0.331385 0.177256
vt 0.331385 0.348924
vt 0.313569 0.930567
vt 0.354462 0.930567
vt 0.313569 0.993233
vt 0.817848 0.908116
vt 0.783601 0.930464
vt 0.783601 0.855635
vt 0.771694 0.358951
vt 0.771694 0.465232
vt 0.687256 0.358951
vt 0.823386 0.823386
vt 0.738948 0.823386
vt 0.823386 0.717106
vt 0.522947 0.823386
vt 0.522947 0.717106
vt 0.607386 0.823386
vt 0.742640 0.111566
vt 0.827079 0.111566
vt 0.742640 0.217847
vt 0.761102 0.200182
vt 0.761102 0.306462
vt 0.845540 0.200182
vt 0.764794 0.469721
vt 0.849233 0.576001
vt 0.764794 0.576001
vt 0.775871 0.465232
vt 0.860310 0.358951
vt 0.860310 0.465232
vt 0.295219 0.512789
vt 0.263390 0.566770
vt 0.386770 0.566770
vt 0.297798 0.151385
vt 0.447693 0.001489
vt 0.447693 0.151385
vt 0.073846 0.018462
vt 0.075692 0.016615
vt 0.073846 0.014769
vt 0.075692 0.020308
vt 0.073846 0.024000
vt 0.031385 0.079385
vt 0.823386 0.967387
vt 0.782493 0.967387
vt 0.823386 0.904721
vt 0.775871 0.634029
vt 0.860310 0.634029
vt 0.775871 0.740309
vt 0.681232 0.845540
vt 0.596794 0.845540
vt 0.681232 0.739260
vt 0.845540 0.312001
vt 0.761102 0.312001
vt 0.845540 0.205720
vt 0.849233 0.195693
vt 0.764794 0.195693
vt 0.849233 0.089412
vt 0.424339 0.972925
vt 0.465232 0.910259
vt 0.465232 0.972925
vt 0.035077 0.077539
vt 0.036923 0.079385
vt 0.038769 0.077539
vt 0.040615 0.079385
vt 0.042462 0.077539
vt 0.079385 0.001846
vt 0.077539 0.003692
vt 0.079385 0.005538
vt 0.458770 0.511386
vt 0.308875 0.492335
vt 0.458770 0.492335
vt 0.510796 0.154720
vt 0.529847 0.304616
vt 0.510796 0.304616
vt 0.779079 0.885753
vt 0.728742 0.923079
vt 0.728742 0.817871
vt 0.077539 0.007385
vt 0.079385 0.009231
vt 0.077539 0.011077
vt 0.971079 0.001950
vt 0.971079 0.064616
vt 0.930186 0.001950
vt 0.271870 0.757721
vt 0.356308 0.757721
vt 0.271870 0.864002
vt 0.360486 0.864002
vt 0.360486 0.757721
vt 0.444924 0.864002
vt 0.002331 0.772491
vt 0.086769 0.772491
vt 0.002331 0.878771
vt 0.533097 0.338326
vt 0.587078 0.370155
vt 0.587078 0.246775
vt 0.079385 0.012923
vt 0.077539 0.018462
vt 0.079385 0.016615
vt 0.029539 0.081231
vt 0.031385 0.083077
vt 0.033231 0.081231
vt 0.035077 0.083077
vt 0.038769 0.081231
vt 0.001950 0.002954
vt 0.001950 0.131077
vt 0.064616 0.002954
vt 0.096104 0.002031
vt 0.096104 0.130154
vt 0.158770 0.002031
vt 0.887833 0.381281
vt 0.893552 0.368795
vt 0.892680 0.381654
vt 0.081231 0.003692
vt 0.083077 0.005538
vt 0.081231 0.007385
vt 0.083077 0.009231
vt 0.081231 0.011077
vt 0.027692 0.086769
vt 0.081231 0.014769
vt 0.031385 0.086769
vt 0.151488 0.969233
vt 0.214154 0.906567
vt 0.214154 0.969233
vt 0.029539 0.084923
vt 0.867596 0.390025
vt 0.872433 0.383747
vt 0.872433 0.389544
vt 0.033231 0.084923
vt 0.086769 0.001846
vt 0.510796 0.308875
vt 0.529847 0.458770
vt 0.510796 0.458770
vt 0.036923 0.084923
vt 0.086769 0.005538
vt 0.084923 0.003692
vt 0.025846 0.090462
vt 0.879325 0.360517
vt 0.867419 0.367287
vt 0.867419 0.339049
vt 0.302770 0.932413
vt 0.261877 0.995079
vt 0.302770 0.995079
vt 0.029539 0.090462
vt 0.550816 0.389095
vt 0.588924 0.374457
vt 0.588924 0.488309
vt 0.033231 0.088616
vt 0.912002 0.792798
vt 0.871178 0.899079
vt 0.912002 0.899079
vt 0.962273 0.726332
vt 0.972195 0.690746
vt 0.972195 0.726651
vt 0.962273 0.727015
vt 0.972397 0.743694
vt 0.962273 0.744057
vt 0.986556 0.595079
vt 0.994298 0.585065
vt 0.994298 0.595373
vt 0.031385 0.092308
vt 0.022154 0.097846
vt 0.025846 0.096000
vt 0.027692 0.097846
vt 0.020308 0.099693
vt 0.022154 0.101539
vt 0.024000 0.099693
vt 0.181055 0.552662
vt 0.195693 0.590770
vt 0.081841 0.590770
vt 0.025846 0.101539
vt 0.018462 0.103385
vt 0.020308 0.105231
vt 0.452412 0.151385
vt 0.515078 0.001489
vt 0.515078 0.151385
vt 0.988198 0.723880
vt 0.982102 0.693851
vt 0.987859 0.690426
vt 0.016615 0.108923
vt 0.018462 0.107077
vt 0.020308 0.108923
vt 0.022154 0.107077
vt 0.014769 0.112616
vt 0.018462 0.110769
vt 0.020308 0.112616
vt 0.108923 0.110769
vt 0.900237 0.398591
vt 0.904327 0.407653
vt 0.900237 0.407647
vt 0.952409 0.932413
vt 0.993233 0.995079
vt 0.952409 0.995079
vt 0.110769 0.107077
vt 0.112616 0.103385
vt 0.012923 0.114462
vt 0.313639 0.923079
vt 0.354462 0.816798
vt 0.354462 0.923079
vt 0.494562 0.827875
vt 0.535386 0.934156
vt 0.494562 0.934156
vt 0.852717 0.577847
vt 0.893540 0.471567
vt 0.893540 0.577847
vt 0.153023 0.900925
vt 0.193847 0.794644
vt 0.193847 0.900925
vt 0.996818 0.557485
vt 0.986520 0.584472
vt 0.016615 0.114462
vt 0.014769 0.116308
vt 0.107077 0.114462
vt 0.018462 0.116308
vt 0.112616 0.114462
vt 0.108923 0.116308
vt 0.114462 0.099693
vt 0.001489 0.461643
vt 0.151385 0.524309
vt 0.151385 0.461643
vt 0.995079 0.906463
vt 0.954256 0.843798
vt 0.995079 0.843798
vt 0.116308 0.096000
vt 0.114462 0.105231
vt 0.116308 0.101539
vt 0.114462 0.110769
vt 0.116308 0.107077
vt 0.011077 0.118154
vt 0.884428 0.339049
vt 0.893253 0.363182
vt 0.879325 0.363182
vt 0.889511 0.416880
vt 0.898655 0.429464
vt 0.889511 0.427743
vt 0.883042 0.379047
vt 0.875413 0.387561
vt 0.875969 0.379047
vt 0.107077 0.118154
vt 0.108923 0.120000
vt 0.110769 0.118154
vt 0.120000 0.088616
vt 0.538870 0.934156
vt 0.579694 0.827875
vt 0.579694 0.934156
vt 0.118154 0.092308
vt 0.971079 0.114947
vt 0.908413 0.199385
vt 0.971079 0.199385
vt 0.971079 0.387693
vt 0.908413 0.303255
vt 0.908413 0.387693
vt 0.120000 0.094154
vt 0.118154 0.097846
vt 0.120000 0.099693
vt 0.118154 0.103385
vt 0.011077 0.123693
vt 0.898655 0.411708
vt 0.905221 0.418312
vt 0.896678 0.386979
vt 0.896678 0.370106
vt 0.903514 0.374966
vt 0.107077 0.121846
vt 0.971079 0.558025
vt 0.908413 0.642463
vt 0.971079 0.642463
vt 0.712617 0.974771
vt 0.649951 0.890333
vt 0.649951 0.974771
vt 0.147693 0.892179
vt 0.085027 0.976618
vt 0.147693 0.976618
vt 0.948925 0.393335
vt 0.583489 0.849717
vt 0.884392 0.366699
vt 0.358258 0.868179
vt 0.956310 0.687256
vt 0.993233 0.393335
vt 0.897336 0.469409
vt 0.003796 0.882948
vt 0.197331 0.794644
vt 0.826871 0.794644
vt 0.491078 0.798337
vt 0.889511 0.442038
vt 0.862913 0.391637
vt 0.982102 0.690426
vt 0.986520 0.605564
vt 0.885242 0.381654
vt 0.973186 0.584619
vt 0.208616 0.040259
vt 0.993902 0.693741
vt 0.466489 0.308875
vt 0.001871 0.331385
vt 0.154720 0.487386
vt 0.829028 0.904721
vt 0.400720 0.308875
vt 0.849024 0.202028
vt 0.124651 0.212709
vt 0.852717 0.002643
vt 0.241490 0.465232
vt 0.907720 0.002643
vt 0.308875 0.489232
vt 0.684647 0.886156
vt 0.827182 0.682029
vt 0.085027 0.779875
vt 0.088259 0.457847
vt 0.578332 0.240924
vt 0.952409 0.838156
vt 0.488642 0.154720
vt 0.217257 0.911794
vt 0.124651 0.212192
vt 0.130154 0.568617
vt 0.411797 0.154720
vt 0.118462 0.191749
vt 0.507693 0.308875
vt 0.154720 0.490489
vt 0.519255 0.130154
vt 0.533262 0.261231
vt 0.268719 0.177256
vt 0.849233 0.469721
vt 0.775871 0.358951
vt 0.297798 0.001489
vt 0.424339 0.910259
vt 0.308875 0.511386
vt 0.529847 0.154720
vt 0.884559 0.368795
vt 0.151488 0.906567
vt 0.867596 0.383262
vt 0.529847 0.308875
vt 0.261877 0.932413
vt 0.871178 0.792798
vt 0.962273 0.690426
vt 0.972397 0.726651
vt 0.986520 0.585070
vt 0.452412 0.001489
vt 0.982102 0.727281
vt 0.907842 0.397391
vt 0.993233 0.932413
vt 0.313639 0.816798
vt 0.535386 0.827875
vt 0.852717 0.471567
vt 0.153023 0.794644
vt 0.999544 0.585065
vt 0.001489 0.524309
vt 0.954256 0.906463
vt 0.898655 0.415497
vt 0.883901 0.387561
vt 0.538870 0.827875
vt 0.908413 0.114947
vt 0.971079 0.303255
vt 0.908413 0.558025
vt 0.712617 0.890333
vt 0.085027 0.892179
s 0
usemtl Material.001
f 3/1/1 2/1/1 1/1/1
f 7/2/2 6/2/2 5/2/2
f 11/3/3 10/4/3 9/5/3
f 13/6/4 16/6/4 14/6/4
f 17/7/5 20/8/5 18/9/5
f 21/10/6 24/11/6 22/12/6
f 27/13/7 26/14/7 25/15/7
f 31/16/8 30/17/8 29/18/8
f 33/19/9 35/19/9 34/19/9
f 36/20/10 38/20/10 37/20/10
f 39/21/11 41/21/11 40/21/11
f 44/22/12 43/23/12 42/24/12
f 46/25/13 48/25/13 47/25/13
f 49/26/14 52/27/14 50/28/14
f 55/29/15 54/29/15 53/29/15
f 57/30/16 60/31/16 58/32/16
f 61/33/17 63/33/17 62/33/17
f 64/34/18 66/34/18 65/34/18
f 67/35/19 69/35/19 68/35/19
f 70/36/20 72/36/20 71/36/20
f 73/37/21 75/37/21 74/37/21
f 76/38/22 78/38/22 77/38/22
f 79/39/23 82/39/23 80/39/23
f 83/40/24 85/40/24 84/40/24
f 86/41/25 88/41/25 87/41/25
f 89/42/26 91/42/26 90/42/26
f 92/43/27 94/43/27 93/43/27
f 97/44/28 96/45/28 95/46/28
f 99/47/29 102/47/29 100/47/29
f 103/48/30 105/48/30 104/48/30
f 106/49/31 108/49/31 107/49/31
f 109/50/32 111/50/32 110/50/32
f 112/51/33 114/51/33 113/51/33
f 117/52/34 116/52/34 115/52/34
f 119/53/35 121/53/35 120/53/35
f 122/54/36 124/54/36 123/54/36
f 125/55/37 127/56/37 126/57/37
f 128/58/38 131/58/38 129/58/38
f 132/59/39 134/59/39 133/59/39
f 135/60/40 137/60/40 136/60/40
f 138/61/41 140/61/41 139/61/41
f 141/62/42 143/62/42 142/62/42
f 144/63/43 146/63/43 145/63/43
f 147/64/44 150/65/44 148/66/44
f 153/67/45 152/68/45 151/69/45
f 155/70/46 157/70/46 156/70/46
f 158/71/47 160/71/47 159/71/47
f 161/72/48 163/72/48 162/72/48
f 164/73/49 167/73/49 165/73/49
f 170/74/50 169/74/50 168/74/50
f 172/75/51 174/75/51 173/75/51
f 175/76/52 177/76/52 176/76/52
f 178/77/53 180/77/53 179/77/53
f 181/78/54 184/78/54 182/78/54
f 185/79/55 188/79/55 186/79/55
f 191/80/56 190/80/56 189/80/56
f 193/81/57 195/81/57 194/81/57
f 196/82/58 198/82/58 197/82/58
f 199/83/59 201/83/59 200/83/59
f 202/84/60 204/84/60 203/84/60
f 205/85/61 208/85/61 206/85/61
f 209/86/62 212/86/62 210/86/62
f 213/87/63 215/87/63 214/87/63
f 216/88/64 218/88/64 217/88/64
f 219/89/65 221/90/65 220/91/65
f 222/92/66 224/93/66 223/94/66
f 227/95/67 226/96/67 225/97/67
f 229/98/68 231/98/68 230/98/68
f 232/99/69 235/100/69 233/101/69
f 236/102/40 239/102/40 237/102/40
f 240/103/70 242/103/70 241/103/70
f 243/104/71 245/104/71 244/104/71
f 246/105/72 248/105/72 247/105/72
f 249/106/73 251/106/73 250/106/73
f 254/107/74 253/108/74 252/109/74
f 258/110/75 257/111/75 256/112/75
f 262/113/76 261/113/76 260/113/76
f 264/114/77 266/114/77 265/114/77
f 267/115/78 269/115/78 268/115/78
f 270/116/79 272/116/79 271/116/79
f 273/117/80 275/117/80 274/117/80
f 276/118/81 278/118/81 277/118/81
f 281/119/82 280/119/82 279/119/82
f 285/120/83 284/121/83 283/122/83
f 287/123/84 289/124/84 288/125/84
f 290/126/85 292/127/85 291/128/85
f 293/129/86 295/129/86 294/129/86
f 298/130/87 297/131/87 296/132/87
f 302/133/88 301/134/88 300/135/88
f 304/136/89 307/136/89 305/136/89
f 308/137/90 310/137/90 309/137/90
f 311/138/91 313/138/91 312/138/91
f 314/139/92 316/139/92 315/139/92
f 317/140/93 320/140/93 318/140/93
f 323/141/94 322/141/94 321/141/94
f 327/142/95 326/142/95 325/142/95
f 329/143/96 332/143/96 330/143/96
f 333/144/97 336/144/97 334/144/97
f 339/145/98 338/145/98 337/145/98
f 341/146/99 343/146/99 342/146/99
f 344/147/100 346/148/100 345/149/100
f 349/150/101 348/150/101 347/150/101
f 351/151/102 354/152/102 352/153/102
f 357/154/103 356/155/103 355/156/103
f 359/157/104 362/158/104 360/159/104
f 365/160/105 364/160/105 363/160/105
f 369/161/106 368/161/106 367/161/106
f 371/162/107 373/163/107 372/164/107
f 376/165/108 375/166/108 374/167/108
f 378/168/109 380/168/109 379/168/109
f 381/169/110 383/169/110 382/169/110
f 384/170/111 386/170/111 385/170/111
f 387/171/112 390/171/112 388/171/112
f 391/172/113 394/172/113 392/172/113
f 395/173/114 397/173/114 396/173/114
f 398/174/115 401/175/115 399/176/115
f 402/177/116 404/178/116 403/179/116
f 405/180/117 408/181/117 406/182/117
f 409/183/118 411/183/118 410/183/118
f 412/184/119 414/184/119 413/184/119
f 415/185/120 417/186/120 416/187/120
f 418/188/121 420/189/121 419/190/121
f 421/191/122 424/192/122 422/193/122
f 427/194/123 426/195/123 425/196/123
f 429/197/124 431/198/124 430/199/124
f 432/200/125 434/200/125 433/200/125
f 435/201/126 437/201/126 436/201/126
f 438/202/127 440/202/127 439/202/127
f 441/203/128 443/203/128 442/203/128
f 444/204/129 446/204/129 445/204/129
f 447/205/130 449/206/130 448/207/130
f 450/208/131 452/209/131 451/210/131
f 453/211/132 455/212/132 454/213/132
f 458/214/133 457/215/133 456/216/133
f 462/217/134 461/218/134 460/219/134
f 466/220/135 465/221/135 464/222/135
f 468/223/136 470/223/136 469/223/136
f 471/224/137 473/225/137 472/226/137
f 474/227/138 476/228/138 475/229/138
f 477/230/139 479/231/139 478/232/139
f 480/233/140 482/234/140 481/235/140
f 483/236/141 485/237/141 484/238/141
f 486/239/142 488/240/142 487/241/142
f 489/242/143 491/243/143 490/244/143
f 492/245/144 494/246/144 493/247/144
f 495/248/145 497/249/145 496/250/145
f 498/251/146 500/251/146 499/251/146
f 501/252/147 503/253/147 502/254/147
f 504/255/148 506/256/148 505/257/148
f 507/258/149 509/259/149 508/260/149
f 510/261/150 512/262/150 511/263/150
f 513/264/151 515/265/151 514/266/151
f 516/267/152 518/268/152 517/269/152
f 519/270/153 521/271/153 520/272/153
f 524/273/154 523/274/154 522/275/154
f 526/276/114 529/276/114 527/276/114
f 530/277/155 533/278/155 531/279/155
f 536/280/156 535/281/156 534/282/156
f 538/283/157 541/284/157 539/285/157
f 542/286/158 544/287/158 543/288/158
f 545/289/159 547/290/159 546/291/159
f 548/292/160 550/293/160 549/294/160
f 551/295/161 553/296/161 552/297/161
f 554/298/162 556/299/162 555/300/162
f 557/301/163 559/302/163 558/303/163
f 560/304/164 562/305/164 561/306/164
f 563/307/165 565/308/165 564/309/165
f 568/310/166 567/311/166 566/312/166
f 572/313/167 571/314/167 570/315/167
f 574/316/168 577/317/168 575/318/168
f 578/319/169 581/320/169 579/321/169
f 582/322/170 585/323/170 583/324/170
f 588/325/171 587/325/171 586/325/171
f 590/326/172 592/327/172 591/328/172
f 593/329/173 595/330/173 594/331/173
f 596/332/174 598/333/174 597/334/174
f 599/335/175 601/335/175 600/335/175
f 602/336/176 604/337/176 603/338/176
f 605/339/177 607/340/177 606/341/177
f 608/342/178 610/342/178 609/342/178
f 611/343/179 613/344/179 612/345/179
f 614/346/180 616/347/180 615/348/180
f 617/349/181 620/349/181 618/349/181
f 623/350/182 622/351/182 621/352/182
f 625/353/183 627/354/183 626/355/183
f 628/356/184 630/357/184 629/358/184
f 631/359/185 633/360/185 632/361/185
f 634/362/186 636/363/186 635/364/186
f 637/365/187 639/366/187 638/367/187
f 640/368/188 642/369/188 641/370/188
f 643/371/189 645/371/189 644/371/189
f 646/372/190 649/372/190 647/372/190
f 650/373/191 652/374/191 651/375/191
f 653/376/192 655/377/192 654/378/192
f 656/379/193 658/380/193 657/381/193
f 659/382/194 661/383/194 660/384/194
f 662/385/195 664/386/195 663/387/195
f 665/388/196 667/389/196 666/390/196
f 668/391/197 670/392/197 669/393/197
f 671/394/198 674/395/198 672/396/198
f 675/397/199 678/397/199 676/397/199
f 681/398/200 680/399/200 679/400/200
f 683/401/201 686/401/201 684/401/201
f 689/402/202 688/403/202 687/404/202
f 691/405/203 693/406/203 692/407/203
f 694/408/204 696/409/204 695/410/204
f 697/411/205 699/411/205 698/411/205
f 700/412/206 702/412/206 701/412/206
f 703/413/207 705/414/207 704/415/207
f 708/416/200 707/416/200 706/416/200
f 712/190/208 711/417/208 710/418/208
f 716/419/209 715/420/209 714/421/209
f 720/422/210 719/423/210 718/424/210
f 722/425/211 724/426/211 723/427/211
f 725/428/212 727/429/212 726/430/212
f 728/431/213 730/432/213 729/433/213
f 731/434/214 733/435/214 732/436/214
f 734/437/215 736/438/215 735/439/215
f 737/440/216 739/441/216 738/442/216
f 740/443/217 742/444/217 741/445/217
f 745/446/218 744/446/218 743/446/218
f 747/447/219 750/448/219 748/449/219
f 751/450/220 754/450/220 752/450/220
f 757/451/221 756/451/221 755/451/221
f 759/452/222 762/452/222 760/452/222
f 763/453/223 765/454/223 764/455/223
f 766/456/224 768/456/224 767/456/224
f 769/457/225 772/458/225 770/459/225
f 773/460/226 776/461/226 774/462/226
f 777/463/227 779/464/227 778/465/227
f 780/466/228 782/467/228 781/468/228
f 783/469/229 785/470/229 784/471/229
f 786/472/230 788/473/230 787/474/230
f 789/475/231 791/476/231 790/477/231
f 792/478/232 794/479/232 793/480/232
f 795/481/233 797/482/233 796/483/233
f 798/484/234 800/485/234 799/486/234
f 801/487/235 803/488/235 802/489/235
f 804/490/236 806/491/236 805/492/236
f 809/493/237 808/493/237 807/493/237
f 811/494/238 813/494/238 812/494/238
f 814/495/239 816/495/239 815/495/239
f 819/496/240 818/496/240 817/496/240
f 821/497/241 823/498/241 822/499/241
f 824/500/242 827/501/242 825/502/242
f 828/503/243 830/504/243 829/505/243
f 831/506/244 833/507/244 832/508/244
f 834/509/245 836/510/245 835/511/245
f 837/512/246 839/513/246 838/514/246
f 840/515/247 842/516/247 841/517/247
f 843/518/248 845/519/248 844/520/248
f 846/521/249 848/522/249 847/523/249
f 851/524/250 850/525/250 849/526/250
f 853/527/251 856/528/251 854/529/251
f 857/530/252 859/531/252 858/532/252
f 860/533/253 863/534/253 861/535/253
f 864/536/254 866/536/254 865/536/254
f 867/537/255 869/537/255 868/537/255
f 870/538/256 872/538/256 871/538/256
f 873/539/257 875/539/257 874/539/257
f 876/540/258 878/540/258 877/540/258
f 879/541/259 881/541/259 880/541/259
f 882/542/260 884/543/260 883/544/260
f 885/545/261 887/546/261 886/547/261
f 888/548/262 890/549/262 889/550/262
f 891/551/263 893/552/263 892/553/263
f 894/554/264 896/555/264 895/556/264
f 897/557/265 900/558/265 898/559/265
f 901/560/266 903/560/266 902/560/266
f 904/561/267 906/561/267 905/561/267
f 907/562/268 910/562/268 908/562/268
f 913/563/269 912/563/269 911/563/269
f 915/564/222 917/564/222 916/564/222
f 918/565/270 920/565/270 919/565/270
f 921/566/271 923/566/271 922/566/271
f 924/567/272 926/567/272 925/567/272
f 927/568/273 930/569/273 928/570/273
f 933/571/274 932/572/274 931/573/274
f 935/574/275 937/575/275 936/576/275
f 938/577/276 940/577/276 939/577/276
f 941/578/277 943/578/277 942/578/277
f 944/579/278 946/579/278 945/579/278
f 947/580/279 949/581/279 948/582/279
f 950/583/280 952/584/280 951/585/280
f 953/586/281 955/587/281 954/588/281
f 956/589/282 958/590/282 957/591/282
f 959/592/283 961/593/283 960/594/283
f 962/595/284 964/595/284 963/595/284
f 965/596/285 967/596/285 966/596/285
f 968/597/286 970/597/286 969/597/286
f 973/598/287 972/598/287 971/598/287
f 975/599/288 977/599/288 976/599/288
f 978/600/289 980/600/289 979/600/289
f 981/601/290 984/601/290 982/601/290
f 987/602/291 986/602/291 985/602/291
f 989/603/292 991/604/292 990/605/292
f 992/606/293 994/607/293 993/608/293
f 995/609/294 998/610/294 996/611/294
f 999/612/268 1001/612/268 1000/612/268
f 1002/613/295 1004/613/295 1003/613/295
f 1005/614/296 1008/614/296 1006/614/296
f 1009/615/297 1012/615/297 1010/615/297
f 1013/616/298 1015/616/298 1014/616/298
f 1016/617/299 1018/617/299 1017/617/299
f 1019/618/300 1021/618/300 1020/618/300
f 1022/619/301 1024/619/301 1023/619/301
f 1027/620/302 1026/621/302 1025/622/302
f 1029/623/303 1031/623/303 1030/623/303
f 1032/624/304 1035/625/304 1033/626/304
f 1036/627/305 1039/627/305 1037/627/305
f 1040/628/306 1043/628/306 1041/628/306
f 1046/629/307 1045/630/307 1044/631/307
f 1050/632/308 1049/632/308 1048/632/308
f 1054/633/309 1053/633/309 1052/633/309
f 1056/634/310 1059/634/310 1057/634/310
f 1060/635/311 1062/635/311 1061/635/311
f 1063/636/312 1065/637/312 1064/638/312
f 1068/639/313 1067/640/313 1066/641/313
f 1070/642/314 1073/642/314 1071/642/314
f 1074/643/315 1076/644/315 1075/645/315
f 1077/646/316 1079/646/316 1078/646/316
f 1082/647/317 1081/648/317 1080/649/317
f 1086/650/318 1085/651/318 1084/652/318
f 1088/653/319 1091/654/319 1089/655/319
f 1094/656/320 1093/657/320 1092/658/320
f 1096/659/321 1099/659/321 1097/659/321
f 1100/660/322 1102/660/322 1101/660/322
f 1103/661/323 1105/661/323 1104/661/323
f 1106/662/324 1108/662/324 1107/662/324
f 1109/663/325 1112/663/325 1110/663/325
f 1113/664/326 1115/664/326 1114/664/326
f 1116/665/327 1118/665/327 1117/665/327
f 1119/666/328 1121/667/328 1120/668/328
f 1122/669/329 1125/669/329 1123/669/329
f 1128/670/330 1127/670/330 1126/670/330
f 1132/671/331 1131/671/331 1130/671/331
f 1134/672/332 1137/673/332 1135/674/332
f 1138/675/333 1141/676/333 1139/677/333
f 1142/678/334 1144/678/334 1143/678/334
f 1145/679/335 1148/679/335 1146/679/335
f 1151/680/336 1150/680/336 1149/680/336
f 1153/681/337 1155/681/337 1154/681/337
f 1156/682/338 1158/682/338 1157/682/338
f 1159/683/339 1161/683/339 1160/683/339
f 1162/684/340 1164/684/340 1163/684/340
f 1165/685/341 1167/685/341 1166/685/341
f 1170/686/342 1169/687/342 1168/688/342
f 1174/689/343 1173/690/343 1172/691/343
f 1176/692/344 1179/692/344 1177/692/344
f 1180/693/345 1182/693/345 1181/693/345
f 1183/694/346 1185/694/346 1184/694/346
f 1186/695/347 1189/696/347 1187/697/347
f 1192/698/348 1191/699/348 1190/700/348
f 1196/701/349 1195/702/349 1194/703/349
f 1200/704/350 1199/705/350 1198/706/350
f 1204/707/351 1203/708/351 1202/132/351
f 1208/709/352 1207/709/352 1206/709/352
f 1210/710/353 1212/710/353 1211/710/353
f 1215/711/354 1214/711/354 1213/711/354
f 1217/712/355 1219/712/355 1218/712/355
f 1220/713/356 1222/713/356 1221/713/356
f 1223/714/357 1225/714/357 1224/714/357
f 1226/715/358 1229/715/358 1227/715/358
f 1232/716/359 1231/717/359 1230/718/359
f 1234/719/360 1237/720/360 1235/721/360
f 1238/722/361 1240/722/361 1239/722/361
f 1241/723/362 1243/723/362 1242/723/362
f 1244/724/363 1246/724/363 1245/724/363
f 1247/725/364 1250/725/364 1248/725/364
f 1251/726/365 1254/726/365 1252/726/365
f 1255/727/366 1257/727/366 1256/727/366
f 1258/728/367 1260/729/367 1259/730/367
f 1261/731/368 1264/732/368 1262/733/368
f 1265/734/369 1268/735/369 1266/736/369
f 1269/737/370 1271/737/370 1270/737/370
f 1272/738/371 1274/738/371 1273/738/371
f 1275/739/372 1277/739/372 1276/739/372
f 1278/740/373 1280/740/373 1279/740/373
f 1281/741/374 1284/742/374 1282/743/374
f 1285/744/375 1288/744/375 1286/744/375
f 1291/745/376 1290/746/376 1289/747/376
f 1293/748/377 1296/749/377 1294/750/377
f 1297/751/378 1299/751/378 1298/751/378
f 1300/752/379 1302/752/379 1301/752/379
f 1303/753/380 1305/753/380 1304/753/380
f 1306/754/381 1308/754/381 1307/754/381
f 1309/755/382 1311/755/382 1310/755/382
f 1312/732/383 1314/756/383 1313/757/383
f 1315/758/384 1317/759/384 1316/760/384
f 1318/761/385 1320/761/385 1319/761/385
f 1323/762/386 1322/763/386 1321/764/386
f 1325/765/387 1328/766/387 1326/767/387
f 1331/768/388 1330/769/388 1329/770/388
f 3/1/389 4/1/389 2/1/389
f 7/2/2 8/2/2 6/2/2
f 11/3/3 12/771/3 10/4/3
f 13/6/390 15/6/390 16/6/390
f 17/7/5 19/772/5 20/8/5
f 21/10/391 23/773/391 24/11/391
f 27/13/392 28/774/392 26/14/392
f 31/16/393 32/775/393 30/17/393
f 44/22/12 45/776/12 43/23/12
f 49/26/394 51/777/394 52/27/394
f 55/29/395 56/29/395 54/29/395
f 57/30/396 59/778/396 60/31/396
f 79/39/23 81/39/23 82/39/23
f 97/44/397 98/779/397 96/45/397
f 99/47/398 101/47/398 102/47/398
f 117/52/399 118/52/399 116/52/399
f 128/58/38 130/58/38 131/58/38
f 147/64/400 149/780/400 150/65/400
f 153/67/401 154/781/401 152/68/401
f 164/73/402 166/73/402 167/73/402
f 170/74/50 171/74/50 169/74/50
f 181/78/403 183/78/403 184/78/403
f 185/79/404 187/79/404 188/79/404
f 191/80/405 192/80/405 190/80/405
f 205/85/406 207/85/406 208/85/406
f 209/86/62 211/86/62 212/86/62
f 227/95/67 228/782/67 226/96/67
f 232/99/69 234/783/69 235/100/69
f 236/102/40 238/102/40 239/102/40
f 254/107/74 255/784/74 253/108/74
f 258/110/407 259/785/407 257/111/407
f 262/113/408 263/113/408 261/113/408
f 281/119/409 282/119/409 280/119/409
f 285/120/83 286/786/83 284/121/83
f 298/130/410 299/787/410 297/131/410
f 302/133/411 303/788/411 301/134/411
f 304/136/89 306/136/89 307/136/89
f 317/140/412 319/140/412 320/140/412
f 323/141/413 324/141/413 322/141/413
f 327/142/95 328/142/95 326/142/95
f 329/143/414 331/143/414 332/143/414
f 333/144/415 335/144/415 336/144/415
f 339/145/416 340/145/416 338/145/416
f 349/150/417 350/150/417 348/150/417
f 351/151/418 353/787/418 354/152/418
f 357/154/103 358/789/103 356/155/103
f 359/157/419 361/790/419 362/158/419
f 365/160/105 366/160/105 364/160/105
f 369/161/420 370/161/420 368/161/420
f 376/165/421 377/791/421 375/166/421
f 387/171/422 389/171/422 390/171/422
f 391/172/113 393/172/113 394/172/113
f 398/174/423 400/792/423 401/175/423
f 405/180/424 407/793/424 408/181/424
f 421/191/425 423/794/425 424/192/425
f 427/194/426 428/795/426 426/195/426
f 458/214/427 459/796/427 457/215/427
f 462/217/428 463/797/428 461/218/428
f 466/220/135 467/798/135 465/221/135
f 524/273/154 525/799/154 523/274/154
f 526/276/114 528/276/114 529/276/114
f 530/277/155 532/800/155 533/278/155
f 536/280/429 537/801/429 535/281/429
f 538/283/430 540/802/430 541/284/430
f 568/310/166 569/803/166 567/311/166
f 572/313/167 573/804/167 571/314/167
f 574/316/431 576/805/431 577/317/431
f 578/319/432 580/806/432 581/320/432
f 582/322/433 584/807/433 585/323/433
f 588/325/434 589/325/434 587/325/434
f 617/349/181 619/349/181 620/349/181
f 623/350/182 624/808/182 622/351/182
f 646/372/190 648/372/190 649/372/190
f 671/394/198 673/809/198 674/395/198
f 675/397/199 677/397/199 678/397/199
f 681/398/200 682/810/200 680/399/200
f 683/401/435 685/401/435 686/401/435
f 689/402/436 690/811/436 688/403/436
f 708/416/200 709/416/200 707/416/200
f 712/190/208 713/812/208 711/417/208
f 716/419/437 717/813/437 715/420/437
f 720/422/438 721/814/438 719/423/438
f 745/446/218 746/446/218 744/446/218
f 747/447/439 749/489/439 750/448/439
f 751/450/220 753/450/220 754/450/220
f 757/451/221 758/451/221 756/451/221
f 759/452/222 761/452/222 762/452/222
f 769/457/440 771/815/440 772/458/440
f 773/460/441 775/816/441 776/461/441
f 809/493/237 810/493/237 808/493/237
f 819/496/442 820/496/442 818/496/442
f 824/500/443 826/817/443 827/501/443
f 851/524/250 852/818/250 850/525/250
f 853/527/444 855/819/444 856/528/444
f 860/533/253 862/820/253 863/534/253
f 897/557/265 899/821/265 900/558/265
f 907/562/268 909/562/268 910/562/268
f 913/563/445 914/563/445 912/563/445
f 927/568/446 929/822/446 930/569/446
f 933/571/274 934/823/274 932/572/274
f 973/598/287 974/598/287 972/598/287
f 981/601/447 983/601/447 984/601/447
f 987/602/448 988/602/448 986/602/448
f 995/609/449 997/824/449 998/610/449
f 1005/614/450 1007/614/450 1008/614/450
f 1009/615/451 1011/615/451 1012/615/451
f 1027/620/452 1028/825/452 1026/621/452
f 1032/624/453 1034/826/453 1035/625/453
f 1036/627/305 1038/627/305 1039/627/305
f 1040/628/454 1042/628/454 1043/628/454
f 1046/629/455 1047/827/455 1045/630/455
f 1050/632/456 1051/632/456 1049/632/456
f 1054/633/457 1055/633/457 1053/633/457
f 1056/634/458 1058/634/458 1059/634/458
f 1068/639/313 1069/828/313 1067/640/313
f 1070/642/459 1072/642/459 1073/642/459
f 1082/647/460 1083/829/460 1081/648/460
f 1086/650/318 1087/830/318 1085/651/318
f 1088/653/319 1090/831/319 1091/654/319
f 1094/656/461 1095/832/461 1093/657/461
f 1096/659/321 1098/659/321 1099/659/321
f 1109/663/462 1111/663/462 1112/663/462
f 1122/669/463 1124/669/463 1125/669/463
f 1128/670/330 1129/670/330 1127/670/330
f 1132/671/464 1133/671/464 1131/671/464
f 1134/672/465 1136/833/465 1137/673/465
f 1138/675/466 1140/834/466 1141/676/466
f 1145/679/335 1147/679/335 1148/679/335
f 1151/680/467 1152/680/467 1150/680/467
f 1170/686/468 1171/835/468 1169/687/468
f 1174/689/343 1175/836/343 1173/690/343
f 1176/692/344 1178/692/344 1179/692/344
f 1186/695/469 1188/837/469 1189/696/469
f 1192/698/348 1193/838/348 1191/699/348
f 1196/701/470 1197/839/470 1195/702/470
f 1200/704/471 1201/840/471 1199/705/471
f 1204/707/472 1205/841/472 1203/708/472
f 1208/709/473 1209/709/473 1207/709/473
f 1215/711/354 1216/711/354 1214/711/354
f 1226/715/474 1228/715/474 1229/715/474
f 1232/716/475 1233/842/475 1231/717/475
f 1234/719/476 1236/843/476 1237/720/476
f 1247/725/477 1249/725/477 1250/725/477
f 1251/726/478 1253/726/478 1254/726/478
f 1261/731/368 1263/844/368 1264/732/368
f 1265/734/369 1267/845/369 1268/735/369
f 1281/741/479 1283/846/479 1284/742/479
f 1285/744/375 1287/744/375 1288/744/375
f 1291/745/480 1292/847/480 1290/746/480
f 1293/748/481 1295/848/481 1296/749/481
f 1323/762/482 1324/849/482 1322/763/482
f 1325/765/483 1327/850/483 1328/766/483
f 1331/768/388 1332/851/388 1330/769/388
