# Blender 5.1.1
# www.blender.org
mtllib stevehead.mtl
o SteveHead
v 0.101600 0.472693 -0.101600
v 0.101600 0.269493 -0.101600
v -0.101600 0.472693 -0.101600
v 0.101600 0.472693 0.101600
v 0.101600 0.269493 0.101600
v -0.101600 0.472693 0.101600
v -0.101600 0.269493 0.101600
v -0.101600 0.269493 -0.101600
vn 1.0000 -0.0000 -0.0000
vn -0.0000 -0.0000 -1.0000
vn -0.0000 1.0000 -0.0000
vn -0.0000 -0.0000 1.0000
vn -1.0000 -0.0000 -0.0000
vn -0.0000 -1.0000 -0.0000
vt 0.375000 0.750000
vt 0.250000 0.875000
vt 0.250000 0.750000
vt 0.500000 0.750000
vt 0.375000 0.875000
vt 0.125000 1.000000
vt 0.125000 0.875000
vt 0.125000 0.750000
vt -0.000000 0.875000
vt 0.000000 0.750000
vt 0.375000 1.000000
vt 0.250000 1.000000
vt 0.500000 0.875000
s 1
usemtl 02_-_Default
f 2/1/1 4/2/1 5/3/1
f 8/4/2 1/5/2 2/1/2
f 4/2/3 3/6/3 6/7/3
f 5/3/4 6/7/4 7/8/4
f 7/8/5 3/9/5 8/10/5
f 8/11/6 5/2/6 7/12/6
f 2/1/1 1/5/1 4/2/1
f 8/4/2 3/13/2 1/5/2
f 4/2/3 1/12/3 3/6/3
f 5/3/4 4/2/4 6/7/4
f 7/8/5 6/7/5 3/9/5
f 8/11/6 2/5/6 5/2/6
