# Blender 5.1.1
# www.blender.org
mtllib stevelleg.mtl
o SteveLLeg
v 0.456297 -0.406400 -0.050800
v 0.456297 -0.406400 0.050800
v 0.354697 -0.406400 -0.050800
v 0.456297 -0.101600 -0.050800
v 0.354697 -0.101600 -0.050800
v 0.456297 -0.101600 0.050800
v 0.354697 -0.101600 0.050800
v 0.354697 -0.406400 0.050800
vn -0.0000 -1.0000 -0.0000
vn 1.0000 -0.0000 -0.0000
vn -0.0000 -0.0000 -1.0000
vn -0.0000 1.0000 -0.0000
vn -0.0000 -0.0000 1.0000
vn -1.0000 -0.0000 -0.0000
vt 0.125000 0.750000
vt 0.187500 0.687500
vt 0.125000 0.687500
vt 0.187500 0.500000
vt 0.125000 0.500000
vt 0.250000 0.500000
vt 0.062500 0.750000
vt 0.062500 0.687500
vt 0.062500 0.500000
vt -0.000000 0.687500
vt 0.000000 0.500000
vt 0.187500 0.750000
vt 0.250000 0.687500
s 1
usemtl 02_-_Default
f 3/1/1 2/2/1 8/3/1
f 1/4/2 6/3/2 2/5/2
f 3/6/3 4/2/3 1/4/3
f 7/7/4 4/3/4 5/8/4
f 2/5/5 7/8/5 8/9/5
f 8/9/6 5/10/6 3/11/6
f 3/1/1 1/12/1 2/2/1
f 1/4/2 4/2/2 6/3/2
f 3/6/3 5/13/3 4/2/3
f 7/7/4 6/1/4 4/3/4
f 2/5/5 6/3/5 7/8/5
f 8/9/6 7/8/6 5/10/6
