# Blender 5.1.1
# www.blender.org
mtllib stevebod.mtl
o SteveBod
v -0.101600 -0.101600 0.050800
v 0.101600 -0.101600 0.050800
v -0.101600 -0.101600 -0.050800
v 0.101600 -0.101600 -0.050800
v -0.101600 0.203200 0.050800
v 0.101600 0.203200 0.050800
v -0.101600 0.203200 -0.050800
v 0.101600 0.203200 -0.050800
vn -0.0000 1.0000 -0.0000
vn -0.0000 -0.0000 1.0000
vn 1.0000 -0.0000 -0.0000
vn -0.0000 -0.0000 -1.0000
vn -1.0000 -0.0000 -0.0000
vn -0.0000 -1.0000 -0.0000
vt 0.437500 0.687500
vt 0.312500 0.750000
vt 0.312500 0.687500
vt 0.437500 0.500000
vt 0.312500 0.500000
vt 0.500000 0.500000
vt 0.625000 0.500000
vt 0.500000 0.687500
vt 0.250000 0.687500
vt 0.250000 0.500000
vt 0.562500 0.687500
vt 0.437500 0.750000
vt 0.625000 0.687500
vt 0.562500 0.750000
s 1
usemtl 02_-_Default
f 6/1/1 7/2/1 5/3/1
f 2/4/2 5/3/2 1/5/2
f 4/6/3 6/1/3 2/4/3
f 3/7/4 8/8/4 4/6/4
f 1/5/5 7/9/5 3/10/5
f 3/11/6 2/12/6 1/1/6
f 6/1/1 8/12/1 7/2/1
f 2/4/2 6/1/2 5/3/2
f 4/6/3 8/8/3 6/1/3
f 3/7/4 7/13/4 8/8/4
f 1/5/5 5/3/5 7/9/5
f 3/11/6 4/14/6 2/12/6
