# Blender 5.1.1
# www.blender.org
mtllib stevelarm.mtl
o SteveLArm
v 0.302302 -0.101600 -0.050800
v 0.302302 -0.101600 0.050800
v 0.200702 -0.101600 -0.050800
v 0.302302 0.203200 -0.050800
v 0.302302 0.203200 0.050800
v 0.200702 0.203200 -0.050800
v 0.200702 0.203200 0.050800
v 0.200702 -0.101600 0.050800
vn 1.0000 -0.0000 -0.0000
vn -0.0000 -1.0000 -0.0000
vn -0.0000 -0.0000 -1.0000
vn -0.0000 1.0000 -0.0000
vn -1.0000 -0.0000 -0.0000
vn -0.0000 -0.0000 1.0000
vt 0.812500 0.500000
vt 0.750000 0.687500
vt 0.750000 0.500000
vt 0.750000 0.750000
vt 0.812500 0.687500
vt 0.812500 0.750000
vt 0.875000 0.500000
vt 0.687500 0.750000
vt 0.687500 0.687500
vt 0.687500 0.500000
vt 0.625000 0.687500
vt 0.625000 0.500000
vt 0.875000 0.687500
s 1
usemtl 02_-_Default
f 1/1/1 5/2/1 2/3/1
f 3/4/2 2/5/2 8/6/2
f 3/7/3 4/5/3 1/1/3
f 5/2/4 6/8/4 7/9/4
f 8/10/5 6/11/5 3/12/5
f 2/3/6 7/9/6 8/10/6
f 1/1/1 4/5/1 5/2/1
f 3/4/2 1/2/2 2/5/2
f 3/7/3 6/13/3 4/5/3
f 5/2/4 4/4/4 6/8/4
f 8/10/5 7/9/5 6/11/5
f 2/3/6 5/2/6 7/9/6
