# Blender 5.1.1
# www.blender.org
mtllib steverarm.mtl
o SteveRArm
v -0.298094 -0.101600 0.050800
v -0.298094 -0.101600 -0.050800
v -0.196494 -0.101600 0.050800
v -0.298094 0.203200 0.050800
v -0.196494 0.203200 0.050800
v -0.298094 0.203200 -0.050800
v -0.196494 0.203200 -0.050800
v -0.196494 -0.101600 -0.050800
vn -1.0000 -0.0000 -0.0000
vn -0.0000 -1.0000 -0.0000
vn -0.0000 -0.0000 1.0000
vn -0.0000 1.0000 -0.0000
vn -0.0000 -0.0000 -1.0000
vn 1.0000 -0.0000 -0.0000
vt 0.562500 -0.000000
vt 0.500000 0.187500
vt 0.500000 0.000000
vt 0.687500 0.250000
vt 0.625000 0.187500
vt 0.625000 0.250000
vt 0.625000 -0.000000
vt 0.562500 0.187500
vt 0.562500 0.250000
vt 0.750000 0.000000
vt 0.687500 0.187500
vt 0.687500 0.000000
vt 0.750000 0.187500
s 1
usemtl 02_-_Default
f 1/1/1 6/2/1 2/3/1
f 2/4/2 3/5/2 1/6/2
f 3/7/3 4/8/3 1/1/3
f 5/5/4 6/9/4 4/8/4
f 2/10/5 7/11/5 8/12/5
f 8/12/6 5/5/6 3/7/6
f 1/1/1 4/8/1 6/2/1
f 2/4/2 8/11/2 3/5/2
f 3/7/3 5/5/3 4/8/3
f 5/5/4 7/6/4 6/9/4
f 2/10/5 6/13/5 7/11/5
f 8/12/6 7/11/6 5/5/6
