# Blender 5.1.1
# www.blender.org
# Textures from Minecraft.jar
mtllib crafting_table.mtl
o Cube
v 1.000000 1.000000 -1.000000
v 1.000000 -1.000000 -1.000000
v 1.000000 1.000000 1.000000
v 1.000000 -1.000000 1.000000
v -1.000000 1.000000 -1.000000
v -1.000000 -1.000000 -1.000000
v -1.000000 1.000000 1.000000
v -1.000000 -1.000000 1.000000
vn -0.0000 1.0000 -0.0000
vn -0.0000 -0.0000 1.0000
vn -1.0000 -0.0000 -0.0000
vn -0.0000 -1.0000 -0.0000
vn 1.0000 -0.0000 -0.0000
vn -0.0000 -0.0000 -1.0000
vt 1.000000 0.500000
vt 0.500000 1.000000
vt 0.500000 0.500000
vt 0.500000 0.000000
vt 1.000000 0.000000
vt -0.000000 -0.000000
vt 0.000000 1.000000
vt 0.000000 0.500000
vt 1.000000 1.000000
s 0
usemtl Material
f 5/1/1 3/2/1 1/3/1
f 3/1/2 8/4/2 4/5/2
f 7/3/3 6/6/3 8/4/3
f 2/3/4 8/7/4 6/8/4
f 1/3/5 4/6/5 2/4/5
f 5/1/6 2/4/6 6/5/6
f 5/1/1 7/9/1 3/2/1
f 3/1/2 7/3/2 8/4/2
f 7/3/3 5/8/3 6/6/3
f 2/3/4 4/2/4 8/7/4
f 1/3/5 3/8/5 4/6/5
f 5/1/6 1/3/6 2/4/6
