# Blender 5.1.1
# www.blender.org
mtllib suzanne.mtl
o Suzanne
v 0.437500 0.164062 0.765625
v -0.437500 0.164062 0.765625
v 0.500000 0.093750 0.687500
v -0.500000 0.093750 0.687500
v 0.546875 0.054688 0.578125
v -0.546875 0.054688 0.578125
v 0.351562 -0.023438 0.617188
v -0.351562 -0.023438 0.617188
v 0.351562 0.031250 0.718750
v -0.351562 0.031250 0.718750
v 0.351562 0.132812 0.781250
v -0.351562 0.132812 0.781250
v 0.273438 0.164062 0.796875
v -0.273438 0.164062 0.796875
v 0.203125 0.093750 0.742188
v -0.203125 0.093750 0.742188
v 0.156250 0.054688 0.648438
v -0.156250 0.054688 0.648438
v 0.078125 0.242188 0.656250
v -0.078125 0.242188 0.656250
v 0.140625 0.242188 0.742188
v -0.140625 0.242188 0.742188
v 0.242188 0.242188 0.796875
v -0.242188 0.242188 0.796875
v 0.273438 0.328125 0.796875
v -0.273438 0.328125 0.796875
v 0.203125 0.390625 0.742188
v -0.203125 0.390625 0.742188
v 0.156250 0.437500 0.648438
v -0.156250 0.437500 0.648438
v 0.351562 0.515625 0.617188
v -0.351562 0.515625 0.617188
v 0.351562 0.453125 0.718750
v -0.351562 0.453125 0.718750
v 0.351562 0.359375 0.781250
v -0.351562 0.359375 0.781250
v 0.437500 0.328125 0.765625
v -0.437500 0.328125 0.765625
v 0.500000 0.390625 0.687500
v -0.500000 0.390625 0.687500
v 0.546875 0.437500 0.578125
v -0.546875 0.437500 0.578125
v 0.625000 0.242188 0.562500
v -0.625000 0.242188 0.562500
v 0.562500 0.242188 0.671875
v -0.562500 0.242188 0.671875
v 0.468750 0.242188 0.757812
v -0.468750 0.242188 0.757812
v 0.476562 0.242188 0.773438
v -0.476562 0.242188 0.773438
v 0.445312 0.335938 0.781250
v -0.445312 0.335938 0.781250
v 0.351562 0.375000 0.804688
v -0.351562 0.375000 0.804688
v 0.265625 0.335938 0.820312
v -0.265625 0.335938 0.820312
v 0.226562 0.242188 0.820312
v -0.226562 0.242188 0.820312
v 0.265625 0.156250 0.820312
v -0.265625 0.156250 0.820312
v 0.351562 0.242188 0.828125
v -0.351562 0.242188 0.828125
v 0.351562 0.117188 0.804688
v -0.351562 0.117188 0.804688
v 0.445312 0.156250 0.781250
v -0.445312 0.156250 0.781250
v 0.000000 0.429688 0.742188
v 0.000000 0.351562 0.820312
v 0.000000 -0.679688 0.734375
v 0.000000 -0.320312 0.781250
v 0.000000 -0.187500 0.796875
v 0.000000 -0.773438 0.718750
v 0.000000 0.406250 0.601562
v 0.000000 0.570312 0.570312
v 0.000000 0.898438 -0.546875
v 0.000000 0.562500 -0.851562
v 0.000000 0.070312 -0.828125
v 0.000000 -0.382812 -0.351562
v 0.203125 -0.187500 0.562500
v -0.203125 -0.187500 0.562500
v 0.312500 -0.437500 0.570312
v -0.312500 -0.437500 0.570312
v 0.351562 -0.695312 0.570312
v -0.351562 -0.695312 0.570312
v 0.367188 -0.890625 0.531250
v -0.367188 -0.890625 0.531250
v 0.328125 -0.945312 0.523438
v -0.328125 -0.945312 0.523438
v 0.179688 -0.968750 0.554688
v -0.179688 -0.968750 0.554688
v 0.000000 -0.984375 0.578125
v 0.437500 -0.140625 0.531250
v -0.437500 -0.140625 0.531250
v 0.632812 -0.039062 0.539062
v -0.632812 -0.039062 0.539062
v 0.828125 0.148438 0.445312
v -0.828125 0.148438 0.445312
v 0.859375 0.429688 0.593750
v -0.859375 0.429688 0.593750
v 0.710938 0.484375 0.625000
v -0.710938 0.484375 0.625000
v 0.492188 0.601562 0.687500
v -0.492188 0.601562 0.687500
v 0.320312 0.757812 0.734375
v -0.320312 0.757812 0.734375
v 0.156250 0.718750 0.757812
v -0.156250 0.718750 0.757812
v 0.062500 0.492188 0.750000
v -0.062500 0.492188 0.750000
v 0.164062 0.414062 0.773438
v -0.164062 0.414062 0.773438
v 0.125000 0.304688 0.765625
v -0.125000 0.304688 0.765625
v 0.203125 0.093750 0.742188
v -0.203125 0.093750 0.742188
v 0.375000 0.015625 0.703125
v -0.375000 0.015625 0.703125
v 0.492188 0.062500 0.671875
v -0.492188 0.062500 0.671875
v 0.625000 0.187500 0.648438
v -0.625000 0.187500 0.648438
v 0.640625 0.296875 0.648438
v -0.640625 0.296875 0.648438
v 0.601562 0.375000 0.664062
v -0.601562 0.375000 0.664062
v 0.429688 0.437500 0.718750
v -0.429688 0.437500 0.718750
v 0.250000 0.468750 0.757812
v -0.250000 0.468750 0.757812
v 0.000000 -0.765625 0.734375
v 0.109375 -0.718750 0.734375
v -0.109375 -0.718750 0.734375
v 0.117188 -0.835938 0.710938
v -0.117188 -0.835938 0.710938
v 0.062500 -0.882812 0.695312
v -0.062500 -0.882812 0.695312
v 0.000000 -0.890625 0.687500
v 0.000000 -0.195312 0.750000
v 0.000000 -0.140625 0.742188
v 0.101562 -0.148438 0.742188
v -0.101562 -0.148438 0.742188
v 0.125000 -0.226562 0.750000
v -0.125000 -0.226562 0.750000
v 0.085938 -0.289062 0.742188
v -0.085938 -0.289062 0.742188
v 0.398438 -0.046875 0.671875
v -0.398438 -0.046875 0.671875
v 0.617188 0.054688 0.625000
v -0.617188 0.054688 0.625000
v 0.726562 0.203125 0.601562
v -0.726562 0.203125 0.601562
v 0.742188 0.375000 0.656250
v -0.742188 0.375000 0.656250
v 0.687500 0.414062 0.726562
v -0.687500 0.414062 0.726562
v 0.437500 0.546875 0.796875
v -0.437500 0.546875 0.796875
v 0.312500 0.640625 0.835938
v -0.312500 0.640625 0.835938
v 0.203125 0.617188 0.851562
v -0.203125 0.617188 0.851562
v 0.101562 0.429688 0.843750
v -0.101562 0.429688 0.843750
v 0.125000 -0.101562 0.812500
v -0.125000 -0.101562 0.812500
v 0.210938 -0.445312 0.710938
v -0.210938 -0.445312 0.710938
v 0.250000 -0.703125 0.687500
v -0.250000 -0.703125 0.687500
v 0.265625 -0.820312 0.664062
v -0.265625 -0.820312 0.664062
v 0.234375 -0.914062 0.632812
v -0.234375 -0.914062 0.632812
v 0.164062 -0.929688 0.632812
v -0.164062 -0.929688 0.632812
v 0.000000 -0.945312 0.640625
v 0.000000 0.046875 0.726562
v 0.000000 0.210938 0.765625
v 0.328125 0.476562 0.742188
v -0.328125 0.476562 0.742188
v 0.164062 0.140625 0.750000
v -0.164062 0.140625 0.750000
v 0.132812 0.210938 0.757812
v -0.132812 0.210938 0.757812
v 0.117188 -0.687500 0.734375
v -0.117188 -0.687500 0.734375
v 0.078125 -0.445312 0.750000
v -0.078125 -0.445312 0.750000
v 0.000000 -0.445312 0.750000
v 0.000000 -0.328125 0.742188
v 0.093750 -0.273438 0.781250
v -0.093750 -0.273438 0.781250
v 0.132812 -0.226562 0.796875
v -0.132812 -0.226562 0.796875
v 0.109375 -0.132812 0.781250
v -0.109375 -0.132812 0.781250
v 0.039062 -0.125000 0.781250
v -0.039062 -0.125000 0.781250
v 0.000000 -0.203125 0.828125
v 0.046875 -0.148438 0.812500
v -0.046875 -0.148438 0.812500
v 0.093750 -0.156250 0.812500
v -0.093750 -0.156250 0.812500
v 0.109375 -0.226562 0.828125
v -0.109375 -0.226562 0.828125
v 0.078125 -0.250000 0.804688
v -0.078125 -0.250000 0.804688
v 0.000000 -0.289062 0.804688
v 0.257812 -0.312500 0.554688
v -0.257812 -0.312500 0.554688
v 0.164062 -0.242188 0.710938
v -0.164062 -0.242188 0.710938
v 0.179688 -0.312500 0.710938
v -0.179688 -0.312500 0.710938
v 0.234375 -0.250000 0.554688
v -0.234375 -0.250000 0.554688
v 0.000000 -0.875000 0.687500
v 0.046875 -0.867188 0.687500
v -0.046875 -0.867188 0.687500
v 0.093750 -0.820312 0.710938
v -0.093750 -0.820312 0.710938
v 0.093750 -0.742188 0.726562
v -0.093750 -0.742188 0.726562
v 0.000000 -0.781250 0.656250
v 0.093750 -0.750000 0.664062
v -0.093750 -0.750000 0.664062
v 0.093750 -0.812500 0.640625
v -0.093750 -0.812500 0.640625
v 0.046875 -0.851562 0.632812
v -0.046875 -0.851562 0.632812
v 0.000000 -0.859375 0.632812
v 0.171875 0.218750 0.781250
v -0.171875 0.218750 0.781250
v 0.187500 0.156250 0.773438
v -0.187500 0.156250 0.773438
v 0.335938 0.429688 0.757812
v -0.335938 0.429688 0.757812
v 0.273438 0.421875 0.773438
v -0.273438 0.421875 0.773438
v 0.421875 0.398438 0.773438
v -0.421875 0.398438 0.773438
v 0.562500 0.351562 0.695312
v -0.562500 0.351562 0.695312
v 0.585938 0.289062 0.687500
v -0.585938 0.289062 0.687500
v 0.578125 0.195312 0.679688
v -0.578125 0.195312 0.679688
v 0.476562 0.101562 0.718750
v -0.476562 0.101562 0.718750
v 0.375000 0.062500 0.742188
v -0.375000 0.062500 0.742188
v 0.226562 0.109375 0.781250
v -0.226562 0.109375 0.781250
v 0.179688 0.296875 0.781250
v -0.179688 0.296875 0.781250
v 0.210938 0.375000 0.781250
v -0.210938 0.375000 0.781250
v 0.234375 0.359375 0.757812
v -0.234375 0.359375 0.757812
v 0.195312 0.296875 0.757812
v -0.195312 0.296875 0.757812
v 0.242188 0.125000 0.757812
v -0.242188 0.125000 0.757812
v 0.375000 0.085938 0.726562
v -0.375000 0.085938 0.726562
v 0.460938 0.117188 0.703125
v -0.460938 0.117188 0.703125
v 0.546875 0.210938 0.671875
v -0.546875 0.210938 0.671875
v 0.554688 0.281250 0.671875
v -0.554688 0.281250 0.671875
v 0.531250 0.335938 0.679688
v -0.531250 0.335938 0.679688
v 0.414062 0.390625 0.750000
v -0.414062 0.390625 0.750000
v 0.281250 0.398438 0.765625
v -0.281250 0.398438 0.765625
v 0.335938 0.406250 0.750000
v -0.335938 0.406250 0.750000
v 0.203125 0.171875 0.750000
v -0.203125 0.171875 0.750000
v 0.195312 0.226562 0.750000
v -0.195312 0.226562 0.750000
v 0.109375 0.460938 0.609375
v -0.109375 0.460938 0.609375
v 0.195312 0.664062 0.617188
v -0.195312 0.664062 0.617188
v 0.335938 0.687500 0.593750
v -0.335938 0.687500 0.593750
v 0.484375 0.554688 0.554688
v -0.484375 0.554688 0.554688
v 0.679688 0.453125 0.492188
v -0.679688 0.453125 0.492188
v 0.796875 0.406250 0.460938
v -0.796875 0.406250 0.460938
v 0.773438 0.164062 0.375000
v -0.773438 0.164062 0.375000
v 0.601562 0.000000 0.414062
v -0.601562 0.000000 0.414062
v 0.437500 -0.093750 0.468750
v -0.437500 -0.093750 0.468750
v 0.000000 0.898438 0.289062
v 0.000000 0.984375 -0.078125
v 0.000000 -0.195312 -0.671875
v 0.000000 -0.460938 0.187500
v 0.000000 -0.976562 0.460938
v 0.000000 -0.804688 0.343750
v 0.000000 -0.570312 0.320312
v 0.000000 -0.484375 0.281250
v 0.851562 0.234375 0.054688
v -0.851562 0.234375 0.054688
v 0.859375 0.320312 -0.046875
v -0.859375 0.320312 -0.046875
v 0.773438 0.265625 -0.437500
v -0.773438 0.265625 -0.437500
v 0.460938 0.437500 -0.703125
v -0.460938 0.437500 -0.703125
v 0.734375 -0.046875 0.070312
v -0.734375 -0.046875 0.070312
v 0.593750 -0.125000 -0.164062
v -0.593750 -0.125000 -0.164062
v 0.640625 -0.007812 -0.429688
v -0.640625 -0.007812 -0.429688
v 0.335938 0.054688 -0.664062
v -0.335938 0.054688 -0.664062
v 0.234375 -0.351562 0.406250
v -0.234375 -0.351562 0.406250
v 0.179688 -0.414062 0.257812
v -0.179688 -0.414062 0.257812
v 0.289062 -0.710938 0.382812
v -0.289062 -0.710938 0.382812
v 0.250000 -0.500000 0.390625
v -0.250000 -0.500000 0.390625
v 0.328125 -0.914062 0.398438
v -0.328125 -0.914062 0.398438
v 0.140625 -0.757812 0.367188
v -0.140625 -0.757812 0.367188
v 0.125000 -0.539062 0.359375
v -0.125000 -0.539062 0.359375
v 0.164062 -0.945312 0.437500
v -0.164062 -0.945312 0.437500
v 0.218750 -0.281250 0.429688
v -0.218750 -0.281250 0.429688
v 0.210938 -0.226562 0.468750
v -0.210938 -0.226562 0.468750
v 0.203125 -0.171875 0.500000
v -0.203125 -0.171875 0.500000
v 0.210938 -0.390625 0.164062
v -0.210938 -0.390625 0.164062
v 0.296875 -0.312500 -0.265625
v -0.296875 -0.312500 -0.265625
v 0.343750 -0.148438 -0.539062
v -0.343750 -0.148438 -0.539062
v 0.453125 0.867188 -0.382812
v -0.453125 0.867188 -0.382812
v 0.453125 0.929688 -0.070312
v -0.453125 0.929688 -0.070312
v 0.453125 0.851562 0.234375
v -0.453125 0.851562 0.234375
v 0.460938 0.523438 0.429688
v -0.460938 0.523438 0.429688
v 0.726562 0.406250 0.335938
v -0.726562 0.406250 0.335938
v 0.632812 0.453125 0.281250
v -0.632812 0.453125 0.281250
v 0.640625 0.703125 0.054688
v -0.640625 0.703125 0.054688
v 0.796875 0.562500 0.125000
v -0.796875 0.562500 0.125000
v 0.796875 0.617188 -0.117188
v -0.796875 0.617188 -0.117188
v 0.640625 0.750000 -0.195312
v -0.640625 0.750000 -0.195312
v 0.640625 0.679688 -0.445312
v -0.640625 0.679688 -0.445312
v 0.796875 0.539062 -0.359375
v -0.796875 0.539062 -0.359375
v 0.617188 0.328125 -0.585938
v -0.617188 0.328125 -0.585938
v 0.484375 0.023438 -0.546875
v -0.484375 0.023438 -0.546875
v 0.820312 0.328125 -0.203125
v -0.820312 0.328125 -0.203125
v 0.406250 -0.171875 0.148438
v -0.406250 -0.171875 0.148438
v 0.429688 -0.195312 -0.210938
v -0.429688 -0.195312 -0.210938
v 0.890625 0.406250 -0.234375
v -0.890625 0.406250 -0.234375
v 0.773438 -0.140625 -0.125000
v -0.773438 -0.140625 -0.125000
v 1.039062 -0.101562 -0.328125
v -1.039062 -0.101562 -0.328125
v 1.281250 0.054688 -0.429688
v -1.281250 0.054688 -0.429688
v 1.351562 0.320312 -0.421875
v -1.351562 0.320312 -0.421875
v 1.234375 0.507812 -0.421875
v -1.234375 0.507812 -0.421875
v 1.023438 0.476562 -0.312500
v -1.023438 0.476562 -0.312500
v 1.015625 0.414062 -0.289062
v -1.015625 0.414062 -0.289062
v 1.187500 0.437500 -0.390625
v -1.187500 0.437500 -0.390625
v 1.265625 0.289062 -0.406250
v -1.265625 0.289062 -0.406250
v 1.210938 0.078125 -0.406250
v -1.210938 0.078125 -0.406250
v 1.031250 -0.039062 -0.304688
v -1.031250 -0.039062 -0.304688
v 0.828125 -0.070312 -0.132812
v -0.828125 -0.070312 -0.132812
v 0.921875 0.359375 -0.218750
v -0.921875 0.359375 -0.218750
v 0.945312 0.304688 -0.289062
v -0.945312 0.304688 -0.289062
v 0.882812 -0.023438 -0.210938
v -0.882812 -0.023438 -0.210938
v 1.039062 -0.000000 -0.367188
v -1.039062 -0.000000 -0.367188
v 1.187500 0.093750 -0.445312
v -1.187500 0.093750 -0.445312
v 1.234375 0.250000 -0.445312
v -1.234375 0.250000 -0.445312
v 1.171875 0.359375 -0.437500
v -1.171875 0.359375 -0.437500
v 1.023438 0.343750 -0.359375
v -1.023438 0.343750 -0.359375
v 0.843750 0.289062 -0.210938
v -0.843750 0.289062 -0.210938
v 0.835938 0.171875 -0.273438
v -0.835938 0.171875 -0.273438
v 0.757812 0.093750 -0.273438
v -0.757812 0.093750 -0.273438
v 0.820312 0.085938 -0.273438
v -0.820312 0.085938 -0.273438
v 0.843750 0.015625 -0.273438
v -0.843750 0.015625 -0.273438
v 0.812500 -0.015625 -0.273438
v -0.812500 -0.015625 -0.273438
v 0.726562 -0.000000 -0.070312
v -0.726562 -0.000000 -0.070312
v 0.718750 -0.023438 -0.171875
v -0.718750 -0.023438 -0.171875
v 0.718750 0.039062 -0.187500
v -0.718750 0.039062 -0.187500
v 0.796875 0.203125 -0.210938
v -0.796875 0.203125 -0.210938
v 0.890625 0.242188 -0.265625
v -0.890625 0.242188 -0.265625
v 0.890625 0.234375 -0.320312
v -0.890625 0.234375 -0.320312
v 0.812500 -0.015625 -0.320312
v -0.812500 -0.015625 -0.320312
v 0.851562 0.015625 -0.320312
v -0.851562 0.015625 -0.320312
v 0.828125 0.078125 -0.320312
v -0.828125 0.078125 -0.320312
v 0.765625 0.093750 -0.320312
v -0.765625 0.093750 -0.320312
v 0.843750 0.171875 -0.320312
v -0.843750 0.171875 -0.320312
v 1.039062 0.328125 -0.414062
v -1.039062 0.328125 -0.414062
v 1.187500 0.343750 -0.484375
v -1.187500 0.343750 -0.484375
v 1.257812 0.242188 -0.492188
v -1.257812 0.242188 -0.492188
v 1.210938 0.085938 -0.484375
v -1.210938 0.085938 -0.484375
v 1.046875 -0.000000 -0.421875
v -1.046875 -0.000000 -0.421875
v 0.882812 -0.015625 -0.265625
v -0.882812 -0.015625 -0.265625
v 0.953125 0.289062 -0.343750
v -0.953125 0.289062 -0.343750
v 0.890625 0.109375 -0.328125
v -0.890625 0.109375 -0.328125
v 0.937500 0.062500 -0.335938
v -0.937500 0.062500 -0.335938
v 1.000000 0.125000 -0.367188
v -1.000000 0.125000 -0.367188
v 0.960938 0.171875 -0.351562
v -0.960938 0.171875 -0.351562
v 1.015625 0.234375 -0.375000
v -1.015625 0.234375 -0.375000
v 1.054688 0.187500 -0.382812
v -1.054688 0.187500 -0.382812
v 1.109375 0.210938 -0.390625
v -1.109375 0.210938 -0.390625
v 1.085938 0.273438 -0.390625
v -1.085938 0.273438 -0.390625
v 1.023438 0.437500 -0.484375
v -1.023438 0.437500 -0.484375
v 1.250000 0.468750 -0.546875
v -1.250000 0.468750 -0.546875
v 1.367188 0.296875 -0.500000
v -1.367188 0.296875 -0.500000
v 1.312500 0.054688 -0.531250
v -1.312500 0.054688 -0.531250
v 1.039062 -0.085938 -0.492188
v -1.039062 -0.085938 -0.492188
v 0.789062 -0.125000 -0.328125
v -0.789062 -0.125000 -0.328125
v 0.859375 0.382812 -0.382812
v -0.859375 0.382812 -0.382812
vn 0.6617 -0.2026 0.7219
vn -0.6617 -0.2026 0.7219
vn 0.8268 -0.3051 0.4725
vn -0.8268 -0.3051 0.4725
vn 0.4076 -0.7905 0.4570
vn -0.4076 -0.7905 0.4570
vn 0.3791 -0.5163 0.7679
vn -0.3791 -0.5163 0.7679
vn -0.0859 -0.5222 0.8485
vn 0.0859 -0.5222 0.8485
vn -0.2664 -0.8487 0.4570
vn 0.2664 -0.8487 0.4570
vn -0.7824 -0.3294 0.5285
vn 0.7606 -0.3400 0.5531
vn -0.4706 -0.1981 0.8598
vn 0.4706 -0.1981 0.8598
vn -0.4649 0.1958 0.8634
vn 0.4649 0.1958 0.8634
vn -0.7656 0.3223 0.5568
vn 0.7683 0.3293 0.5488
vn -0.2560 0.8073 0.5317
vn 0.2487 0.8249 0.5076
vn -0.0821 0.6023 0.7940
vn 0.1017 0.5518 0.8277
vn 0.3329 0.5231 0.7846
vn -0.3861 0.5446 0.7445
vn 0.4246 0.7711 0.4745
vn -0.4059 0.7641 0.5014
vn 0.8251 0.2968 0.4808
vn -0.8299 0.2940 0.4742
vn 0.6888 0.1868 0.7005
vn -0.6617 0.2026 0.7219
vn 0.8400 0.3436 -0.4199
vn -0.7816 0.3058 -0.5437
vn 0.2074 0.8296 -0.5185
vn -0.2036 0.8146 -0.5431
vn -0.4056 0.7605 -0.5070
vn 0.4381 0.7988 -0.4123
vn -0.8642 0.3143 -0.3929
vn 0.7861 0.3276 -0.5241
vn -0.7782 -0.3537 -0.5189
vn 0.7782 -0.3537 -0.5189
vn -0.4381 -0.7988 -0.4123
vn 0.4381 -0.7988 -0.4123
vn 0.2037 -0.8146 -0.5430
vn -0.2037 -0.8146 -0.5430
vn 0.7684 -0.3293 -0.5488
vn -0.7684 -0.3293 -0.5488
vn 0.4000 -0.0623 0.9144
vn -0.4000 -0.0623 0.9144
vn 0.3069 -0.1754 0.9354
vn -0.3069 -0.1754 0.9354
vn 0.0945 -0.1835 0.9785
vn -0.0945 -0.1835 0.9785
vn -0.0624 -0.0283 0.9977
vn 0.0624 -0.0283 0.9977
vn -0.0624 0.0260 0.9977
vn 0.0624 0.0260 0.9977
vn 0.0996 0.1729 0.9799
vn -0.0996 0.1729 0.9799
vn 0.3036 0.1656 0.9383
vn -0.3036 0.1656 0.9383
vn 0.4002 0.0572 0.9147
vn -0.4002 0.0572 0.9147
vn 0.1367 -0.8748 0.4648
vn -0.1054 -0.8433 0.5271
vn 0.2303 -0.8656 0.4447
vn -0.1916 -0.8620 0.4693
vn 0.5788 -0.5049 0.6404
vn -0.5788 -0.5049 0.6404
vn 0.7763 -0.0633 0.6272
vn -0.7763 -0.0633 0.6272
vn 0.7471 0.1132 0.6550
vn -0.7471 0.1132 0.6550
vn 0.3747 -0.8345 0.4040
vn -0.3747 -0.8345 0.4040
vn 0.3557 -0.7290 0.5848
vn -0.4177 -0.5751 0.7034
vn 0.6947 -0.4197 0.5841
vn -0.6947 -0.4197 0.5841
vn 0.7028 -0.3915 0.5939
vn -0.5537 -0.2978 0.7776
vn 0.3127 0.3425 0.8860
vn -0.8227 0.3606 0.4395
vn 0.5091 0.6482 0.5663
vn -0.5041 0.6448 0.5745
vn 0.5977 0.5565 0.5771
vn -0.5977 0.5565 0.5771
vn -0.0486 0.6560 0.7532
vn 0.0371 0.6685 0.7428
vn -0.7104 0.2715 0.6494
vn 0.7386 0.3768 0.5590
vn -0.6013 0.5262 0.6013
vn 0.5774 0.5773 0.5774
vn 0.5070 -0.6281 0.5903
vn -0.5364 -0.3230 0.7797
vn 0.2226 -0.4694 0.8545
vn -0.2226 -0.4694 0.8545
vn -0.0348 -0.5792 0.8144
vn 0.1073 -0.5010 0.8588
vn -0.0899 -0.7843 0.6138
vn 0.0770 -0.5759 0.8139
vn 0.0547 -0.1695 0.9840
vn -0.0279 -0.8645 0.5019
vn 0.4260 -0.0609 0.9027
vn -0.1687 -0.3128 0.9347
vn 0.3352 -0.1828 0.9242
vn -0.4350 -0.1812 0.8820
vn 0.3579 -0.3068 0.8819
vn -0.3223 -0.2762 0.9054
vn 0.3069 0.2113 0.9280
vn -0.4815 -0.2408 0.8427
vn -0.1598 0.3903 0.9067
vn 0.1598 0.3903 0.9067
vn 0.6819 -0.2915 0.6709
vn -0.1854 -0.4956 0.8485
vn 0.0585 -0.0781 0.9952
vn -0.0585 -0.0781 0.9952
vn -0.0066 -0.2316 0.9728
vn -0.0585 -0.0845 0.9947
vn 0.1008 -0.7103 0.6966
vn -0.1008 -0.7103 0.6966
vn 0.1322 -0.5947 0.7930
vn -0.1322 -0.5947 0.7930
vn 0.3128 -0.1662 0.9352
vn -0.3143 -0.3928 0.8642
vn 0.3288 -0.0360 0.9437
vn -0.3288 -0.0360 0.9437
vn 0.3233 -0.0808 0.9429
vn -0.3233 -0.0808 0.9429
vn -0.0232 0.0511 0.9984
vn -0.0000 0.0665 0.9978
vn -0.0043 -0.0651 0.9979
vn -0.0000 -0.0665 0.9978
vn -0.0000 -0.0000 1.0000
vn 0.8447 -0.5335 0.0445
vn -0.8447 -0.5335 0.0445
vn 0.9500 0.2692 -0.1583
vn -0.9500 0.2692 -0.1583
vn 0.0693 0.9004 -0.4294
vn -0.1018 0.9165 -0.3870
vn -1.0000 -0.0000 -0.0000
vn 0.6905 0.5492 0.4708
vn 0.4071 -0.8956 0.1791
vn -0.4319 -0.8639 0.2592
vn 0.2873 -0.5747 0.7663
vn -0.2873 -0.5747 0.7663
vn -0.6326 0.5353 0.5597
vn 0.6326 0.5353 0.5597
vn 0.0862 0.7759 0.6250
vn -0.0862 0.7759 0.6250
vn 0.7533 0.2869 0.5918
vn -0.7639 0.2971 0.5729
vn 0.3416 -0.5409 0.7686
vn -0.3416 -0.5409 0.7686
vn 0.0502 0.2343 0.9709
vn -0.0374 0.2247 0.9737
vn -0.1304 -0.6087 0.7826
vn 0.1304 -0.6087 0.7826
vn -0.5059 0.0716 0.8596
vn 0.5059 0.0716 0.8596
vn -0.5773 -0.5773 0.5774
vn 0.5773 -0.5773 0.5774
vn 0.5460 -0.4310 0.7184
vn -0.3319 0.0738 0.9404
vn 0.3231 0.0311 0.9459
vn -0.2815 0.0662 0.9573
vn 0.7357 0.3910 0.5531
vn -0.8753 0.2059 0.4376
vn 0.8480 0.3180 0.4240
vn -0.8973 0.1994 0.3938
vn 0.8505 0.3798 0.3638
vn -0.8505 0.3798 0.3638
vn 0.1783 -0.4161 0.8917
vn -0.2524 -0.8655 0.4328
vn -0.1296 -0.1945 0.9723
vn 0.1296 -0.1945 0.9723
vn -0.4472 -0.0000 0.8944
vn 0.4472 -0.0000 0.8944
vn -0.1582 0.9494 0.2713
vn 0.1582 0.9494 0.2713
vn -0.6463 0.7337 0.2096
vn 0.6463 0.7337 0.2096
vn 1.0000 -0.0000 -0.0000
vn 0.3051 -0.9450 0.1181
vn -0.3051 -0.9450 0.1181
vn 0.0217 -0.3031 0.9527
vn -0.0217 -0.3031 0.9527
vn 0.1353 -0.3479 0.9277
vn -0.1353 -0.3479 0.9277
vn -0.4681 -0.2239 0.8548
vn 0.4681 -0.2239 0.8548
vn -0.2710 0.0271 0.9622
vn 0.2710 0.0271 0.9622
vn -0.1717 -0.0090 0.9851
vn 0.2595 0.1038 0.9601
vn -0.4332 -0.4874 0.7581
vn 0.6684 -0.4595 0.5849
vn -0.1599 -0.8797 0.4478
vn 0.1599 -0.8797 0.4478
vn 0.3900 -0.5895 0.7074
vn -0.3900 -0.5895 0.7074
vn 0.6547 -0.4589 0.6007
vn -0.6547 -0.4589 0.6007
vn 0.5378 -0.1144 0.8353
vn -0.5378 -0.1144 0.8353
vn 0.5657 0.1197 0.8159
vn -0.5774 0.1155 0.8083
vn 0.4083 0.4082 0.8165
vn -0.5214 0.6574 0.5440
vn 0.1796 0.7882 0.5886
vn -0.1796 0.7882 0.5886
vn 0.1882 0.3387 0.9219
vn -0.1882 0.3387 0.9219
vn -0.0870 0.2756 0.9573
vn 0.0870 0.2756 0.9573
vn 0.2804 -0.2181 0.9348
vn -0.3553 -0.5739 0.7378
vn 0.3015 -0.3015 0.9045
vn -0.3015 -0.3015 0.9045
vn -0.3766 -0.8339 0.4035
vn 0.0631 -0.3156 0.9468
vn 0.0823 -0.7822 0.6175
vn 0.2016 -0.9071 0.3696
vn -0.3707 -0.2851 0.8839
vn 0.3707 -0.2851 0.8839
vn -0.2692 -0.0577 0.9614
vn 0.4568 0.0508 0.8881
vn -0.2797 0.5245 0.8042
vn 0.2797 0.5245 0.8042
vn -0.0213 0.5546 0.8319
vn 0.0487 0.6815 0.7302
vn 0.3778 0.6342 0.6746
vn -0.3378 0.5221 0.7831
vn 0.4988 0.5300 0.6858
vn -0.4988 0.5300 0.6858
vn 0.5425 -0.3391 0.7686
vn -0.5425 -0.3391 0.7686
vn 0.8305 -0.0615 0.5536
vn -0.8305 -0.0615 0.5536
vn 0.7814 0.1116 0.6140
vn -0.7814 0.1116 0.6140
vn -0.4338 0.8888 -0.1481
vn 0.4338 0.8888 -0.1481
vn -0.8515 0.3744 -0.3670
vn 0.8515 0.3744 -0.3670
vn -0.2663 0.8710 -0.4127
vn 0.2197 0.8626 -0.4557
vn 0.5932 0.7445 -0.3063
vn -0.5914 0.7489 -0.2991
vn 0.3714 0.8685 -0.3284
vn -0.3653 0.8833 -0.2938
vn 0.2901 0.9141 -0.2833
vn -0.2901 0.9141 -0.2833
vn 0.8873 0.1343 -0.4412
vn -0.7964 0.1323 -0.5901
vn 0.5108 -0.6649 -0.5450
vn -0.5108 -0.6649 -0.5450
vn 0.3695 -0.8566 -0.3601
vn -0.3695 -0.8566 -0.3601
vn 0.3617 -0.3858 -0.8487
vn -0.1649 -0.6644 -0.7289
vn 0.1952 -0.0976 -0.9759
vn -0.3011 -0.0125 -0.9535
vn -0.0107 -0.5633 -0.8262
vn -0.2562 -0.3112 -0.9152
vn 0.1533 -0.9649 -0.2134
vn -0.1533 -0.9649 -0.2134
vn 0.1260 -0.9624 -0.2406
vn -0.1260 -0.9624 -0.2406
vn 0.9396 0.1573 -0.3041
vn -0.9396 0.1573 -0.3041
vn 0.9278 0.1838 -0.3246
vn -0.9278 0.1838 -0.3246
vn 0.2192 0.0766 -0.9727
vn -0.2192 0.0766 -0.9727
vn 0.1211 -0.0530 -0.9912
vn 0.1497 -0.3635 -0.9195
vn 0.9094 0.1371 -0.3927
vn -0.3706 -0.6780 -0.6349
vn 0.9202 0.1355 -0.3672
vn -0.9202 0.1355 -0.3672
vn 0.9173 0.3440 -0.2007
vn -0.9457 0.2672 -0.1850
vn 0.9004 0.3642 -0.2380
vn -0.9337 0.2813 -0.2215
vn 0.8945 0.4337 0.1084
vn -0.9501 0.2455 -0.1922
vn 0.1596 -0.9577 -0.2394
vn -0.1835 -0.7864 -0.5898
vn 0.3693 -0.4712 -0.8010
vn -0.3727 -0.4759 -0.7966
vn 0.2986 -0.8236 -0.4821
vn -0.3263 -0.8342 -0.4446
vn 0.2995 -0.9442 -0.1368
vn -0.2995 -0.9442 -0.1368
vn 0.3287 -0.9163 -0.2291
vn -0.3287 -0.9163 -0.2291
vn 0.8305 0.3333 -0.4463
vn -0.8642 -0.4737 0.1696
vn 0.9166 -0.3740 0.1414
vn -0.9166 -0.3740 0.1414
vn 0.2950 -0.0454 -0.9544
vn -0.4189 -0.2265 -0.8793
vn 0.1272 0.9658 0.2260
vn -0.1119 0.9626 0.2468
vn 0.1320 0.9750 -0.1788
vn -0.1320 0.9750 -0.1788
vn 0.3878 0.6192 -0.6828
vn -0.3878 0.6192 -0.6828
vn 0.4951 0.8618 -0.1100
vn -0.4951 0.8618 -0.1100
vn 0.2561 0.6447 0.7202
vn -0.2561 0.6447 0.7202
vn 0.5966 0.7888 0.1479
vn -0.5966 0.7888 0.1479
vn 0.7125 0.6755 -0.1900
vn -0.7125 0.6755 -0.1900
vn 0.7104 0.1364 -0.6904
vn -0.6304 0.2517 -0.7343
vn 0.6823 0.2319 -0.6933
vn -0.6823 0.2319 -0.6933
vn 0.6574 0.7254 -0.2040
vn -0.6574 0.7254 -0.2040
vn 0.7289 0.6729 0.1262
vn -0.7289 0.6729 0.1262
vn 0.7791 0.4074 0.4764
vn -0.7791 0.4074 0.4764
vn 0.3669 0.8840 -0.2898
vn -0.3238 0.9434 -0.0720
vn 0.2854 0.6237 0.7277
vn -0.1548 0.5080 0.8473
vn -0.1681 0.1005 -0.9806
vn 0.1681 0.1005 -0.9806
vn 0.2925 0.5674 0.7697
vn -0.2925 0.5674 0.7697
vn -0.1616 0.1847 0.9694
vn 0.1616 0.1847 0.9694
vn 0.8681 0.0893 -0.4883
vn -0.9340 0.2255 0.2773
vn 0.9276 0.0762 0.3657
vn -0.9276 0.0762 0.3657
vn 0.9750 0.2169 0.0490
vn -0.9750 0.2169 0.0490
vn 0.9817 -0.0304 -0.1882
vn -0.9956 0.0893 -0.0288
vn 0.7466 -0.6646 0.0285
vn -0.6374 -0.7651 0.0915
vn 0.3723 -0.9243 0.0847
vn -0.3720 -0.9244 0.0845
vn 0.3986 -0.8754 0.2734
vn -0.3986 -0.8754 0.2734
vn 0.6328 -0.7642 0.1247
vn -0.6328 -0.7642 0.1247
vn 0.7325 -0.6368 0.2407
vn -0.7325 -0.6368 0.2407
vn 0.2637 -0.4499 0.8533
vn -0.2637 -0.4499 0.8533
vn 0.5881 -0.3070 -0.7483
vn -0.5236 -0.3290 -0.7859
vn 0.4694 -0.2400 -0.8498
vn -0.5396 -0.3343 -0.7727
vn 0.4463 -0.8452 -0.2941
vn -0.2144 -0.8341 -0.5082
vn 0.6973 -0.6610 -0.2771
vn -0.7365 -0.6154 -0.2808
vn 0.4972 -0.4408 -0.7473
vn -0.4972 -0.4408 -0.7473
vn 0.3691 0.2855 0.8844
vn -0.3244 0.4867 0.8111
vn 0.4467 0.0975 0.8894
vn -0.4467 0.0975 0.8894
vn 0.3188 0.1993 0.9266
vn -0.1817 -0.0079 0.9833
vn 0.2076 -0.0836 0.9746
vn -0.2925 -0.0758 0.9533
vn 0.3398 0.0824 0.9369
vn -0.5847 -0.2198 0.7809
vn 0.5957 -0.3850 0.7049
vn -0.5957 -0.3850 0.7049
vn 0.4843 0.5580 0.6738
vn -0.4843 0.5580 0.6738
vn -0.2675 0.8318 0.4864
vn 0.2675 0.8318 0.4864
vn -0.8576 0.2223 0.4638
vn 0.7885 0.2365 0.5677
vn -0.5257 -0.3579 0.7717
vn 0.5242 -0.3548 0.7742
vn 0.4663 -0.5991 0.6509
vn -0.4390 -0.5252 0.7290
vn 0.7104 -0.4567 0.5356
vn -0.7104 -0.4567 0.5356
vn 0.7507 -0.6131 -0.2461
vn -0.6302 -0.7658 0.1282
vn -0.1788 0.2923 0.9395
vn 0.2175 0.2733 0.9370
vn 0.9042 -0.3578 -0.2332
vn -0.9042 -0.3578 -0.2332
vn 0.0400 0.3399 0.9396
vn -0.0400 0.3399 0.9396
vn 0.2734 0.9064 0.3221
vn -0.2734 0.9064 0.3221
vn 0.4480 -0.4480 0.7737
vn -0.7177 0.1689 0.6755
vn 0.5534 -0.5534 0.6225
vn -0.9008 -0.4075 0.1501
vn 0.5724 -0.3122 0.7582
vn -0.5815 -0.5217 0.6243
vn 0.5597 -0.5533 0.6169
vn -0.6138 -0.2571 0.7465
vn 0.8271 0.5323 -0.1802
vn -0.8271 0.5323 -0.1802
vn 0.9227 -0.3765 -0.0825
vn -0.8717 -0.4446 -0.2063
vn 0.9972 -0.0181 -0.0725
vn -0.9972 -0.0181 -0.0725
vn 0.6895 -0.6644 0.2883
vn -0.6895 -0.6644 0.2883
vn 0.7815 -0.6176 0.0882
vn -0.7930 -0.5947 0.1322
vn 0.7022 -0.7022 0.1170
vn -0.7022 -0.7022 0.1170
vn 0.1240 0.9921 0.0207
vn -0.2408 0.9631 -0.1204
vn 0.9435 0.3145 0.1048
vn -0.9251 0.3469 0.1542
vn 0.6213 -0.7767 0.1036
vn -0.6213 -0.7767 0.1036
vn -0.0000 1.0000 -0.0000
vn 0.6197 -0.6899 0.3742
vn -0.6197 -0.6899 0.3742
vn 0.2752 -0.8808 0.3853
vn -0.2752 -0.8808 0.3853
vn -0.7929 -0.5252 -0.3089
vn 0.7929 -0.5252 -0.3089
vn -0.8096 0.2429 -0.5343
vn 0.8538 0.2328 -0.4657
vn -0.5621 0.8231 -0.0803
vn 0.5433 0.6985 -0.4657
vn -0.0071 0.9899 0.1414
vn 0.1096 0.9939 -0.0157
vn 0.1046 0.0392 0.9937
vn -0.1738 0.0097 0.9847
vn 0.2461 0.0852 0.9655
vn -0.4135 0.0413 0.9096
vn 0.3009 0.0926 0.9491
vn -0.3009 0.0926 0.9491
vn 0.2104 0.0124 0.9775
vn -0.1220 0.0458 0.9915
vn -0.0099 0.3867 0.9222
vn 0.0099 0.3867 0.9222
vn 0.3787 -0.0364 0.9248
vn -0.4244 -0.0320 0.9049
vn 0.2530 -0.1897 0.9487
vn -0.2570 0.0723 0.9637
vn -0.4871 0.6088 0.6262
vn 0.2981 0.7454 0.5963
vn 0.6693 0.1802 0.7208
vn -0.6693 0.1802 0.7208
vn 0.4388 -0.2008 0.8759
vn -0.4723 -0.1986 0.8588
vn 0.5786 -0.1333 0.8046
vn -0.2975 -0.4062 0.8640
vn 0.5002 0.2833 0.8182
vn -0.5002 0.2833 0.8182
vn 0.2980 0.5802 0.7580
vn -0.2980 0.5802 0.7580
vn 0.0929 -0.9912 -0.0944
vn -0.0929 -0.9912 -0.0944
vn 0.4688 -0.8715 0.1442
vn -0.4688 -0.8715 0.1442
vn 0.9309 -0.2541 0.2624
vn -0.9264 -0.2460 0.2851
vn 0.8465 0.5291 -0.0595
vn -0.8267 0.5627 -0.0035
vn -0.2511 0.9439 -0.2145
vn 0.2146 0.9243 -0.3157
vn -0.4841 0.8743 -0.0361
vn 0.4196 0.8851 -0.2012
vn -0.5256 -0.0030 -0.8507
vn 0.5470 -0.0144 -0.8370
vn -0.1466 0.0104 -0.9891
vn 0.1466 0.0104 -0.9891
vn 0.4046 0.0266 -0.9141
vn -0.4046 0.0266 -0.9141
vn -0.8073 0.5901 0.0041
vn 0.7330 0.6786 0.0472
vn 0.4200 -0.2291 -0.8781
vn -0.4200 -0.2291 -0.8781
vn -0.0687 -0.9943 -0.0818
vn 0.0687 -0.9943 -0.0818
vn 0.6713 -0.1971 0.7145
vn -0.6713 -0.1971 0.7145
vn 0.8326 -0.3017 0.4646
vn -0.8326 -0.3017 0.4646
vn 0.4258 -0.7967 0.4290
vn -0.4258 -0.7967 0.4290
vn 0.3265 -0.4954 0.8050
vn -0.3265 -0.4954 0.8050
vn -0.0649 -0.5714 0.8181
vn 0.0649 -0.5714 0.8181
vn -0.2738 -0.8315 0.4834
vn 0.2738 -0.8315 0.4834
vn -0.7606 -0.3400 0.5531
vn 0.7824 -0.3294 0.5285
vn -0.4658 -0.1863 0.8651
vn 0.4658 -0.1863 0.8651
vn -0.4983 0.1812 0.8478
vn 0.4983 0.1812 0.8478
vn -0.7683 0.3293 0.5488
vn 0.7656 0.3223 0.5568
vn -0.2487 0.8249 0.5076
vn 0.2560 0.8073 0.5317
vn -0.1017 0.5518 0.8277
vn 0.0821 0.6023 0.7940
vn 0.3861 0.5446 0.7445
vn -0.3329 0.5231 0.7846
vn 0.4059 0.7641 0.5014
vn -0.4246 0.7711 0.4745
vn 0.8299 0.2940 0.4742
vn -0.8251 0.2968 0.4808
vn 0.6617 0.2026 0.7219
vn -0.6888 0.1868 0.7005
vn 0.7816 0.3058 -0.5437
vn -0.8400 0.3436 -0.4199
vn 0.2036 0.8146 -0.5431
vn -0.2074 0.8296 -0.5185
vn -0.4381 0.7988 -0.4123
vn 0.4056 0.7605 -0.5070
vn -0.7861 0.3276 -0.5241
vn 0.8642 0.3143 -0.3929
vn -0.8519 -0.3408 -0.3976
vn 0.8519 -0.3408 -0.3976
vn -0.4056 -0.7605 -0.5070
vn 0.4056 -0.7605 -0.5070
vn 0.2074 -0.8296 -0.5185
vn -0.2074 -0.8296 -0.5185
vn 0.8298 -0.3734 -0.4148
vn -0.8298 -0.3734 -0.4148
vn 0.1054 -0.8433 0.5271
vn -0.1367 -0.8748 0.4648
vn 0.1916 -0.8620 0.4693
vn -0.2303 -0.8656 0.4447
vn 0.5959 -0.4256 0.6810
vn -0.5959 -0.4256 0.6810
vn 0.7563 -0.0299 0.6535
vn -0.7563 -0.0299 0.6535
vn 0.8069 0.0689 0.5866
vn -0.8069 0.0689 0.5866
vn 0.2334 -0.7779 0.5834
vn -0.2334 -0.7779 0.5834
vn 0.4177 -0.5751 0.7034
vn -0.3557 -0.7290 0.5848
vn 0.6872 -0.4191 0.5934
vn -0.6872 -0.4191 0.5934
vn 0.5537 -0.2978 0.7776
vn -0.7028 -0.3915 0.5939
vn 0.8227 0.3606 0.4395
vn -0.3127 0.3425 0.8860
vn 0.5041 0.6448 0.5745
vn -0.5091 0.6482 0.5663
vn 0.6155 0.4924 0.6155
vn -0.6155 0.4924 0.6155
vn -0.0371 0.6685 0.7428
vn 0.0486 0.6560 0.7532
vn -0.7386 0.3768 0.5590
vn 0.7104 0.2715 0.6494
vn -0.5774 0.5773 0.5774
vn 0.6013 0.5262 0.6013
vn 0.5364 -0.3230 0.7797
vn -0.5070 -0.6281 0.5903
vn 0.2181 -0.4685 0.8562
vn -0.2181 -0.4685 0.8562
vn -0.1073 -0.5010 0.8588
vn 0.0348 -0.5792 0.8144
vn -0.0770 -0.5759 0.8139
vn 0.0899 -0.7843 0.6138
vn 0.0279 -0.8645 0.5019
vn -0.0547 -0.1695 0.9840
vn 0.1687 -0.3128 0.9347
vn -0.4260 -0.0609 0.9027
vn 0.4350 -0.1812 0.8820
vn -0.3352 -0.1828 0.9242
vn 0.3223 -0.2762 0.9054
vn -0.3579 -0.3068 0.8819
vn 0.4815 -0.2408 0.8427
vn -0.3069 0.2113 0.9280
vn -0.0317 -0.1899 0.9813
vn 0.0317 -0.1899 0.9813
vn 0.1854 -0.4956 0.8485
vn -0.6819 -0.2915 0.6709
vn 0.2623 -0.3498 0.8994
vn -0.2623 -0.3498 0.8994
vn 0.0585 -0.0845 0.9947
vn 0.0066 -0.2316 0.9728
vn -0.0135 -0.6507 0.7592
vn 0.0135 -0.6507 0.7592
vn 0.2404 -0.5477 0.8014
vn -0.2404 -0.5477 0.8014
vn 0.3143 -0.3928 0.8642
vn -0.3128 -0.1662 0.9352
vn 0.2821 -0.0164 0.9592
vn -0.2821 -0.0164 0.9592
vn 0.3273 -0.1432 0.9340
vn -0.3273 -0.1432 0.9340
vn 0.0232 0.0511 0.9984
vn 0.0043 -0.0651 0.9979
vn 0.7826 -0.6087 -0.1304
vn -0.7826 -0.6087 -0.1304
vn 0.9448 0.1919 -0.2657
vn -0.9448 0.1919 -0.2657
vn 0.1018 0.9165 -0.3870
vn -0.0693 0.9004 -0.4294
vn -0.6905 0.5492 0.4708
vn 0.4319 -0.8639 0.2592
vn -0.4071 -0.8956 0.1791
vn -0.6667 0.6667 0.3333
vn 0.6667 0.6667 0.3333
vn 0.1348 0.8086 0.5728
vn -0.1348 0.8086 0.5728
vn 0.7639 0.2971 0.5729
vn -0.7533 0.2869 0.5918
vn 0.4116 -0.8575 0.3087
vn -0.4116 -0.8575 0.3087
vn 0.0374 0.2247 0.9737
vn -0.0502 0.2343 0.9709
vn 0.1304 -0.2609 0.9565
vn -0.1304 -0.2609 0.9565
vn -0.0631 -0.8205 0.5681
vn 0.0631 -0.8205 0.5681
vn 0.7325 0.2817 0.6198
vn -0.7325 0.2817 0.6198
vn 0.3319 0.0738 0.9404
vn -0.5460 -0.4310 0.7184
vn 0.2815 0.0662 0.9573
vn -0.3231 0.0311 0.9459
vn 0.8753 0.2059 0.4376
vn -0.7357 0.3910 0.5531
vn 0.8973 0.1994 0.3938
vn -0.8480 0.3180 0.4240
vn 0.9586 0.0664 0.2767
vn -0.9586 0.0664 0.2767
vn 0.2524 -0.8655 0.4328
vn -0.1783 -0.4161 0.8917
vn -0.1751 -0.2043 0.9631
vn 0.1751 -0.2043 0.9631
vn -0.1220 -0.1829 0.9755
vn 0.1220 -0.1829 0.9755
vn -0.1562 0.3123 0.9370
vn 0.1562 0.3123 0.9370
vn -0.7238 0.6857 0.0762
vn 0.7238 0.6857 0.0762
vn 0.0478 -0.2870 0.9567
vn -0.0478 -0.2870 0.9567
vn -0.5488 -0.3293 0.7683
vn 0.5488 -0.3293 0.7683
vn -0.4945 -0.1130 0.8618
vn 0.4945 -0.1130 0.8618
vn -0.2595 0.1038 0.9601
vn 0.1717 -0.0090 0.9851
vn -0.6684 -0.4595 0.5849
vn 0.4332 -0.4874 0.7581
vn -0.1156 -0.6359 0.7631
vn 0.1156 -0.6359 0.7631
vn 0.4242 -0.6211 0.6590
vn -0.4242 -0.6211 0.6590
vn 0.4767 -0.3557 0.8039
vn -0.4767 -0.3557 0.8039
vn 0.5871 -0.0839 0.8052
vn -0.5871 -0.0839 0.8052
vn 0.5774 0.1155 0.8083
vn -0.5657 0.1197 0.8159
vn 0.5214 0.6574 0.5440
vn -0.4083 0.4082 0.8165
vn 0.3358 0.3478 0.8754
vn -0.3358 0.3478 0.8754
vn 0.1452 0.3775 0.9146
vn -0.1452 0.3775 0.9146
vn 0.0301 0.2306 0.9726
vn -0.0301 0.2306 0.9726
vn 0.3553 -0.5739 0.7378
vn -0.2804 -0.2181 0.9348
vn 0.2627 -0.2252 0.9382
vn -0.2627 -0.2252 0.9382
vn -0.0631 -0.3156 0.9468
vn 0.3766 -0.8339 0.4035
vn -0.2016 -0.9071 0.3696
vn -0.0823 -0.7822 0.6175
vn -0.3356 -0.2397 0.9110
vn 0.3356 -0.2397 0.9110
vn -0.4568 0.0508 0.8881
vn 0.2692 -0.0577 0.9614
vn -0.0247 0.4072 0.9130
vn 0.0247 0.4072 0.9130
vn -0.0487 0.6815 0.7302
vn 0.0213 0.5546 0.8319
vn 0.3378 0.5221 0.7831
vn -0.3778 0.6342 0.6746
vn 0.4988 0.5299 0.6858
vn -0.4988 0.5299 0.6858
vn 0.7895 -0.3158 0.5263
vn -0.7895 -0.3158 0.5263
vn 0.8070 -0.0807 0.5850
vn -0.8070 -0.0807 0.5850
vn 0.7868 0.1211 0.6052
vn -0.7868 0.1211 0.6052
vn -0.6357 0.6811 -0.3633
vn 0.6357 0.6811 -0.3633
vn -0.8507 0.3650 -0.3783
vn 0.8507 0.3650 -0.3783
vn -0.2197 0.8626 -0.4557
vn 0.2663 0.8710 -0.4127
vn 0.5914 0.7489 -0.2991
vn -0.5932 0.7445 -0.3063
vn 0.3653 0.8833 -0.2938
vn -0.3714 0.8685 -0.3284
vn 0.2760 0.9159 -0.2915
vn -0.2760 0.9159 -0.2915
vn 0.7964 0.1323 -0.5901
vn -0.8873 0.1343 -0.4412
vn 0.5442 -0.7524 -0.3712
vn -0.5442 -0.7524 -0.3712
vn 0.4027 -0.7323 -0.5492
vn -0.4027 -0.7323 -0.5492
vn 0.1649 -0.6644 -0.7289
vn -0.3617 -0.3858 -0.8487
vn 0.3011 -0.0125 -0.9535
vn -0.1952 -0.0976 -0.9759
vn 0.2562 -0.3112 -0.9152
vn 0.0107 -0.5633 -0.8262
vn 0.0778 -0.9948 -0.0663
vn -0.0778 -0.9948 -0.0663
vn 0.1095 -0.9718 -0.2090
vn -0.1095 -0.9718 -0.2090
vn 0.8150 -0.5621 -0.1405
vn -0.8150 -0.5621 -0.1405
vn 0.9358 0.1396 -0.3236
vn -0.9358 0.1396 -0.3236
vn 0.1132 -0.0274 -0.9932
vn -0.1132 -0.0274 -0.9932
vn -0.1497 -0.3635 -0.9195
vn -0.1211 -0.0530 -0.9912
vn 0.3706 -0.6780 -0.6349
vn -0.9094 0.1371 -0.3927
vn 0.9193 0.1393 -0.3682
vn -0.9193 0.1393 -0.3682
vn 0.9457 0.2672 -0.1850
vn -0.9173 0.3440 -0.2007
vn 0.9337 0.2813 -0.2215
vn -0.9004 0.3642 -0.2380
vn 0.9501 0.2455 -0.1922
vn -0.8945 0.4337 0.1084
vn 0.1835 -0.7864 -0.5898
vn -0.1596 -0.9577 -0.2394
vn 0.3727 -0.4759 -0.7966
vn -0.3693 -0.4712 -0.8010
vn 0.3263 -0.8342 -0.4446
vn -0.2986 -0.8236 -0.4821
vn 0.2620 -0.9574 -0.1217
vn -0.2620 -0.9574 -0.1217
vn 0.2996 -0.9443 -0.1362
vn -0.2996 -0.9443 -0.1362
vn 0.8642 -0.4737 0.1696
vn -0.8305 0.3333 -0.4463
vn 0.6869 -0.6358 0.3521
vn -0.6869 -0.6358 0.3521
vn 0.4189 -0.2265 -0.8793
vn -0.2950 -0.0454 -0.9544
vn 0.1119 0.9626 0.2468
vn -0.1272 0.9658 0.2260
vn 0.1208 0.9734 -0.1947
vn -0.1208 0.9734 -0.1947
vn 0.3140 0.5711 -0.7585
vn -0.3140 0.5711 -0.7585
vn 0.3231 0.9288 -0.1817
vn -0.3231 0.9288 -0.1817
vn 0.0452 0.7955 0.6043
vn -0.0452 0.7955 0.6043
vn 0.6144 0.7696 0.1738
vn -0.6144 0.7696 0.1738
vn 0.6934 0.6857 -0.2212
vn -0.6934 0.6857 -0.2212
vn 0.6304 0.2517 -0.7343
vn -0.7104 0.1364 -0.6904
vn 0.3179 0.5704 -0.7574
vn -0.3179 0.5704 -0.7574
vn 0.6289 0.7624 -0.1525
vn -0.6289 0.7624 -0.1525
vn 0.7088 0.6833 0.1752
vn -0.7088 0.6833 0.1752
vn 0.6885 0.3830 0.6158
vn -0.6885 0.3830 0.6158
vn 0.3238 0.9434 -0.0720
vn -0.3669 0.8840 -0.2898
vn 0.1548 0.5080 0.8473
vn -0.2854 0.6237 0.7277
vn -0.1819 0.1145 -0.9766
vn 0.1819 0.1145 -0.9766
vn -0.2638 0.9462 -0.1871
vn 0.2638 0.9462 -0.1871
vn 0.9340 0.2255 0.2773
vn -0.8681 0.0893 -0.4883
vn 0.9758 0.1241 0.1800
vn -0.9758 0.1241 0.1800
vn 0.9613 0.1472 -0.2330
vn -0.9613 0.1472 -0.2330
vn 0.9956 0.0893 -0.0288
vn -0.9817 -0.0304 -0.1882
vn 0.6374 -0.7651 0.0915
vn -0.7466 -0.6646 0.0285
vn 0.3720 -0.9244 0.0845
vn -0.3723 -0.9243 0.0847
vn 0.5281 -0.8354 0.1522
vn -0.5281 -0.8354 0.1522
vn 0.3070 -0.5237 0.7946
vn -0.3070 -0.5237 0.7946
vn 0.5236 -0.3290 -0.7859
vn -0.5881 -0.3070 -0.7483
vn 0.5396 -0.3343 -0.7727
vn -0.4694 -0.2400 -0.8498
vn 0.2144 -0.8341 -0.5082
vn -0.4463 -0.8452 -0.2941
vn 0.7365 -0.6154 -0.2808
vn -0.6973 -0.6610 -0.2771
vn 0.3244 0.4867 0.8111
vn -0.3691 0.2855 0.8844
vn 0.4649 0.2593 0.8465
vn -0.4649 0.2593 0.8465
vn 0.1817 -0.0079 0.9833
vn -0.3188 0.1993 0.9266
vn 0.2925 -0.0758 0.9533
vn -0.2076 -0.0836 0.9746
vn 0.5847 -0.2198 0.7809
vn -0.3398 0.0824 0.9369
vn 0.6509 -0.1939 0.7340
vn -0.6509 -0.1939 0.7340
vn 0.4075 0.7506 0.5201
vn -0.4075 0.7506 0.5201
vn -0.2655 0.8296 0.4912
vn 0.2655 0.8296 0.4912
vn -0.7885 0.2365 0.5677
vn 0.8576 0.2223 0.4638
vn -0.5242 -0.3548 0.7742
vn 0.5257 -0.3579 0.7717
vn 0.4390 -0.5252 0.7290
vn -0.4663 -0.5991 0.6509
vn 0.6888 -0.4428 0.5740
vn -0.6888 -0.4428 0.5740
vn 0.6302 -0.7658 0.1282
vn -0.7507 -0.6131 -0.2461
vn -0.2175 0.2733 0.9370
vn 0.1788 0.2923 0.9395
vn 0.9046 -0.3869 -0.1792
vn -0.9046 -0.3869 -0.1792
vn 0.1782 -0.0891 0.9800
vn -0.1782 -0.0891 0.9800
vn -0.2335 0.8972 0.3748
vn 0.2335 0.8972 0.3748
vn 0.7177 0.1689 0.6755
vn -0.4480 -0.4480 0.7737
vn 0.5313 0.5844 0.6134
vn -0.5313 0.5844 0.6134
vn 0.9008 -0.4075 0.1501
vn -0.5534 -0.5534 0.6225
vn 0.5815 -0.5217 0.6243
vn -0.5724 -0.3122 0.7582
vn 0.6138 -0.2571 0.7465
vn -0.5597 -0.5533 0.6169
vn 0.8779 -0.4788 0.0076
vn -0.8779 -0.4788 0.0076
vn 0.8717 -0.4446 -0.2063
vn -0.9227 -0.3765 -0.0825
vn 0.7661 -0.6363 0.0909
vn -0.7661 -0.6363 0.0909
vn 0.7930 -0.5947 0.1322
vn -0.7815 -0.6176 0.0882
vn 0.7022 -0.7023 0.1171
vn -0.7022 -0.7023 0.1171
vn 0.2408 0.9631 -0.1204
vn -0.1240 0.9921 0.0207
vn 0.9251 0.3469 0.1542
vn -0.9435 0.3145 0.1048
vn 0.7071 -0.7071 -0.0000
vn -0.7071 -0.7071 -0.0000
vn -0.0157 0.9898 0.1414
vn 0.0157 0.9898 0.1414
vn 0.6266 -0.7211 0.2956
vn -0.6266 -0.7211 0.2956
vn 0.2714 -0.9022 0.3353
vn -0.2714 -0.9022 0.3353
vn -0.8651 -0.4853 -0.1266
vn 0.8651 -0.4853 -0.1266
vn -0.8538 0.2328 -0.4657
vn 0.8096 0.2429 -0.5343
vn -0.5433 0.6985 -0.4657
vn 0.5621 0.8231 -0.0803
vn -0.1096 0.9939 -0.0157
vn 0.0071 0.9899 0.1414
vn 0.1738 0.0097 0.9847
vn -0.1046 0.0392 0.9937
vn 0.4135 0.0413 0.9096
vn -0.2461 0.0852 0.9655
vn 0.3228 -0.0461 0.9453
vn -0.3228 -0.0461 0.9453
vn 0.1220 0.0458 0.9915
vn -0.2104 0.0124 0.9775
vn 0.5679 0.1916 0.8005
vn -0.5679 0.1916 0.8005
vn 0.4244 -0.0320 0.9049
vn -0.3787 -0.0364 0.9248
vn 0.2570 0.0723 0.9637
vn -0.2530 -0.1897 0.9487
vn 0.1351 -0.0225 0.9906
vn -0.1351 -0.0225 0.9906
vn -0.2981 0.7454 0.5963
vn 0.4871 0.6088 0.6262
vn 0.5571 -0.1486 0.8171
vn -0.5571 -0.1486 0.8171
vn 0.4723 -0.1986 0.8588
vn -0.4388 -0.2008 0.8759
vn 0.2975 -0.4062 0.8640
vn -0.5786 -0.1333 0.8046
vn 0.5771 0.2164 0.7875
vn -0.5771 0.2164 0.7875
vn 0.0931 -0.9932 -0.0692
vn -0.0931 -0.9932 -0.0692
vn 0.5161 -0.8527 -0.0812
vn -0.5161 -0.8527 -0.0812
vn 0.9264 -0.2460 0.2851
vn -0.9309 -0.2541 0.2624
vn 0.8267 0.5627 -0.0035
vn -0.8465 0.5291 -0.0595
vn -0.2146 0.9243 -0.3157
vn 0.2511 0.9439 -0.2145
vn -0.4196 0.8851 -0.2012
vn 0.4841 0.8743 -0.0361
vn -0.5470 -0.0144 -0.8370
vn 0.5256 -0.0030 -0.8507
vn -0.2556 -0.0749 -0.9639
vn 0.2556 -0.0749 -0.9639
vn -0.7330 0.6786 0.0472
vn 0.8073 0.5901 0.0041
vn 0.6844 -0.1711 -0.7088
vn -0.6844 -0.1711 -0.7088
vn -0.3604 -0.8283 -0.4290
vn 0.3604 -0.8283 -0.4290
vt 0.708065 0.513479
vt 0.687203 0.517961
vt 0.696187 0.508053
vt 0.417407 0.527499
vt 0.422951 0.520598
vt 0.429661 0.524527
vt 0.666916 0.517961
vt 0.681843 0.501501
vt 0.417407 0.534210
vt 0.437765 0.529272
vt 0.681843 0.534422
vt 0.397049 0.529272
vt 0.704000 0.517961
vt 0.696187 0.527870
vt 0.405153 0.524527
vt 0.417407 0.521942
vt 0.708065 0.522444
vt 0.717879 0.531974
vt 0.400077 0.517351
vt 0.411863 0.520598
vt 0.717879 0.541240
vt 0.388617 0.517351
vt 0.739570 0.527870
vt 0.405153 0.510175
vt 0.397049 0.505430
vt 0.717879 0.524301
vt 0.409567 0.517351
vt 0.727692 0.522444
vt 0.748555 0.517961
vt 0.417407 0.507203
vt 0.411863 0.514105
vt 0.753914 0.534422
vt 0.417407 0.500492
vt 0.739570 0.508053
vt 0.768841 0.517961
vt 0.429661 0.510175
vt 0.437765 0.505430
vt 0.727692 0.513479
vt 0.731757 0.517961
vt 0.422951 0.514105
vt 0.717879 0.511622
vt 0.425247 0.517351
vt 0.434737 0.517351
vt 0.717879 0.503949
vt 0.753914 0.501501
vt 0.446197 0.517351
vt 0.717879 0.494682
vt 0.709916 0.514324
vt 0.421905 0.519985
vt 0.423769 0.517351
vt 0.717879 0.512817
vt 0.421905 0.514717
vt 0.725841 0.514324
vt 0.417407 0.512760
vt 0.417407 0.513626
vt 0.729140 0.517961
vt 0.412908 0.514717
vt 0.717879 0.523105
vt 0.725841 0.521598
vt 0.411045 0.517351
vt 0.709916 0.521598
vt 0.412908 0.519985
vt 0.706618 0.517961
vt 0.417407 0.521077
vt 0.717879 0.517961
vt 0.417407 0.517351
vt 0.599907 0.279173
vt 0.571025 0.264413
vt 0.606154 0.270800
vt 0.542143 0.279173
vt 0.571025 0.275018
vt 0.609379 0.281467
vt 0.622685 0.275579
vt 0.532671 0.281467
vt 0.535896 0.270800
vt 0.626792 0.278473
vt 0.515258 0.278473
vt 0.519365 0.275579
vt 0.646836 0.294409
vt 0.615636 0.290634
vt 0.526414 0.290634
vt 0.495214 0.294409
vt 0.682374 0.328453
vt 0.620601 0.302875
vt 0.521449 0.302875
vt 0.459676 0.328453
vt 0.718450 0.387736
vt 0.741440 0.457187
vt 0.631892 0.433368
vt 0.400610 0.457187
vt 0.423600 0.387736
vt 0.510158 0.433368
vt 0.823284 0.459290
vt 0.785769 0.425600
vt 0.315058 0.459290
vt 0.338713 0.481230
vt 0.385765 0.821951
vt 0.388473 0.835278
vt 0.378196 0.828273
vt 0.306598 0.505544
vt 0.404008 0.845361
vt 0.406713 0.830563
vt 0.258051 0.540541
vt 0.300473 0.535674
vt 0.396865 0.850466
vt 0.390433 0.843959
vt 0.280373 0.558258
vt 0.318113 0.545408
vt 0.815613 0.596040
vt 0.822307 0.545408
vt 0.834384 0.558258
vt 0.339030 0.596040
vt 0.378278 0.577563
vt 0.730767 0.596611
vt 0.763772 0.577563
vt 0.411282 0.596611
vt 0.708490 0.625118
vt 0.744478 0.622099
vt 0.433560 0.625118
vt 0.439824 0.598775
vt 0.625330 0.613478
vt 0.702226 0.598775
vt 0.516720 0.613478
vt 0.503488 0.578853
vt 0.571025 0.608755
vt 0.638562 0.578853
vt 0.571025 0.564258
vt 0.705119 0.559256
vt 0.671328 0.557872
vt 0.436930 0.559256
vt 0.727226 0.556361
vt 0.751096 0.548636
vt 0.414824 0.556361
vt 0.788561 0.534084
vt 0.390954 0.548636
vt 0.827952 0.535674
vt 0.800943 0.522417
vt 0.353489 0.534084
vt 0.825992 0.505544
vt 0.794045 0.504995
vt 0.341106 0.522417
vt 0.815715 0.481230
vt 0.759862 0.484574
vt 0.348005 0.504995
vt 0.727704 0.474600
vt 0.382188 0.484574
vt 0.672234 0.488040
vt 0.414346 0.474600
vt 0.571025 0.472029
vt 0.469816 0.488040
vt 0.645658 0.537111
vt 0.496391 0.537111
vt 0.571025 0.517368
vt 0.645041 0.514936
vt 0.497009 0.514936
vt 0.657323 0.498645
vt 0.484727 0.498645
vt 0.582591 0.286399
vt 0.559459 0.286399
vt 0.591009 0.291904
vt 0.551041 0.291904
vt 0.591671 0.305348
vt 0.634693 0.341331
vt 0.594558 0.309263
vt 0.547492 0.309263
vt 0.507357 0.341331
vt 0.550379 0.305348
vt 0.571025 0.372872
vt 0.595207 0.347247
vt 0.605332 0.379949
vt 0.546843 0.347247
vt 0.571025 0.348222
vt 0.571025 0.312274
vt 0.571025 0.303135
vt 0.622348 0.396329
vt 0.600989 0.388062
vt 0.541060 0.388062
vt 0.519702 0.396329
vt 0.536718 0.379949
vt 0.611179 0.415806
vt 0.608173 0.397714
vt 0.533877 0.397714
vt 0.530871 0.415806
vt 0.584952 0.414211
vt 0.571025 0.421101
vt 0.557098 0.414211
vt 0.538871 0.411519
vt 0.571025 0.408834
vt 0.571025 0.414193
vt 0.571025 0.380531
vt 0.571025 0.387396
vt 0.548062 0.392880
vt 0.585982 0.409086
vt 0.556068 0.409086
vt 0.596861 0.407306
vt 0.603179 0.411519
vt 0.545189 0.407306
vt 0.542346 0.398042
vt 0.593988 0.392880
vt 0.599704 0.398042
vt 0.571025 0.402560
vt 0.646011 0.388545
vt 0.496039 0.388545
vt 0.500927 0.369763
vt 0.641123 0.369763
vt 0.704448 0.353279
vt 0.437602 0.353279
vt 0.712223 0.368983
vt 0.429827 0.368983
vt 0.587836 0.302483
vt 0.554214 0.302483
vt 0.571025 0.301700
vt 0.587500 0.293584
vt 0.554550 0.293584
vt 0.579838 0.288182
vt 0.562212 0.288182
vt 0.571025 0.284422
vt 0.571025 0.286494
vt 0.571025 0.291576
vt 0.565182 0.292121
vt 0.582321 0.294688
vt 0.576868 0.292121
vt 0.559728 0.294688
vt 0.582596 0.298360
vt 0.559454 0.298360
vt 0.571025 0.297150
vt 0.676800 0.505465
vt 0.671422 0.516520
vt 0.465250 0.505465
vt 0.470628 0.516520
vt 0.678189 0.529382
vt 0.463860 0.529382
vt 0.690534 0.541487
vt 0.451516 0.541487
vt 0.453577 0.499078
vt 0.723535 0.492291
vt 0.688473 0.499078
vt 0.418515 0.492291
vt 0.744357 0.497961
vt 0.397693 0.497961
vt 0.769664 0.508440
vt 0.372386 0.508440
vt 0.771299 0.521043
vt 0.370751 0.521043
vt 0.374487 0.529683
vt 0.767563 0.529683
vt 0.404080 0.536274
vt 0.725085 0.542640
vt 0.737969 0.536274
vt 0.416965 0.542640
vt 0.710332 0.543892
vt 0.431718 0.543892
vt 0.713500 0.535401
vt 0.428549 0.535401
vt 0.437680 0.531734
vt 0.723097 0.534818
vt 0.418952 0.534818
vt 0.734446 0.531582
vt 0.407603 0.531582
vt 0.750843 0.524524
vt 0.391206 0.524524
vt 0.753762 0.519285
vt 0.388287 0.519285
vt 0.752490 0.512676
vt 0.389559 0.512676
vt 0.737717 0.504150
vt 0.404333 0.504150
vt 0.723453 0.501093
vt 0.418596 0.501093
vt 0.700531 0.505765
vt 0.441518 0.505765
vt 0.694559 0.511312
vt 0.447491 0.511312
vt 0.695367 0.525389
vt 0.704370 0.531734
vt 0.446683 0.525389
vt 0.693908 0.517394
vt 0.448142 0.517394
vt 0.621311 0.656746
vt 0.571025 0.656746
vt 0.520738 0.656746
vt 0.714549 0.656746
vt 0.427501 0.656746
vt 0.397572 0.622099
vt 0.363581 0.645478
vt 0.757384 0.633152
vt 0.289097 0.615143
vt 0.394073 0.866856
vt 0.378094 0.861352
vt 0.229277 0.568504
vt 0.419014 0.844676
vt 0.413216 0.853418
vt 0.211159 0.538164
vt 0.249598 0.489181
vt 0.224488 0.480186
vt 0.397728 0.817295
vt 0.414749 0.827972
vt 0.277676 0.443130
vt 0.825039 0.407894
vt 0.835247 0.443130
vt 0.332717 0.415831
vt 0.667295 0.281399
vt 0.738297 0.266961
vt 0.699227 0.275100
vt 0.214226 0.876818
vt 0.236390 0.892815
vt 0.209915 0.885697
vt 0.666611 0.250255
vt 0.645102 0.272738
vt 0.477965 0.264827
vt 0.475439 0.250255
vt 0.440652 0.325513
vt 0.617091 0.259279
vt 0.571025 0.242200
vt 0.512761 0.252194
vt 0.524958 0.259279
vt 0.634160 0.271105
vt 0.507890 0.271105
vt 0.670250 0.275658
vt 0.471800 0.275658
vt 0.720504 0.296668
vt 0.437360 0.303858
vt 0.688831 0.312035
vt 0.752921 0.326822
vt 0.340764 0.293544
vt 0.389129 0.326822
vt 0.762121 0.347512
vt 0.379928 0.347512
vt 0.392134 0.366203
vt 0.741843 0.378241
vt 0.400206 0.378241
vt 0.356280 0.425600
vt 0.499066 0.785009
vt 0.499986 0.757593
vt 0.533113 0.768769
vt 0.109262 0.894053
vt 0.108500 0.872867
vt 0.125608 0.890216
vt 0.479330 0.780045
vt 0.425330 0.757377
vt 0.147494 0.869040
vt 0.151424 0.886818
vt 0.391760 0.775817
vt 0.383650 0.758042
vt 0.198138 0.886949
vt 0.204855 0.873213
vt 0.678843 0.296027
vt 0.296326 0.299167
vt 0.436073 0.809349
vt 0.448458 0.819768
vt 0.157850 0.415549
vt 0.119146 0.451711
vt 0.515258 0.803014
vt 0.568535 0.795959
vt 0.095852 0.907967
vt 0.081063 0.881503
vt 0.490745 0.854295
vt 0.552973 0.857320
vt 0.520864 0.876501
vt 0.116154 0.947594
vt 0.064614 0.949932
vt 0.099587 0.938674
vt 0.522761 0.828317
vt 0.575172 0.825950
vt 0.089637 0.927519
vt 0.046229 0.925690
vt 0.051725 0.902514
vt 0.425853 0.852133
vt 0.436688 0.841384
vt 0.448297 0.845875
vt 0.160926 0.937618
vt 0.169900 0.945924
vt 0.151311 0.941088
vt 0.463123 0.834094
vt 0.481163 0.839325
vt 0.139032 0.931984
vt 0.124091 0.936026
vt 0.479511 0.826276
vt 0.496723 0.830307
vt 0.125459 0.925942
vt 0.111203 0.929057
vt 0.486155 0.817400
vt 0.503768 0.819907
vt 0.119956 0.919083
vt 0.105368 0.921020
vt 0.494529 0.804085
vt 0.474018 0.806972
vt 0.113020 0.908794
vt 0.510748 0.842751
vt 0.451635 0.862342
vt 0.436576 0.867189
vt 0.148546 0.953813
vt 0.480133 0.891635
vt 0.091208 0.964755
vt 0.462425 0.889740
vt 0.426988 0.880032
vt 0.168960 0.967483
vt 0.139610 0.974985
vt 0.161019 0.957559
vt 0.124944 0.976449
vt 0.464323 0.897375
vt 0.138038 0.980885
vt 0.155928 0.526738
vt 0.151178 0.920913
vt 0.459166 0.818174
vt 0.142309 0.919681
vt 0.468292 0.810812
vt 0.134751 0.913992
vt 0.448161 0.775647
vt 0.407790 0.793676
vt 0.184861 0.900750
vt 0.149863 0.896569
vt 0.455896 0.800533
vt 0.145017 0.906049
vt 0.246234 0.361153
vt 0.759210 0.380670
vt 0.711553 0.331011
vt 0.749916 0.366203
vt 0.468747 0.801075
vt 0.134374 0.906468
vt 0.122178 0.899077
vt 0.450046 0.788264
vt 0.483472 0.791511
vt 0.794318 0.578852
vt 0.845454 0.541919
vt 0.845433 0.580249
vt 0.253380 0.541093
vt 0.221671 0.488773
vt 0.259221 0.502153
vt 0.880640 0.524163
vt 0.914919 0.545641
vt 0.194871 0.459802
vt 0.190378 0.525951
vt 0.121701 0.472227
vt 0.958842 0.488150
vt 0.167416 0.399301
vt 0.206980 0.425226
vt 0.889851 0.490115
vt 0.905567 0.455164
vt 0.212587 0.387477
vt 0.232307 0.407229
vt 0.880500 0.466847
vt 0.886488 0.432776
vt 0.247944 0.373793
vt 0.261299 0.395214
vt 0.843135 0.431416
vt 0.871141 0.419209
vt 0.296079 0.388154
vt 0.290422 0.359373
vt 0.865275 0.447789
vt 0.836311 0.449084
vt 0.292024 0.406832
vt 0.850976 0.460116
vt 0.268865 0.411681
vt 0.865342 0.490684
vt 0.233322 0.434572
vt 0.248364 0.420999
vt 0.858759 0.508153
vt 0.229134 0.452981
vt 0.841251 0.518003
vt 0.241808 0.468328
vt 0.821170 0.517809
vt 0.263821 0.475381
vt 0.450520 0.807130
vt 0.149470 0.911147
vt 0.142303 0.908790
vt 0.808452 0.421129
vt 0.858570 0.408605
vt 0.340571 0.391197
vt 0.769421 0.549461
vt 0.810487 0.542780
vt 0.299634 0.523073
vt 0.819614 0.444291
vt 0.313340 0.408443
vt 0.794745 0.440371
vt 0.810527 0.451764
vt 0.342994 0.413798
vt 0.803389 0.465604
vt 0.809374 0.461643
vt 0.318383 0.418576
vt 0.317160 0.433852
vt 0.313213 0.428061
vt 0.778947 0.497151
vt 0.799705 0.488444
vt 0.323278 0.471617
vt 0.804878 0.508323
vt 0.781006 0.532542
vt 0.287749 0.472537
vt 0.306318 0.456149
vt 0.298012 0.503368
vt 0.468091 0.809707
vt 0.134917 0.913138
vt 0.465448 0.808467
vt 0.137107 0.912180
vt 0.140748 0.909617
vt 0.459173 0.804079
vt 0.461050 0.805150
vt 0.817632 0.494496
vt 0.828064 0.502131
vt 0.282843 0.455250
vt 0.266506 0.458504
vt 0.297087 0.446589
vt 0.809733 0.471955
vt 0.811604 0.482698
vt 0.306115 0.437399
vt 0.304096 0.431756
vt 0.814206 0.467562
vt 0.303984 0.424004
vt 0.823169 0.455185
vt 0.818373 0.460754
vt 0.302379 0.417165
vt 0.831519 0.460511
vt 0.289813 0.419049
vt 0.839623 0.504131
vt 0.252607 0.456178
vt 0.847802 0.499764
vt 0.246533 0.449224
vt 0.851451 0.490147
vt 0.248812 0.439081
vt 0.848418 0.479627
vt 0.861309 0.474318
vt 0.258961 0.430514
vt 0.841008 0.469275
vt 0.273771 0.423678
vt 0.819345 0.475899
vt 0.293072 0.437559
vt 0.291079 0.428519
vt 0.825590 0.468501
vt 0.825982 0.484832
vt 0.280028 0.443371
vt 0.277443 0.433467
vt 0.839903 0.484768
vt 0.833831 0.492089
vt 0.264897 0.438300
vt 0.266753 0.447208
vt 0.841375 0.496624
vt 0.255581 0.448655
vt 0.256430 0.442012
vt 0.844243 0.490513
vt 0.900075 0.392495
vt 0.912609 0.420487
vt 0.259338 0.331918
vt 0.227468 0.353105
vt 0.922357 0.442262
vt 0.202680 0.369587
vt 0.931633 0.453607
vt 0.185190 0.376664
vt 0.939619 0.439790
vt 0.979015 0.469077
vt 0.185474 0.361102
vt 0.941516 0.414418
vt 0.983717 0.434633
vt 0.154115 0.361033
vt 0.199911 0.337125
vt 0.927649 0.403890
vt 0.944994 0.398310
vt 0.167080 0.319751
vt 0.219622 0.314540
vt 0.932224 0.387868
vt 0.900561 0.348284
vt 0.190865 0.273806
vt 0.182010 0.292522
vt 0.891370 0.375458
vt 0.237227 0.296596
vt 0.299839 0.300652
vt 0.358327 0.343630
vt 0.384788 0.846764
vt 0.470721 0.557872
vt 0.801721 0.607953
vt 0.246279 0.879303
vt 0.175565 0.940162
vt 0.130008 0.911025
vt 0.435307 0.888782
vt 0.162070 0.974245
vt 0.161436 0.912862
vt 0.380115 0.809430
vt 0.833121 0.476844
s 0
usemtl Material.001
f 47/1/1 3/2/1 45/3/1
f 4/4/2 48/5/2 46/6/2
f 45/3/3 5/7/3 43/8/3
f 6/9/4 46/6/4 44/10/4
f 3/2/5 7/11/5 5/7/5
f 8/12/6 4/4/6 6/9/6
f 1/13/7 9/14/7 3/2/7
f 10/15/8 2/16/8 4/4/8
f 11/17/9 15/18/9 9/14/9
f 16/19/10 12/20/10 10/15/10
f 9/14/11 17/21/11 7/11/11
f 18/22/12 10/15/12 8/12/12
f 21/23/13 17/21/13 15/18/13
f 22/24/14 18/22/14 20/25/14
f 13/26/15 21/23/15 15/18/15
f 22/24/16 14/27/16 16/19/16
f 23/28/17 27/29/17 21/23/17
f 28/30/18 24/31/18 22/24/18
f 27/29/19 19/32/19 21/23/19
f 28/30/20 20/25/20 30/33/20
f 33/34/21 29/35/21 27/29/21
f 34/36/22 30/33/22 32/37/22
f 35/38/23 27/29/23 25/39/23
f 36/40/24 28/30/24 34/36/24
f 37/41/25 33/34/25 35/38/25
f 38/42/26 34/36/26 40/43/26
f 39/44/27 31/45/27 33/34/27
f 40/43/28 32/37/28 42/46/28
f 45/3/29 41/47/29 39/44/29
f 46/6/30 42/46/30 44/10/30
f 47/1/31 39/44/31 37/41/31
f 48/5/32 40/43/32 46/6/32
f 37/41/33 49/48/33 47/1/33
f 38/42/34 50/49/34 52/50/34
f 35/38/35 51/51/35 37/41/35
f 36/40/36 52/50/36 54/52/36
f 25/39/37 53/53/37 35/38/37
f 26/54/38 54/52/38 56/55/38
f 23/28/39 55/56/39 25/39/39
f 24/31/40 56/55/40 58/57/40
f 23/28/41 59/58/41 57/59/41
f 60/60/42 24/31/42 58/57/42
f 13/26/43 63/61/43 59/58/43
f 64/62/44 14/27/44 60/60/44
f 11/17/45 65/63/45 63/61/45
f 66/64/46 12/20/46 64/62/46
f 1/13/47 49/48/47 65/63/47
f 50/49/48 2/16/48 66/64/48
f 61/65/49 65/63/49 49/48/49
f 50/49/50 66/64/50 62/66/50
f 63/61/51 65/63/51 61/65/51
f 62/66/52 66/64/52 64/62/52
f 61/65/53 59/58/53 63/61/53
f 64/62/54 60/60/54 62/66/54
f 61/65/55 57/59/55 59/58/55
f 60/60/56 58/57/56 62/66/56
f 61/65/57 55/56/57 57/59/57
f 58/57/58 56/55/58 62/66/58
f 61/65/59 53/53/59 55/56/59
f 56/55/60 54/52/60 62/66/60
f 61/65/61 51/51/61 53/53/61
f 54/52/62 52/50/62 62/66/62
f 61/65/63 49/48/63 51/51/63
f 52/50/64 50/49/64 62/66/64
f 174/67/65 91/68/65 89/69/65
f 175/70/66 91/68/66 176/71/66
f 172/72/67 89/69/67 87/73/67
f 173/74/68 90/75/68 175/70/68
f 85/76/69 172/72/69 87/73/69
f 173/74/70 86/77/70 88/78/70
f 83/79/71 170/80/71 85/76/71
f 171/81/72 84/82/72 86/77/72
f 81/83/73 168/84/73 83/79/73
f 169/85/74 82/86/74 84/82/74
f 79/87/75 146/88/75 164/89/75
f 147/90/76 80/91/76 165/92/76
f 94/93/77 146/88/77 92/94/77
f 95/95/78 147/90/78 149/96/78
f 94/97/79 150/98/79 148/99/79
f 151/100/80 95/95/80 149/96/80
f 98/101/81 150/98/81 96/102/81
f 99/103/82 151/100/82 153/104/82
f 100/105/83 152/106/83 98/101/83
f 101/107/84 153/104/84 155/108/84
f 102/109/85 154/110/85 100/111/85
f 103/112/86 155/108/86 157/113/86
f 102/109/87 158/114/87 156/115/87
f 159/116/88 103/112/88 157/113/88
f 106/117/89 158/114/89 104/118/89
f 107/119/90 159/116/90 161/120/90
f 108/121/91 160/122/91 106/117/91
f 109/123/92 161/120/92 163/124/92
f 67/125/93 162/126/93 108/121/93
f 67/125/94 163/124/94 68/127/94
f 128/128/95 162/126/95 110/129/95
f 129/130/96 163/124/96 161/120/96
f 128/128/97 158/114/97 160/122/97
f 159/116/98 129/130/98 161/120/98
f 156/115/99 179/131/99 126/132/99
f 157/113/100 180/133/100 159/116/100
f 154/110/101 126/132/101 124/134/101
f 155/108/102 127/135/102 157/113/102
f 152/136/103 124/134/103 122/137/103
f 153/104/104 125/138/104 155/108/104
f 150/139/105 122/137/105 120/140/105
f 151/100/106 123/141/106 153/104/106
f 148/142/107 120/140/107 118/143/107
f 149/96/108 121/144/108 151/100/108
f 146/88/109 118/143/109 116/145/109
f 147/90/110 119/146/110 149/96/110
f 164/89/111 116/145/111 114/147/111
f 165/92/112 117/148/112 147/90/112
f 114/147/113 177/149/113 164/89/113
f 177/149/114 115/150/114 165/92/114
f 162/126/115 112/151/115 110/129/115
f 163/124/116 113/152/116 68/127/116
f 112/151/117 178/153/117 183/154/117
f 178/153/118 113/152/118 184/155/118
f 181/156/119 178/153/119 177/149/119
f 182/157/120 178/153/120 184/155/120
f 135/158/121 176/71/121 174/67/121
f 176/71/122 136/159/122 175/70/122
f 133/160/123 174/67/123 172/72/123
f 175/70/124 134/161/124 173/74/124
f 133/160/125 170/80/125 131/162/125
f 134/161/126 171/81/126 173/74/126
f 166/163/127 185/164/127 168/84/127
f 186/165/128 167/166/128 169/85/128
f 131/162/129 168/84/129 185/164/129
f 169/85/130 132/167/130 186/165/130
f 190/168/131 187/169/131 144/170/131
f 190/168/132 188/171/132 189/172/132
f 187/169/133 69/173/133 185/164/133
f 188/171/134 69/173/134 189/172/134
f 131/162/135 69/173/135 130/174/135
f 132/167/135 69/173/135 186/165/135
f 142/175/136 191/176/136 144/170/136
f 192/177/137 143/178/137 145/179/137
f 140/180/138 193/181/138 142/175/138
f 194/182/139 141/183/139 143/178/139
f 197/184/140 140/180/140 139/185/140
f 198/186/141 141/183/141 196/187/141
f 71/188/142 139/185/142 138/189/142
f 71/188/143 139/185/143 198/186/143
f 144/170/144 70/190/144 190/168/144
f 145/179/145 70/190/145 192/177/145
f 191/176/146 208/191/146 70/190/146
f 192/177/147 208/191/147 207/192/147
f 71/188/148 200/193/148 197/184/148
f 201/194/149 71/188/149 198/186/149
f 197/184/150 202/195/150 195/196/150
f 203/197/151 198/186/151 196/187/151
f 202/195/152 193/181/152 195/196/152
f 203/197/153 194/182/153 205/198/153
f 193/181/154 206/199/154 191/176/154
f 207/192/155 194/182/155 192/177/155
f 204/200/156 200/193/156 199/201/156
f 205/198/157 201/194/157 203/197/157
f 199/201/158 206/199/158 204/200/158
f 207/192/159 199/201/159 205/198/159
f 139/185/160 164/89/160 177/149/160
f 165/92/161 139/185/161 177/149/161
f 140/180/162 211/202/162 164/89/162
f 212/203/163 141/183/163 165/92/163
f 144/170/164 211/202/164 142/175/164
f 145/179/165 212/203/165 214/204/165
f 187/169/166 213/205/166 144/170/166
f 188/171/167 214/204/167 167/166/167
f 209/206/168 166/163/168 81/83/168
f 210/207/169 167/166/169 214/204/169
f 215/208/170 213/205/170 209/206/170
f 216/209/171 214/204/171 212/203/171
f 79/87/172 211/202/172 215/208/172
f 212/203/173 80/91/173 216/209/173
f 130/174/174 222/210/174 131/162/174
f 130/174/175 223/211/175 72/212/175
f 133/160/176 222/210/176 220/213/176
f 223/211/177 134/161/177 221/214/177
f 135/158/178 220/213/178 218/215/178
f 221/214/179 136/159/179 219/216/179
f 137/217/135 218/215/135 217/218/135
f 219/216/135 137/217/135 217/218/135
f 218/215/180 231/219/180 217/218/180
f 219/216/181 231/219/181 230/220/181
f 218/215/182 227/221/182 229/222/182
f 228/223/183 219/216/183 230/220/183
f 220/213/142 225/224/142 227/221/142
f 226/225/184 221/214/184 228/223/184
f 72/212/185 225/224/185 222/210/185
f 72/212/186 226/225/186 224/226/186
f 224/226/187 229/222/187 225/224/187
f 230/220/188 224/226/188 226/225/188
f 225/224/189 229/222/189 227/221/189
f 228/223/190 230/220/190 226/225/190
f 183/154/191 234/227/191 232/228/191
f 235/229/192 184/155/192 233/230/192
f 112/151/193 232/228/193 254/231/193
f 233/230/194 113/152/194 255/232/194
f 112/151/195 256/233/195 110/129/195
f 113/152/196 257/234/196 255/232/196
f 114/147/197 234/227/197 181/156/197
f 115/150/198 235/229/198 253/235/198
f 114/147/199 250/236/199 252/237/199
f 251/238/200 115/150/200 253/235/200
f 116/145/201 248/239/201 250/236/201
f 249/240/202 117/148/202 251/238/202
f 118/143/203 246/241/203 248/239/203
f 247/242/204 119/146/204 249/240/204
f 120/140/205 244/243/205 246/241/205
f 245/244/206 121/144/206 247/242/206
f 124/134/207 244/243/207 122/137/207
f 125/138/208 245/244/208 243/245/208
f 126/132/209 242/246/209 124/134/209
f 127/135/210 243/245/210 241/247/210
f 126/132/211 236/248/211 240/249/211
f 237/250/212 127/135/212 241/247/212
f 179/131/213 238/251/213 236/248/213
f 239/252/214 180/133/214 237/250/214
f 128/128/215 256/233/215 238/251/215
f 257/234/216 129/130/216 239/252/216
f 256/233/217 276/253/217 238/251/217
f 257/234/218 277/254/218 259/255/218
f 236/248/219 276/253/219 278/256/219
f 277/254/220 237/250/220 279/257/220
f 236/248/221 274/258/221 240/249/221
f 237/250/222 275/259/222 279/257/222
f 240/249/223 272/260/223 242/246/223
f 241/247/224 273/261/224 275/259/224
f 244/243/225 272/260/225 270/262/225
f 273/261/226 245/244/226 271/263/226
f 244/243/227 268/264/227 246/241/227
f 245/244/228 269/265/228 271/263/228
f 248/239/229 268/264/229 266/266/229
f 269/265/230 249/240/230 267/267/230
f 248/239/231 264/268/231 250/236/231
f 249/240/232 265/269/232 267/267/232
f 250/236/233 262/270/233 252/237/233
f 251/238/234 263/271/234 265/269/234
f 234/227/235 262/270/235 280/272/235
f 263/271/236 235/229/236 281/273/236
f 256/233/237 260/274/237 258/275/237
f 261/276/238 257/234/238 259/255/238
f 254/231/239 282/277/239 260/274/239
f 283/278/240 255/232/240 261/276/240
f 232/228/241 280/272/241 282/277/241
f 281/273/242 233/230/242 283/278/242
f 67/125/243 284/279/243 73/280/243
f 285/281/244 67/125/244 73/280/244
f 108/121/245 286/282/245 284/279/245
f 287/283/246 109/123/246 285/281/246
f 104/118/247 286/282/247 106/117/247
f 105/284/248 287/283/248 289/285/248
f 102/109/249 288/286/249 104/118/249
f 103/112/250 289/285/250 291/287/250
f 100/105/251 290/288/251 102/289/251
f 101/107/252 291/287/252 293/290/252
f 100/105/253 294/291/253 292/292/253
f 295/293/254 101/107/254 293/290/254
f 96/102/255 294/291/255 98/101/255
f 97/294/256 295/293/256 297/295/256
f 96/102/257 298/296/257 296/297/257
f 299/298/258 97/294/258 297/295/258
f 94/93/259 300/299/259 298/300/259
f 301/301/260 95/95/260 299/298/260
f 309/302/261 338/303/261 308/304/261
f 309/305/262 339/306/262 329/307/262
f 308/304/263 336/308/263 307/309/263
f 308/310/264 337/311/264 339/312/264
f 307/309/265 340/313/265 306/314/265
f 307/315/266 341/316/266 337/311/266
f 89/69/267 306/314/267 340/313/267
f 306/314/268 90/75/268 341/316/268
f 87/73/269 340/313/269 334/317/269
f 341/316/270 88/78/270 335/318/270
f 85/76/271 334/317/271 330/319/271
f 335/318/272 86/77/272 331/320/272
f 83/79/273 330/319/273 332/321/273
f 331/320/274 84/82/274 333/322/274
f 330/319/275 338/303/275 332/321/275
f 339/312/276 331/320/276 333/322/276
f 334/317/277 336/308/277 330/319/277
f 335/318/278 337/311/278 341/316/278
f 332/321/279 328/323/279 326/324/279
f 333/322/280 329/325/280 339/312/280
f 81/83/281 332/321/281 326/324/281
f 333/322/282 82/86/282 327/326/282
f 342/327/283 215/208/283 209/206/283
f 343/328/284 216/209/284 345/329/284
f 326/324/285 209/206/285 81/83/285
f 327/326/286 210/207/286 343/328/286
f 215/208/287 346/330/287 79/87/287
f 216/209/288 347/331/288 345/329/288
f 346/330/289 92/94/289 79/87/289
f 347/331/290 93/332/290 301/301/290
f 324/333/291 304/334/291 77/335/291
f 325/336/292 304/337/292 353/338/292
f 352/339/293 78/340/293 304/334/293
f 353/338/294 78/341/294 351/342/294
f 78/340/295 348/343/295 305/344/295
f 349/345/296 78/341/296 305/346/296
f 305/347/297 328/323/297 309/302/297
f 329/307/298 305/346/298 309/305/298
f 328/323/299 342/327/299 326/324/299
f 329/325/300 343/328/300 349/348/300
f 296/297/301 318/349/301 310/350/301
f 319/351/302 297/295/302 311/352/302
f 316/353/303 77/335/303 76/354/303
f 317/355/304 77/356/304 325/336/304
f 358/357/305 303/358/305 302/359/305
f 359/360/306 303/361/306 357/362/306
f 303/358/307 354/363/307 75/364/307
f 355/365/308 303/361/308 75/366/308
f 75/364/309 316/353/309 76/354/309
f 317/355/310 75/366/310 76/367/310
f 292/368/311 362/369/311 364/370/311
f 363/371/312 293/372/312 365/373/312
f 364/370/313 368/374/313 366/375/313
f 369/376/314 365/373/314 367/377/314
f 366/375/315 370/378/315 372/379/315
f 371/380/316 367/377/316 373/381/316
f 372/379/317 376/382/317 374/383/317
f 377/384/318 373/381/318 375/385/318
f 378/386/319 376/382/319 314/387/319
f 379/388/320 377/384/320 375/385/320
f 316/353/321 374/383/321 378/386/321
f 375/385/322 317/355/322 379/388/322
f 354/363/323 372/379/323 374/383/323
f 373/381/324 355/365/324 375/385/324
f 356/389/325 366/375/325 372/379/325
f 367/377/326 357/362/326 373/381/326
f 358/357/327 364/370/327 366/375/327
f 365/373/328 359/360/328 367/377/328
f 292/368/329 360/390/329 290/391/329
f 293/372/330 361/392/330 365/373/330
f 360/390/331 302/359/331 74/393/331
f 361/392/332 302/394/332 359/360/332
f 284/395/333 288/396/333 290/391/333
f 289/397/334 285/398/334 291/399/334
f 284/395/335 360/390/335 74/393/335
f 361/392/336 285/398/336 74/400/336
f 73/401/337 284/395/337 74/393/337
f 74/400/338 285/398/338 73/402/338
f 296/297/339 362/369/339 294/291/339
f 297/295/340 363/403/340 311/352/340
f 310/350/341 368/374/341 362/369/341
f 369/376/342 311/404/342 363/371/342
f 312/405/343 370/378/343 368/374/343
f 371/380/344 313/406/344 369/376/344
f 376/382/345 382/407/345 314/387/345
f 377/384/346 383/408/346 371/380/346
f 350/409/347 384/410/347 348/343/347
f 351/342/348 385/411/348 387/412/348
f 384/410/349 320/413/349 318/349/349
f 385/411/350 321/414/350 387/412/350
f 298/296/351 384/410/351 318/349/351
f 385/415/352 299/298/352 319/351/352
f 300/299/353 342/327/353 384/416/353
f 343/328/354 301/301/354 385/415/354
f 342/327/355 348/417/355 384/416/355
f 385/415/356 349/348/356 343/328/356
f 300/299/357 346/330/357 344/418/357
f 345/329/358 347/331/358 301/301/358
f 322/419/359 378/386/359 314/387/359
f 323/420/360 379/388/360 381/421/360
f 378/386/361 324/333/361 316/353/361
f 379/388/362 325/336/362 381/421/362
f 386/422/363 322/419/363 320/413/363
f 387/412/364 323/420/364 381/421/364
f 352/339/365 386/422/365 350/409/365
f 353/338/366 387/412/366 381/421/366
f 324/333/367 380/423/367 352/339/367
f 353/338/368 381/421/368 325/336/368
f 388/424/369 402/425/369 400/426/369
f 389/427/370 403/428/370 415/429/370
f 400/426/371 404/430/371 398/431/371
f 405/432/372 401/433/372 399/434/372
f 404/430/373 396/435/373 398/431/373
f 405/432/374 397/436/374 407/437/374
f 406/438/375 394/439/375 396/435/375
f 407/437/376 395/440/376 409/441/376
f 408/442/377 392/443/377 394/439/377
f 409/441/378 393/444/378 411/445/378
f 392/443/379 412/446/379 390/447/379
f 413/448/380 393/444/380 391/449/380
f 410/450/381 418/451/381 412/446/381
f 419/452/382 411/445/382 413/448/382
f 408/442/383 420/453/383 410/450/383
f 421/454/384 409/441/384 411/445/384
f 424/455/385 408/442/385 406/438/385
f 425/456/386 409/441/386 423/457/386
f 426/458/387 406/438/387 404/430/387
f 427/459/388 407/437/388 425/456/388
f 428/460/389 404/430/389 402/425/389
f 429/461/390 405/432/390 427/459/390
f 402/425/391 416/462/391 428/460/391
f 417/463/392 403/428/392 429/461/392
f 320/413/393 442/464/393 318/349/393
f 321/414/394 443/465/394 445/466/394
f 390/447/395 444/467/395 320/468/395
f 391/449/396 445/469/396 413/448/396
f 310/350/397 442/464/397 312/405/397
f 443/465/398 311/404/398 313/406/398
f 382/470/399 414/471/399 388/424/399
f 415/429/400 383/472/400 389/427/400
f 412/446/401 440/473/401 444/467/401
f 441/474/402 413/448/402 445/469/402
f 446/475/403 440/473/403 438/476/403
f 447/477/404 441/474/404 445/469/404
f 434/478/135 438/476/135 436/479/135
f 439/480/135 435/481/135 437/482/135
f 448/483/405 434/478/405 432/484/405
f 449/485/406 435/481/406 447/477/406
f 448/483/407 450/486/407 430/487/407
f 449/485/408 451/488/408 433/489/408
f 430/487/409 416/462/409 414/471/409
f 431/490/410 417/463/410 451/488/410
f 312/405/411 430/491/411 382/407/411
f 431/492/412 313/406/412 383/408/412
f 442/464/413 448/493/413 312/405/413
f 443/465/414 449/494/414 447/495/414
f 442/464/415 444/496/415 446/497/415
f 447/495/416 445/466/416 443/465/416
f 416/462/417 452/498/417 476/499/417
f 453/500/418 417/463/418 477/501/418
f 432/484/419 452/498/419 450/486/419
f 433/489/420 453/500/420 463/502/420
f 432/484/421 460/503/421 462/504/421
f 461/505/422 433/489/422 463/502/422
f 436/479/423 460/503/423 434/478/423
f 437/482/424 461/505/424 459/506/424
f 438/476/425 458/507/425 436/479/425
f 439/480/426 459/506/426 457/508/426
f 438/476/427 454/509/427 456/510/427
f 455/511/428 439/480/428 457/508/428
f 440/473/429 474/512/429 454/509/429
f 475/513/429 441/474/429 455/511/429
f 428/460/430 476/499/430 464/514/430
f 477/501/431 429/461/431 465/515/431
f 426/458/432 464/514/432 466/516/432
f 465/515/433 427/459/433 467/517/433
f 424/455/434 466/516/434 468/518/434
f 467/517/435 425/456/435 469/519/435
f 424/455/436 470/520/436 422/521/436
f 425/456/437 471/522/437 469/519/437
f 422/521/438 472/523/438 420/453/438
f 423/457/439 473/524/439 471/522/439
f 420/453/440 474/512/440 418/451/440
f 421/454/441 475/513/441 473/524/441
f 456/510/442 478/525/442 458/507/442
f 457/508/443 479/526/443 481/527/443
f 480/528/444 484/529/444 478/525/444
f 481/527/445 485/530/445 483/531/445
f 484/529/446 488/532/446 486/533/446
f 489/534/447 485/530/447 487/535/447
f 488/532/448 492/536/448 486/533/448
f 489/534/449 493/537/449 491/538/449
f 464/514/450 486/533/450 492/536/450
f 487/535/451 465/515/451 493/537/451
f 484/529/452 476/499/452 452/498/452
f 485/530/453 477/501/453 487/535/453
f 462/504/454 484/529/454 452/498/454
f 463/502/455 485/530/455 479/526/455
f 458/507/135 462/504/135 460/503/135
f 463/502/135 459/506/135 461/505/135
f 474/512/456 456/510/456 454/509/456
f 475/513/457 457/508/457 481/527/457
f 472/523/458 480/528/458 474/512/458
f 481/527/459 473/524/459 475/513/459
f 488/532/460 472/523/460 470/520/460
f 489/534/461 473/524/461 483/531/461
f 490/539/462 470/520/462 468/518/462
f 491/538/463 471/522/463 489/534/463
f 466/516/464 490/539/464 468/518/464
f 491/538/465 467/517/465 469/519/465
f 464/514/466 492/536/466 466/516/466
f 467/517/467 493/537/467 465/515/467
f 392/443/468 504/540/468 502/541/468
f 505/542/469 393/444/469 503/543/469
f 394/439/470 502/541/470 500/544/470
f 503/543/471 395/440/471 501/545/471
f 394/439/472 498/546/472 396/435/472
f 395/440/473 499/547/473 501/545/473
f 396/435/474 496/548/474 398/549/474
f 397/436/475 497/550/475 499/547/475
f 398/549/476 494/551/476 400/552/476
f 399/553/477 495/554/477 497/550/477
f 400/552/478 506/555/478 388/556/478
f 401/557/479 507/558/479 495/554/479
f 502/541/480 506/555/480 494/551/480
f 503/543/481 507/558/481 505/542/481
f 494/551/482 500/544/482 502/541/482
f 501/545/483 495/554/483 503/543/483
f 496/548/484 498/546/484 500/544/484
f 501/545/485 499/547/485 497/550/485
f 382/559/486 506/555/486 314/560/486
f 383/561/487 507/558/487 389/562/487
f 314/560/488 504/540/488 322/563/488
f 505/542/489 315/564/489 323/565/489
f 320/468/490 504/540/490 390/447/490
f 505/542/491 321/566/491 391/449/491
f 47/1/492 1/13/492 3/2/492
f 4/4/493 2/16/493 48/5/493
f 45/3/494 3/2/494 5/7/494
f 6/9/495 4/4/495 46/6/495
f 3/2/496 9/14/496 7/11/496
f 8/12/497 10/15/497 4/4/497
f 1/13/498 11/17/498 9/14/498
f 10/15/499 12/20/499 2/16/499
f 11/17/500 13/26/500 15/18/500
f 16/19/501 14/27/501 12/20/501
f 9/14/502 15/18/502 17/21/502
f 18/22/503 16/19/503 10/15/503
f 21/23/504 19/32/504 17/21/504
f 22/24/505 16/19/505 18/22/505
f 13/26/506 23/28/506 21/23/506
f 22/24/507 24/31/507 14/27/507
f 23/28/508 25/39/508 27/29/508
f 28/30/509 26/54/509 24/31/509
f 27/29/510 29/35/510 19/32/510
f 28/30/511 22/24/511 20/25/511
f 33/34/512 31/45/512 29/35/512
f 34/36/513 28/30/513 30/33/513
f 35/38/514 33/34/514 27/29/514
f 36/40/515 26/54/515 28/30/515
f 37/41/516 39/44/516 33/34/516
f 38/42/517 36/40/517 34/36/517
f 39/44/518 41/47/518 31/45/518
f 40/43/519 34/36/519 32/37/519
f 45/3/520 43/8/520 41/47/520
f 46/6/521 40/43/521 42/46/521
f 47/1/522 45/3/522 39/44/522
f 48/5/523 38/42/523 40/43/523
f 37/41/524 51/51/524 49/48/524
f 38/42/525 48/5/525 50/49/525
f 35/38/526 53/53/526 51/51/526
f 36/40/527 38/42/527 52/50/527
f 25/39/528 55/56/528 53/53/528
f 26/54/529 36/40/529 54/52/529
f 23/28/530 57/59/530 55/56/530
f 24/31/531 26/54/531 56/55/531
f 23/28/532 13/26/532 59/58/532
f 60/60/533 14/27/533 24/31/533
f 13/26/534 11/17/534 63/61/534
f 64/62/535 12/20/535 14/27/535
f 11/17/536 1/13/536 65/63/536
f 66/64/537 2/16/537 12/20/537
f 1/13/538 47/1/538 49/48/538
f 50/49/539 48/5/539 2/16/539
f 174/67/540 176/71/540 91/68/540
f 175/70/541 90/75/541 91/68/541
f 172/72/542 174/67/542 89/69/542
f 173/74/543 88/78/543 90/75/543
f 85/76/544 170/80/544 172/72/544
f 173/74/545 171/81/545 86/77/545
f 83/79/546 168/84/546 170/80/546
f 171/81/547 169/85/547 84/82/547
f 81/83/548 166/163/548 168/84/548
f 169/85/549 167/166/549 82/86/549
f 79/87/550 92/94/550 146/88/550
f 147/90/551 93/332/551 80/91/551
f 94/93/552 148/142/552 146/88/552
f 95/95/553 93/332/553 147/90/553
f 94/97/554 96/102/554 150/98/554
f 151/100/555 97/294/555 95/95/555
f 98/101/556 152/106/556 150/98/556
f 99/103/557 97/294/557 151/100/557
f 100/105/558 154/567/558 152/106/558
f 101/107/559 99/103/559 153/104/559
f 102/109/560 156/115/560 154/110/560
f 103/112/561 101/107/561 155/108/561
f 102/109/562 104/118/562 158/114/562
f 159/116/563 105/284/563 103/112/563
f 106/117/564 160/122/564 158/114/564
f 107/119/565 105/284/565 159/116/565
f 108/121/566 162/126/566 160/122/566
f 109/123/567 107/119/567 161/120/567
f 67/125/568 68/127/568 162/126/568
f 67/125/569 109/123/569 163/124/569
f 128/128/570 160/122/570 162/126/570
f 129/130/571 111/568/571 163/124/571
f 128/128/572 179/131/572 158/114/572
f 159/116/573 180/133/573 129/130/573
f 156/115/574 158/114/574 179/131/574
f 157/113/575 127/135/575 180/133/575
f 154/110/576 156/115/576 126/132/576
f 155/108/577 125/138/577 127/135/577
f 152/136/578 154/110/578 124/134/578
f 153/104/579 123/141/579 125/138/579
f 150/139/580 152/136/580 122/137/580
f 151/100/581 121/144/581 123/141/581
f 148/142/582 150/139/582 120/140/582
f 149/96/583 119/146/583 121/144/583
f 146/88/584 148/142/584 118/143/584
f 147/90/585 117/148/585 119/146/585
f 164/89/586 146/88/586 116/145/586
f 165/92/587 115/150/587 117/148/587
f 114/147/588 181/156/588 177/149/588
f 177/149/589 182/157/589 115/150/589
f 162/126/590 68/127/590 112/151/590
f 163/124/591 111/568/591 113/152/591
f 112/151/592 68/127/592 178/153/592
f 178/153/593 68/127/593 113/152/593
f 181/156/594 183/154/594 178/153/594
f 182/157/595 177/149/595 178/153/595
f 135/158/596 137/217/596 176/71/596
f 176/71/597 137/217/597 136/159/597
f 133/160/598 135/158/598 174/67/598
f 175/70/599 136/159/599 134/161/599
f 133/160/600 172/72/600 170/80/600
f 134/161/601 132/167/601 171/81/601
f 166/163/602 187/169/602 185/164/602
f 186/165/603 188/171/603 167/166/603
f 131/162/604 170/80/604 168/84/604
f 169/85/605 171/81/605 132/167/605
f 190/168/132 189/172/132 187/169/132
f 190/168/606 145/179/606 188/171/606
f 187/169/134 189/172/134 69/173/134
f 188/171/607 186/165/607 69/173/607
f 131/162/135 185/164/135 69/173/135
f 132/167/135 130/174/135 69/173/135
f 142/175/608 193/181/608 191/176/608
f 192/177/609 194/182/609 143/178/609
f 140/180/610 195/196/610 193/181/610
f 194/182/611 196/187/611 141/183/611
f 197/184/612 195/196/612 140/180/612
f 198/186/613 139/185/613 141/183/613
f 71/188/614 197/184/614 139/185/614
f 144/170/615 191/176/615 70/190/615
f 145/179/616 190/168/616 70/190/616
f 191/176/146 206/199/146 208/191/146
f 192/177/147 70/190/147 208/191/147
f 71/188/617 199/201/617 200/193/617
f 201/194/618 199/201/618 71/188/618
f 197/184/619 200/193/619 202/195/619
f 203/197/620 201/194/620 198/186/620
f 202/195/621 204/200/621 193/181/621
f 203/197/622 196/187/622 194/182/622
f 193/181/623 204/200/623 206/199/623
f 207/192/624 205/198/624 194/182/624
f 204/200/625 202/195/625 200/193/625
f 205/198/626 199/201/626 201/194/626
f 199/201/627 208/191/627 206/199/627
f 207/192/628 208/191/628 199/201/628
f 139/185/629 140/180/629 164/89/629
f 165/92/630 141/183/630 139/185/630
f 140/180/631 142/175/631 211/202/631
f 212/203/632 143/178/632 141/183/632
f 144/170/633 213/205/633 211/202/633
f 145/179/634 143/178/634 212/203/634
f 187/169/635 166/163/635 213/205/635
f 188/171/636 145/179/636 214/204/636
f 209/206/637 213/205/637 166/163/637
f 210/207/638 82/86/638 167/166/638
f 215/208/639 211/202/639 213/205/639
f 216/209/640 210/207/640 214/204/640
f 79/87/641 164/89/641 211/202/641
f 212/203/642 165/92/642 80/91/642
f 130/174/643 72/212/643 222/210/643
f 130/174/644 132/167/644 223/211/644
f 133/160/645 131/162/645 222/210/645
f 223/211/646 132/167/646 134/161/646
f 135/158/647 133/160/647 220/213/647
f 221/214/648 134/161/648 136/159/648
f 137/217/649 135/158/649 218/215/649
f 219/216/650 136/159/650 137/217/650
f 218/215/180 229/222/180 231/219/180
f 219/216/181 217/218/181 231/219/181
f 218/215/651 220/213/651 227/221/651
f 228/223/652 221/214/652 219/216/652
f 220/213/142 222/210/142 225/224/142
f 226/225/184 223/211/184 221/214/184
f 72/212/185 224/226/185 225/224/185
f 72/212/186 223/211/186 226/225/186
f 224/226/653 231/219/653 229/222/653
f 230/220/654 231/219/654 224/226/654
f 183/154/655 181/156/655 234/227/655
f 235/229/656 182/157/656 184/155/656
f 112/151/657 183/154/657 232/228/657
f 233/230/658 184/155/658 113/152/658
f 112/151/659 254/231/659 256/233/659
f 113/152/660 111/568/660 257/234/660
f 114/147/661 252/237/661 234/227/661
f 115/150/662 182/157/662 235/229/662
f 114/147/663 116/145/663 250/236/663
f 251/238/664 117/148/664 115/150/664
f 116/145/665 118/143/665 248/239/665
f 249/240/666 119/146/666 117/148/666
f 118/143/667 120/140/667 246/241/667
f 247/242/668 121/144/668 119/146/668
f 120/140/669 122/137/669 244/243/669
f 245/244/670 123/141/670 121/144/670
f 124/134/671 242/246/671 244/243/671
f 125/138/672 123/141/672 245/244/672
f 126/132/673 240/249/673 242/246/673
f 127/135/674 125/138/674 243/245/674
f 126/132/675 179/131/675 236/248/675
f 237/250/676 180/133/676 127/135/676
f 179/131/677 128/128/677 238/251/677
f 239/252/678 129/130/678 180/133/678
f 128/128/679 110/129/679 256/233/679
f 257/234/680 111/568/680 129/130/680
f 256/233/681 258/275/681 276/253/681
f 257/234/682 239/252/682 277/254/682
f 236/248/683 238/251/683 276/253/683
f 277/254/684 239/252/684 237/250/684
f 236/248/685 278/256/685 274/258/685
f 237/250/686 241/247/686 275/259/686
f 240/249/687 274/258/687 272/260/687
f 241/247/688 243/245/688 273/261/688
f 244/243/689 242/246/689 272/260/689
f 273/261/690 243/245/690 245/244/690
f 244/243/691 270/262/691 268/264/691
f 245/244/692 247/242/692 269/265/692
f 248/239/693 246/241/693 268/264/693
f 269/265/694 247/242/694 249/240/694
f 248/239/695 266/266/695 264/268/695
f 249/240/696 251/238/696 265/269/696
f 250/236/697 264/268/697 262/270/697
f 251/238/698 253/235/698 263/271/698
f 234/227/699 252/237/699 262/270/699
f 263/271/700 253/235/700 235/229/700
f 256/233/701 254/231/701 260/274/701
f 261/276/702 255/232/702 257/234/702
f 254/231/703 232/228/703 282/277/703
f 283/278/704 233/230/704 255/232/704
f 232/228/705 234/227/705 280/272/705
f 281/273/706 235/229/706 233/230/706
f 67/125/707 108/121/707 284/279/707
f 285/281/708 109/123/708 67/125/708
f 108/121/709 106/117/709 286/282/709
f 287/283/710 107/119/710 109/123/710
f 104/118/711 288/286/711 286/282/711
f 105/284/712 107/119/712 287/283/712
f 102/109/713 290/569/713 288/286/713
f 103/112/714 105/284/714 289/285/714
f 100/105/715 292/292/715 290/288/715
f 101/107/716 103/112/716 291/287/716
f 100/105/717 98/101/717 294/291/717
f 295/293/718 99/103/718 101/107/718
f 96/102/719 296/297/719 294/291/719
f 97/294/720 99/103/720 295/293/720
f 96/102/721 94/97/721 298/296/721
f 299/298/722 95/95/722 97/294/722
f 94/93/723 92/94/723 300/299/723
f 301/301/724 93/332/724 95/95/724
f 309/302/725 328/323/725 338/303/725
f 309/305/726 308/570/726 339/306/726
f 308/304/727 338/303/727 336/308/727
f 308/310/728 307/315/728 337/311/728
f 307/309/729 336/308/729 340/313/729
f 307/315/730 306/314/730 341/316/730
f 89/69/731 91/68/731 306/314/731
f 306/314/732 91/68/732 90/75/732
f 87/73/733 89/69/733 340/313/733
f 341/316/734 90/75/734 88/78/734
f 85/76/735 87/73/735 334/317/735
f 335/318/736 88/78/736 86/77/736
f 83/79/737 85/76/737 330/319/737
f 331/320/738 86/77/738 84/82/738
f 330/319/739 336/308/739 338/303/739
f 339/312/740 337/311/740 331/320/740
f 334/317/741 340/313/741 336/308/741
f 335/318/742 331/320/742 337/311/742
f 332/321/743 338/303/743 328/323/743
f 333/322/744 327/326/744 329/325/744
f 81/83/745 83/79/745 332/321/745
f 333/322/746 84/82/746 82/86/746
f 342/327/747 344/418/747 215/208/747
f 343/328/748 210/207/748 216/209/748
f 326/324/749 342/327/749 209/206/749
f 327/326/750 82/86/750 210/207/750
f 215/208/751 344/418/751 346/330/751
f 216/209/752 80/91/752 347/331/752
f 346/330/753 300/299/753 92/94/753
f 347/331/754 80/91/754 93/332/754
f 324/333/755 352/339/755 304/334/755
f 325/336/756 77/356/756 304/337/756
f 352/339/757 350/409/757 78/340/757
f 353/338/758 304/337/758 78/341/758
f 78/340/759 350/409/759 348/343/759
f 349/345/760 351/342/760 78/341/760
f 305/347/761 348/417/761 328/323/761
f 329/307/762 349/345/762 305/346/762
f 328/323/763 348/417/763 342/327/763
f 329/325/764 327/326/764 343/328/764
f 296/297/765 298/296/765 318/349/765
f 319/351/766 299/298/766 297/295/766
f 316/353/767 324/333/767 77/335/767
f 317/355/768 76/367/768 77/356/768
f 358/357/769 356/389/769 303/358/769
f 359/360/770 302/394/770 303/361/770
f 303/358/771 356/389/771 354/363/771
f 355/365/772 357/362/772 303/361/772
f 75/364/773 354/363/773 316/353/773
f 317/355/774 355/365/774 75/366/774
f 292/368/775 294/291/775 362/369/775
f 363/371/776 295/571/776 293/372/776
f 364/370/777 362/369/777 368/374/777
f 369/376/778 363/371/778 365/373/778
f 366/375/779 368/374/779 370/378/779
f 371/380/780 369/376/780 367/377/780
f 372/379/781 370/378/781 376/382/781
f 377/384/782 371/380/782 373/381/782
f 378/386/783 374/383/783 376/382/783
f 379/388/784 315/572/784 377/384/784
f 316/353/785 354/363/785 374/383/785
f 375/385/786 355/365/786 317/355/786
f 354/363/787 356/389/787 372/379/787
f 373/381/788 357/362/788 355/365/788
f 356/389/789 358/357/789 366/375/789
f 367/377/790 359/360/790 357/362/790
f 358/357/791 360/390/791 364/370/791
f 365/373/792 361/392/792 359/360/792
f 292/368/793 364/370/793 360/390/793
f 293/372/794 291/399/794 361/392/794
f 360/390/795 358/357/795 302/359/795
f 361/392/796 74/400/796 302/394/796
f 284/395/797 286/573/797 288/396/797
f 289/397/798 287/574/798 285/398/798
f 284/395/799 290/391/799 360/390/799
f 361/392/800 291/399/800 285/398/800
f 296/297/801 310/350/801 362/369/801
f 297/295/802 295/293/802 363/403/802
f 310/350/803 312/405/803 368/374/803
f 369/376/804 313/406/804 311/404/804
f 312/405/805 382/407/805 370/378/805
f 371/380/806 383/408/806 313/406/806
f 376/382/807 370/378/807 382/407/807
f 377/384/808 315/572/808 383/408/808
f 350/409/809 386/422/809 384/410/809
f 351/342/810 349/345/810 385/411/810
f 384/410/811 386/422/811 320/413/811
f 385/411/812 319/575/812 321/414/812
f 298/296/813 300/576/813 384/410/813
f 385/415/814 301/301/814 299/298/814
f 300/299/815 344/418/815 342/327/815
f 343/328/816 345/329/816 301/301/816
f 322/419/817 380/423/817 378/386/817
f 323/420/818 315/572/818 379/388/818
f 378/386/819 380/423/819 324/333/819
f 379/388/820 317/355/820 325/336/820
f 386/422/821 380/423/821 322/419/821
f 387/412/822 321/414/822 323/420/822
f 352/339/823 380/423/823 386/422/823
f 353/338/824 351/342/824 387/412/824
f 388/424/825 414/471/825 402/425/825
f 389/427/826 401/433/826 403/428/826
f 400/426/827 402/425/827 404/430/827
f 405/432/828 403/428/828 401/433/828
f 404/430/829 406/438/829 396/435/829
f 405/432/830 399/434/830 397/436/830
f 406/438/831 408/442/831 394/439/831
f 407/437/832 397/436/832 395/440/832
f 408/442/833 410/450/833 392/443/833
f 409/441/834 395/440/834 393/444/834
f 392/443/835 410/450/835 412/446/835
f 413/448/836 411/445/836 393/444/836
f 410/450/837 420/453/837 418/451/837
f 419/452/838 421/454/838 411/445/838
f 408/442/839 422/521/839 420/453/839
f 421/454/840 423/457/840 409/441/840
f 424/455/841 422/521/841 408/442/841
f 425/456/842 407/437/842 409/441/842
f 426/458/843 424/455/843 406/438/843
f 427/459/844 405/432/844 407/437/844
f 428/460/845 426/458/845 404/430/845
f 429/461/846 403/428/846 405/432/846
f 402/425/847 414/471/847 416/462/847
f 417/463/848 415/429/848 403/428/848
f 320/413/849 444/496/849 442/464/849
f 321/414/850 319/575/850 443/465/850
f 390/447/851 412/446/851 444/467/851
f 391/449/852 321/566/852 445/469/852
f 310/350/853 318/349/853 442/464/853
f 443/465/854 319/575/854 311/404/854
f 382/470/855 430/487/855 414/471/855
f 415/429/856 431/490/856 383/472/856
f 412/446/857 418/451/857 440/473/857
f 441/474/858 419/452/858 413/448/858
f 446/475/859 444/467/859 440/473/859
f 447/477/860 439/480/860 441/474/860
f 434/478/861 446/475/861 438/476/861
f 439/480/862 447/477/862 435/481/862
f 448/483/863 446/475/863 434/478/863
f 449/485/864 433/489/864 435/481/864
f 448/483/865 432/484/865 450/486/865
f 449/485/866 431/490/866 451/488/866
f 430/487/867 450/486/867 416/462/867
f 431/490/868 415/429/868 417/463/868
f 312/405/869 448/493/869 430/491/869
f 431/492/870 449/494/870 313/406/870
f 442/464/871 446/497/871 448/493/871
f 443/465/872 313/406/872 449/494/872
f 416/462/873 450/486/873 452/498/873
f 453/500/874 451/488/874 417/463/874
f 432/484/875 462/504/875 452/498/875
f 433/489/876 451/488/876 453/500/876
f 432/484/877 434/478/877 460/503/877
f 461/505/878 435/481/878 433/489/878
f 436/479/879 458/507/879 460/503/879
f 437/482/880 435/481/880 461/505/880
f 438/476/881 456/510/881 458/507/881
f 439/480/882 437/482/882 459/506/882
f 438/476/883 440/473/883 454/509/883
f 455/511/884 441/474/884 439/480/884
f 440/473/885 418/451/885 474/512/885
f 475/513/886 419/452/886 441/474/886
f 428/460/887 416/462/887 476/499/887
f 477/501/888 417/463/888 429/461/888
f 426/458/889 428/460/889 464/514/889
f 465/515/890 429/461/890 427/459/890
f 424/455/891 426/458/891 466/516/891
f 467/517/892 427/459/892 425/456/892
f 424/455/893 468/518/893 470/520/893
f 425/456/894 423/457/894 471/522/894
f 422/521/895 470/520/895 472/523/895
f 423/457/896 421/454/896 473/524/896
f 420/453/897 472/523/897 474/512/897
f 421/454/898 419/452/898 475/513/898
f 456/510/899 480/528/899 478/525/899
f 457/508/900 459/506/900 479/526/900
f 480/528/901 482/577/901 484/529/901
f 481/527/902 479/526/902 485/530/902
f 484/529/903 482/577/903 488/532/903
f 489/534/904 483/531/904 485/530/904
f 488/532/905 490/539/905 492/536/905
f 489/534/906 487/535/906 493/537/906
f 464/514/907 476/499/907 486/533/907
f 487/535/908 477/501/908 465/515/908
f 484/529/909 486/533/909 476/499/909
f 485/530/910 453/500/910 477/501/910
f 462/504/911 478/525/911 484/529/911
f 463/502/912 453/500/912 485/530/912
f 458/507/913 478/525/913 462/504/913
f 463/502/914 479/526/914 459/506/914
f 474/512/915 480/528/915 456/510/915
f 475/513/916 455/511/916 457/508/916
f 472/523/917 482/577/917 480/528/917
f 481/527/918 483/531/918 473/524/918
f 488/532/919 482/577/919 472/523/919
f 489/534/920 471/522/920 473/524/920
f 490/539/921 488/532/921 470/520/921
f 491/538/922 469/519/922 471/522/922
f 466/516/923 492/536/923 490/539/923
f 491/538/924 493/537/924 467/517/924
f 392/443/925 390/447/925 504/540/925
f 505/542/926 391/449/926 393/444/926
f 394/439/927 392/443/927 502/541/927
f 503/543/928 393/444/928 395/440/928
f 394/439/929 500/544/929 498/546/929
f 395/440/930 397/436/930 499/547/930
f 396/435/931 498/546/931 496/548/931
f 397/436/932 399/553/932 497/550/932
f 398/549/933 496/548/933 494/551/933
f 399/553/934 401/557/934 495/554/934
f 400/552/935 494/551/935 506/555/935
f 401/557/936 389/562/936 507/558/936
f 502/541/937 504/540/937 506/555/937
f 503/543/938 495/554/938 507/558/938
f 494/551/939 496/548/939 500/544/939
f 501/545/940 497/550/940 495/554/940
f 382/559/941 388/556/941 506/555/941
f 383/561/942 315/564/942 507/558/942
f 314/560/943 506/555/943 504/540/943
f 505/542/944 507/558/944 315/564/944
f 320/468/945 322/563/945 504/540/945
f 505/542/946 323/565/946 321/566/946
